<?xml version="1.0" encoding="UTF-8" standalone="no"?>
<!-- Created with Inkscape (http://www.inkscape.org/) -->

<svg
   width="79.962601mm"
   height="83.039978mm"
   viewBox="0 0 79.962601 83.039978"
   version="1.1"
   id="svg1"
   xml:space="preserve"
   inkscape:version="1.3.2 (091e20e, 2023-11-25, custom)"
   sodipodi:docname="appIcon.svg"
   xmlns:inkscape="http://www.inkscape.org/namespaces/inkscape"
   xmlns:sodipodi="http://sodipodi.sourceforge.net/DTD/sodipodi-0.dtd"
   xmlns:xlink="http://www.w3.org/1999/xlink"
   xmlns="http://www.w3.org/2000/svg"
   xmlns:svg="http://www.w3.org/2000/svg"><sodipodi:namedview
     id="namedview1"
     pagecolor="#505050"
     bordercolor="#ffffff"
     borderopacity="1"
     inkscape:showpageshadow="0"
     inkscape:pageopacity="0"
     inkscape:pagecheckerboard="1"
     inkscape:deskcolor="#d1d1d1"
     inkscape:document-units="mm"
     inkscape:zoom="1.0729879"
     inkscape:cx="404.94397"
     inkscape:cy="612.30884"
     inkscape:window-width="1920"
     inkscape:window-height="1017"
     inkscape:window-x="1912"
     inkscape:window-y="-8"
     inkscape:window-maximized="1"
     inkscape:current-layer="layer1" /><defs
     id="defs1" /><g
     inkscape:label="Layer 1"
     inkscape:groupmode="layer"
     id="layer1"
     transform="translate(-61.497724,-125.63231)"><image
       width="134.66234"
       height="134.66234"
       preserveAspectRatio="none"
       xlink:href="icon.png.png"
       id="image1"
       x="37.763981"
       y="81.168831"
       style="display:none" /><path
       style="fill:#ffffff;fill-opacity:1"
       d="m 86.828749,208.66652 c -3.4344,-0.21638 -6.582602,-1.11056 -9.475015,-2.69118 -2.281523,-1.24678 -4.425401,-3.00813 -6.105458,-5.01607 -0.03785,-0.0452 0.01627,-0.087 0.48649,-0.37523 0.716965,-0.43952 1.951483,-1.24761 3.224527,-2.1107 2.678232,-1.81578 3.527449,-2.3473 4.640365,-2.90441 1.413303,-0.70748 2.370744,-0.97621 3.328075,-0.9341 1.362646,0.0599 2.594156,0.88859 3.889532,2.61722 1.031872,1.37698 2.157449,3.49248 3.091624,5.81064 0.136023,0.33755 0.210417,0.48481 0.244343,0.48367 0.02683,-8.9e-4 0.694266,-0.11089 1.483199,-0.24442 l 1.434426,-0.2428 0.008,-18.83195 0.008,-18.83195 -0.33572,-0.80851 c -1.140788,-2.7473 -2.192156,-4.70713 -3.393383,-6.32552 l -0.280795,-0.37831 0.01941,-0.52017 c 0.08688,-2.32875 0.42578,-4.24771 1.119081,-6.33669 0.825173,-2.48631 2.012364,-4.67353 3.64479,-6.71499 3.07976,-3.85142 7.39829,-6.48269 12.18288,-7.42298 1.54401,-0.30344 3.25187,-0.43799 4.66128,-0.36722 2.09634,0.10525 3.77021,0.40862 5.58538,1.0123 1.87708,0.62427 3.47932,1.40683 5.05936,2.47108 3.04013,2.04771 5.48817,4.84487 7.14917,8.16873 1.00161,2.00435 1.73058,4.31534 2.05466,6.51373 0.19151,1.2991 0.2209,1.73325 0.22066,3.25926 -1.9e-4,1.25152 -0.009,1.49666 -0.071,2.0807 -0.13901,1.30067 -0.26984,2.04703 -0.57675,3.29034 -0.37977,1.53849 -0.93457,3.03008 -1.66077,4.46501 l -0.25527,0.50441 -0.002,-2.02228 -0.002,-2.02229 -1.37925,-0.0161 c -0.75859,-0.009 -1.49984,-0.0318 -1.64723,-0.0511 -1.40067,-0.18297 -2.73744,-0.52174 -4.05106,-1.02662 -1.95233,-0.75036 -4.26942,-2.0559 -7.18788,-4.04995 -3.03993,-2.07704 -4.21779,-2.81269 -5.58006,-3.48509 -1.32279,-0.65291 -2.30861,-0.98434 -3.42055,-1.14995 -0.53045,-0.079 -1.46192,-0.0866 -1.99799,-0.0164 -1.25284,0.16423 -2.50548,0.71926 -3.59783,1.59416 -0.62197,0.49815 -1.41271,1.33951 -2.07191,2.20455 -1.10629,1.45172 -2.37369,3.82719 -3.47338,6.51007 l -0.27136,0.66204 0.008,18.81928 0.008,18.81928 1.43443,0.24437 c 0.78893,0.13441 1.45724,0.24508 1.48514,0.24594 0.0361,0.001 0.10334,-0.12758 0.23377,-0.44768 1.10338,-2.7079 2.37539,-5.0175 3.49425,-6.34456 0.25601,-0.30365 0.86834,-0.92106 1.10776,-1.11695 1.71824,-1.40583 3.40447,-1.34902 6.27363,0.21139 0.60292,0.32791 1.90597,1.14701 2.94766,1.85292 1.71242,1.16045 3.6267,2.42616 4.24021,2.80363 0.32945,0.20269 0.61065,0.37967 0.62489,0.3933 0.0682,0.0653 -1.38032,1.59135 -2.19368,2.31105 -1.51284,1.33865 -3.09191,2.38546 -4.97731,3.29962 -2.05933,0.99848 -4.39204,1.69353 -6.67478,1.98881 -1.37756,0.17819 -0.87198,0.16723 -7.9802,0.17308 -3.615222,0.003 -6.644062,9.4e-4 -6.730758,-0.005 z M 61.497785,184.28825 v -17.24711 l 0.118222,-3.7e-4 c 0.06502,-2e-4 0.409047,-0.0419 0.7645,-0.0927 2.632923,-0.3763 5.167527,-1.3141 8.165177,-3.02111 1.176073,-0.66971 2.087764,-1.25324 4.583406,-2.93359 2.283985,-1.53783 2.860224,-1.90879 3.741497,-2.40864 1.232782,-0.69922 2.427911,-1.16571 3.286747,-1.2829 0.35614,-0.0486 0.951148,-0.0413 1.249395,0.0152 1.299702,0.24655 2.524207,1.24894 3.791446,3.1037 0.328808,0.48125 0.842143,1.33519 1.184446,1.97036 0.404509,0.75059 1.172716,2.41031 1.536121,3.31881 l 0.110052,0.27513 -0.008,15.28685 -0.008,15.28685 -0.186043,-0.28058 c -0.921895,-1.39036 -2.063902,-2.58678 -3.183794,-3.33549 -0.334721,-0.22377 -1.060144,-0.60243 -1.422411,-0.74246 -0.340679,-0.13169 -0.974493,-0.30457 -1.339516,-0.36536 -0.419975,-0.0699 -1.450304,-0.0959 -1.895945,-0.0477 -1.352815,0.14617 -2.800855,0.65429 -4.452855,1.56252 -1.08509,0.59655 -1.842465,1.08338 -5.252687,3.37632 -3.692743,2.48289 -6.017361,3.67133 -8.534023,4.36293 -0.487527,0.13398 -1.56002,0.35703 -1.885247,0.39209 -0.104035,0.0112 -0.228168,0.028 -0.275851,0.0374 l -0.0867,0.017 z m 63.161895,17.17931 c -2.73528,-0.41843 -5.45197,-1.57947 -8.88257,-3.79615 -0.60482,-0.39081 -0.81819,-0.5328 -3.44401,-2.29199 -0.76293,-0.51112 -1.57866,-1.04782 -1.81273,-1.19266 -3.1558,-1.95266 -5.31698,-2.63909 -7.50367,-2.38329 -1.27153,0.14874 -2.53005,0.6972 -3.656453,1.59349 -0.82851,0.65925 -1.76963,1.70775 -2.48543,2.76902 l -0.24155,0.35813 -0.008,-15.29681 -0.008,-15.29681 0.22461,-0.5402 c 0.98211,-2.36206 2.07129,-4.3638 3.08997,-5.67889 0.335723,-0.4334 1.263363,-1.37925 1.582683,-1.61373 0.76434,-0.56129 1.3879,-0.79248 2.21186,-0.82008 0.61117,-0.0205 1.08478,0.0531 1.7462,0.2711 1.32585,0.43706 2.58762,1.13931 5.18189,2.88403 3.93533,2.64662 5.02874,3.32888 6.7541,4.2144 1.21004,0.62103 2.13996,1.02896 3.1841,1.39677 1.41695,0.49914 2.93534,0.84725 4.31903,0.99021 l 0.22068,0.0228 v 17.22841 c 0,15.29052 -0.005,17.22907 -0.0473,17.23427 -0.026,0.003 -0.21753,-0.0202 -0.4256,-0.052 z m 3.54665,-18.09566 v -0.91385 l 0.24317,-0.19744 c 1.23344,-1.00147 2.48731,-2.19323 3.47687,-3.30465 1.95395,-2.19457 3.44268,-4.39845 4.72636,-6.9968 1.15164,-2.33107 1.98239,-4.70493 2.53753,-7.25093 0.63722,-2.92244 0.8574,-5.97363 0.64722,-8.96908 -0.43268,-6.16674 -2.62154,-12.00378 -6.33067,-16.88206 -1.32961,-1.74871 -2.98611,-3.48301 -4.68886,-4.90908 -2.76501,-2.31573 -6.09445,-4.19108 -9.4546,-5.32544 -2.38601,-0.80549 -4.51891,-1.24876 -7.12483,-1.48071 -0.7494,-0.0667 -3.02753,-0.0939 -3.85653,-0.046 -4.04848,0.23389 -7.84608,1.23509 -11.386173,3.00183 -2.53062,1.26295 -4.43804,2.54152 -6.570587,4.40437 -0.581988,0.50838 -1.918556,1.84143 -2.517358,2.51072 -4.32608,4.83537 -7.002356,10.86827 -7.747844,17.46529 -0.01959,0.17339 -0.04511,0.32466 -0.05671,0.33615 -0.0116,0.0115 -0.191325,0.0846 -0.399395,0.16253 -0.20807,0.0779 -0.491802,0.19109 -0.630515,0.25154 -0.138714,0.0605 -0.32128,0.14004 -0.405704,0.17686 l -0.153497,0.0669 0.02127,-0.24481 c 0.241364,-2.77761 0.742868,-5.19434 1.637242,-7.88981 0.772793,-2.32905 1.98767,-4.86425 3.4067,-7.10907 0.79844,-1.26308 1.874966,-2.69863 2.919706,-3.89343 0.5723,-0.6545 1.834741,-1.93827 2.536425,-2.57927 1.8125,-1.65576 3.910313,-3.15557 6.043763,-4.32094 3.97454,-2.17103 8.279467,-3.43525 12.808647,-3.76149 0.7534,-0.0543 3.34514,-0.0546 4.09835,-5.8e-4 3.4564,0.24804 6.69601,1.01626 9.86688,2.33977 4.82862,2.01544 9.16635,5.2983 12.45468,9.42591 0.94217,1.18264 1.7862,2.39895 2.50488,3.6097 0.46094,0.77657 0.60837,1.0427 0.9954,1.79697 1.02758,2.00258 1.82588,4.03424 2.42178,6.16329 1.87132,6.68605 1.6027,13.76516 -0.76922,20.27108 -1.3259,3.63683 -3.25814,6.96464 -5.76605,9.93062 -0.85978,1.01681 -2.24038,2.42211 -3.23424,3.29209 -0.70331,0.61565 -2.16569,1.78356 -2.23325,1.78356 -0.0115,0 -0.0208,-0.41123 -0.0208,-0.91384 z m 0,-7.68756 v -2.20542 l 0.17916,-0.23182 c 2.35175,-3.04299 3.98289,-6.64295 4.71889,-10.41465 0.37565,-1.92509 0.51063,-3.62284 0.45492,-5.72193 -0.12082,-4.55242 -1.55768,-9.09064 -4.09908,-12.94661 -0.9648,-1.46386 -2.01234,-2.73045 -3.30696,-3.9985 -1.1446,-1.12109 -2.1404,-1.92376 -3.51123,-2.83022 -3.45829,-2.2868 -7.40515,-3.59013 -11.52267,-3.80499 -3.92915,-0.20504 -7.88797,0.62202 -11.412333,2.38422 -2.12424,1.06213 -3.93794,2.32587 -5.66427,3.94672 -2.672153,2.50887 -4.805457,5.71141 -6.10376,9.16302 -0.586147,1.5583 -1.012054,3.12617 -1.267456,4.66581 -0.09958,0.60031 -0.236864,1.58929 -0.236864,1.70636 0,0.0358 -0.03177,0.0271 -0.133984,-0.0365 -0.250232,-0.15583 -0.952234,-0.47913 -1.316717,-0.6064 -0.393693,-0.13748 -0.83818,-0.24457 -1.260516,-0.30371 l -0.267969,-0.0375 0.0097,-0.14041 c 0.01784,-0.25778 0.163024,-1.12399 0.306112,-1.8264 0.712994,-3.50005 1.992779,-6.64086 3.927453,-9.63863 1.864313,-2.88875 4.440863,-5.54849 7.251782,-7.48592 4.00119,-2.75781 8.542872,-4.33963 13.378772,-4.65966 0.61384,-0.0406 2.64433,-0.0406 3.2314,-2e-5 2.41304,0.16693 4.65536,0.61245 6.82533,1.3561 5.11771,1.75385 9.40241,4.87963 12.78975,9.33042 1.1825,1.55374 2.43227,3.72311 3.23282,5.61159 1.22861,2.89827 1.92291,5.72674 2.19,8.92179 0.0553,0.66174 0.0553,3.46296 -3e-5,4.14564 -0.0814,1.00429 -0.26284,2.33044 -0.44875,3.27974 -0.9534,4.86835 -3.22973,9.4681 -6.4741,13.08214 -0.44804,0.49909 -1.15438,1.23559 -1.31439,1.37051 l -0.15502,0.13072 z"
       id="path8" /></g></svg>
