<?xml version="1.0" encoding="UTF-8" standalone="no"?>
<!-- Created with Inkscape (http://www.inkscape.org/) -->

<svg
   width="603.60468mm"
   height="625.47485mm"
   viewBox="0 0 603.60468 625.47485"
   version="1.1"
   id="svg1"
   sodipodi:docname="SYSTEM.svg"
   xml:space="preserve"
   inkscape:version="1.3.2 (091e20e, 2023-11-25, custom)"
   xmlns:inkscape="http://www.inkscape.org/namespaces/inkscape"
   xmlns:sodipodi="http://sodipodi.sourceforge.net/DTD/sodipodi-0.dtd"
   xmlns="http://www.w3.org/2000/svg"
   xmlns:svg="http://www.w3.org/2000/svg"><sodipodi:namedview
     id="namedview1"
     pagecolor="#505050"
     bordercolor="#ffffff"
     borderopacity="1"
     inkscape:showpageshadow="0"
     inkscape:pageopacity="0"
     inkscape:pagecheckerboard="1"
     inkscape:deskcolor="#d1d1d1"
     inkscape:document-units="mm"
     inkscape:zoom="0.24630192"
     inkscape:cx="1232.2275"
     inkscape:cy="1055.615"
     inkscape:window-width="1920"
     inkscape:window-height="1017"
     inkscape:window-x="1912"
     inkscape:window-y="-8"
     inkscape:window-maximized="1"
     inkscape:current-layer="layer1" /><defs
     id="defs1" /><g
     inkscape:label="Layer 1"
     inkscape:groupmode="layer"
     id="layer1"
     transform="translate(95.176865,169.86282)"><path
       style="display:inline;fill:#ffffff;stroke:#ffefe0;stroke-opacity:1;stroke-width:0.79375;stroke-dasharray:none;fill-opacity:1;stroke-linejoin:miter"
       d="m 192.16063,270.37029 -3.88055,-0.2867 -3.52778,-0.3872 -3.52778,-0.3872 -4.7625,-0.68625 -4.7625,-0.68626 -4.78597,-0.91056 -4.78598,-0.91055 -0.50569,-0.33604 -0.50569,-0.33603 1.41111,-1.25706 1.41111,-1.25706 10.5693,-7.99272 10.56929,-7.99273 2.37619,-2.22957 2.37619,-2.22958 1.32848,-1.74202 1.32849,-1.74202 3.18853,-1.63485 3.18853,-1.63484 10.05417,-5.28771 10.05416,-5.28771 7.23195,-3.87889 7.23194,-3.87889 14.46389,-8.29157 14.46389,-8.29158 5.29167,-3.19298 5.29166,-3.19298 12.52361,-7.75787 12.52361,-7.75786 5.82084,-3.87856 5.82083,-3.87855 8.99583,-6.17254 8.99584,-6.17253 9.87777,-7.06285 9.87778,-7.06286 9.525,-7.09494 9.525,-7.09494 8.11389,-6.50524 8.11389,-6.50524 7.58472,-6.33275 7.58472,-6.33274 4.93889,-4.25378 4.93889,-4.253787 4.7625,-4.204107 4.7625,-4.204108 0.97246,-0.893146 0.97247,-0.893147 0.34588,0.345882 0.34588,0.345883 -0.53677,3.161931 -0.53677,3.16193 -1.07642,5.468056 -1.07642,5.468053 -1.7542,6.68675 -1.75421,6.68674 -2.26214,6.77883 -2.26214,6.77882 -2.32985,5.76082 -2.32986,5.76082 -4.18164,8.46667 -4.18164,8.46666 -3.13111,5.29167 -3.13111,5.29167 -3.65726,5.46805 -3.65726,5.46806 -3.18043,4.23333 -3.18043,4.23333 -4.59603,5.46806 -4.59603,5.46806 -7.77537,7.76111 -7.77536,7.76111 -5.11351,4.25955 -5.11351,4.25954 -4.93888,3.70481 -4.93889,3.70481 -4.7625,3.17839 -4.7625,3.17839 -5.11528,3.00009 -5.11528,3.00009 -4.05694,2.13815 -4.05695,2.13814 -5.05145,2.33572 -5.05145,2.33571 -4.68979,1.92149 -4.68978,1.92149 -4.54626,1.60434 -4.54627,1.60433 -4.58611,1.37781 -4.58611,1.37781 -4.93889,1.25323 -4.93889,1.25323 -4.20083,0.89696 -4.20083,0.89696 -5.32417,0.85268 -5.32417,0.85268 -4.93888,0.55154 -4.93889,0.55154 -4.7625,0.35288 -4.7625,0.35287 -10.40695,-0.0489 -10.40694,-0.0489 z m -56.26805,-11.74532 -6.17361,-2.21672 -5.28412,-2.20717 -5.28412,-2.20716 -0.97769,-0.50558 -0.97768,-0.50558 v -0.36981 -0.36981 l 7.64361,-3.70063 7.64361,-3.70063 6.02653,-3.54362 6.02653,-3.54363 2.29305,-1.33061 2.29306,-1.33061 6.13187,-3.41758 6.13188,-3.41758 0.33959,0.33958 0.33958,0.33958 0.68574,4.00604 0.68573,4.00604 0.91753,3.35139 0.91752,3.35139 0.16058,1.10046 0.16058,1.10046 -8.2353,6.16525 -8.2353,6.16525 -2.96788,2.34748 -2.96788,2.34748 -0.5599,-0.0185 -0.5599,-0.0185 z m -39.51111,-18.66807 -4.7625,-2.91213 -2.822222,-1.90116 -2.822222,-1.90116 -0.229461,-0.3452 -0.22946,-0.34519 -0.387901,-2.60806 -0.3879,-2.60805 v -1.85198 -1.85197 l 1.025343,-3.1607 1.025343,-3.1607 2.465703,-5.73566 2.465703,-5.73566 2.198032,-3.78934 2.198032,-3.78934 2.232362,-3.0176 2.232358,-3.01759 0.63343,-0.5686 0.63342,-0.56859 9.17222,-0.24933 9.17222,-0.24933 5.99722,1.67164 5.99722,1.67163 4.93889,1.73389 4.93889,1.73389 3.74956,2.47836 3.74955,2.47836 0.69942,0.77386 0.69941,0.77385 3.08043,5.24116 3.08043,5.24115 -0.29745,0.28398 -0.29746,0.28399 -6.17361,3.25566 -6.17361,3.25567 -5.46806,3.00589 -5.46805,3.0059 -3.175,1.80489 -3.175,1.8049 -6.52639,2.96083 -6.52639,2.96083 -6.13633,2.93855 -6.13634,2.93855 -0.21366,-0.009 -0.21367,-0.009 z m 74.49982,-1.05009 -0.37546,-0.45241 -1.03672,-3.69273 -1.03672,-3.69274 -0.62529,-3.57361 -0.6253,-3.57361 0.19725,-0.51402 0.19725,-0.51402 2.76717,-0.97506 2.76716,-0.97507 13.16812,-4.74724 13.16812,-4.74723 0.40543,0.13514 0.40544,0.13515 -3.34637,3.50117 -3.34637,3.50118 -6.21186,6.98852 -6.21187,6.98853 -4.78544,3.33022 -4.78544,3.33023 h -0.15682 -0.15682 z m -99.864534,-16.91575 -4.727214,-3.97491 -0.384616,-0.61475 -0.384617,-0.61476 1.672248,-1.6024 1.672247,-1.60239 -0.002,-1.31063 -0.002,-1.31062 -0.391038,-1.40856 -0.391039,-1.40856 -2.51741,-2.55049 -2.517411,-2.55049 -5.509499,-1.5972 -5.509499,-1.5972 -1.546056,-0.005 -1.546057,-0.005 -0.801045,-0.21462 -0.801046,-0.21462 -3.637231,-4.35167 -3.637231,-4.35166 -2.400911,-3.5155 -2.400911,-3.51549 0.213533,-0.55645 0.213532,-0.55646 h 1.076063 1.076062 l 10.66487,-0.70438 10.664871,-0.70437 10.054166,-0.88191 10.054166,-0.88191 3.704167,-0.36852 3.704167,-0.36851 5.997222,-0.70105 5.997222,-0.70104 1.736719,0.45098 1.73673,0.45099 0.1241,0.37902 0.12411,0.37902 -2.687697,3.02497 -2.6877,3.02497 -5.523131,0.20397 -5.523131,0.20396 -4.409722,0.35852 -4.409722,0.35851 -7.292993,0.84663 -7.292992,0.84662 -0.42024,0.25972 -0.420239,0.25972 0.188865,1.4081 0.188864,1.40809 0.292423,0.28144 0.292423,0.28144 11.232784,-0.71648 11.232783,-0.71648 3.3193,0.24885 3.319299,0.24886 v 0.37585 0.37585 l -2.122358,3.27623 -2.122358,3.27623 -2.823885,5.7518 -2.823885,5.75181 -1.432641,3.70416 -1.432641,3.70417 -1.133255,4.4079 -1.133254,4.4079 -0.513556,0.0962 -0.513555,0.0962 z m 137.041904,-0.58626 -0.18988,-0.30724 3.95284,-4.36292 3.95284,-4.36293 5.65559,-5.6819 5.65558,-5.68191 5.46806,-1.48313 5.46805,-1.48313 10.21498,-2.88913 10.21497,-2.88913 8.02551,-4.93889 8.02551,-4.93889 3.19077,-4.36757 3.19076,-4.36757 v -0.77306 -0.77306 l -0.5832,-1.73854 -0.58319,-1.73853 -0.47514,-0.69586 -0.47513,-0.69586 v -0.54143 -0.54144 l 1.4993,-0.91641 1.49931,-0.91642 11.81805,-7.15513 11.81806,-7.15512 6.17361,-2.73667 6.17361,-2.73667 9.87778,-4.3098 9.87777,-4.30979 0.7514,-0.28862 0.7514,-0.28862 2.4236,-1.54678 2.4236,-1.54679 4.40973,-2.66862 4.40972,-2.66861 6.17361,-3.62053 6.17361,-3.62053 5.5194,-3.08954 5.5194,-3.08955 0.82783,-0.26274 0.82784,-0.26275 -0.48395,0.58312 -0.48394,0.58311 -7.20559,5.66397 -7.20559,5.66396 -6.5952,4.84626 -6.5952,4.84626 -9.17222,6.53768 -9.17222,6.53768 -5.64445,3.88425 -5.64444,3.88424 -11.2699,7.51233 -11.26989,7.51234 -6.54538,4.06296 -6.54539,4.06296 -10.23055,6.16302 -10.23056,6.16303 -7.23194,4.14212 -7.23195,4.14212 -10.05416,5.63229 -10.05417,5.63229 -8.11389,4.25102 -8.11389,4.25103 -2.1866,1.0955 -2.1866,1.09551 z m -151.17968,-12.19936 -1.907557,-1.93155 0.241714,-0.24172 0.241713,-0.24171 2.559839,0.98486 2.559838,0.98486 0.529166,0.49968 0.529167,0.49968 -0.881944,0.68088 -0.881945,0.68088 -0.541217,0.008 -0.541218,0.008 z m 111.26836,0.0549 -0.20675,-0.53876 0.93161,-3.46659 0.93161,-3.46658 1.60357,-3.175 1.60357,-3.175 1.86953,-3.175 1.86953,-3.175 3.71073,-4.61935 3.71073,-4.61935 3.31894,-3.67093 3.31894,-3.67093 8.60175,-8.29028 8.60175,-8.29027 9.18361,-9.20943 9.18362,-9.20943 3.08334,-3.17071 3.08335,-3.17071 3.0009,-0.36388 3.00089,-0.36389 0.53034,-0.44015 0.53034,-0.44014 v -0.81578 -0.81579 l -0.34404,-0.90491 -0.34405,-0.90491 h -2.1254 -2.1254 v -1.5875 -1.5875 l 0.61767,-0.61736 0.61767,-0.61736 3.52747,-2.84433 3.52747,-2.84433 4.40972,-3.31553 4.40973,-3.31552 2.99861,-2.42214 2.99861,-2.42214 0.48407,-0.67853 0.48408,-0.67854 -0.43908,-0.52905 -0.43907,-0.52906 h -0.36544 -0.36543 l -4.97123,3.70326 -4.97123,3.70325 -5.66153,4.19149 -5.66153,4.19149 -1.85288,1.71845 -1.85288,1.71845 -0.38987,2.39826 -0.38986,2.39826 -0.70509,0.37735 -0.70509,0.37735 -3.38508,-0.20755 -3.38508,-0.20756 -7.23195,1.51443 -7.23194,1.51443 0.0424,1.32218 0.0424,1.32217 0.37834,0.37834 0.37833,0.37833 7.07523,-1.28822 7.07523,-1.28822 1.9408,0.2281 1.94081,0.22811 v 0.44591 0.44592 l -10.14236,9.8541 -10.14236,9.8541 -3.35139,2.95636 -3.35139,2.95637 -7.52976,7.42074 -7.52975,7.42074 -3.58275,4.18929 -3.58274,4.18928 -2.65382,3.40771 -2.65382,3.40771 -1.98111,3.51551 -1.98111,3.5155 -1.51092,2.99861 -1.51092,2.99862 -0.9097,2.43463 -0.90971,2.43463 -0.35148,0.009 -0.35148,0.009 -3.26974,-4.5596 -3.26975,-4.55961 -1.14128,-1.11429 -1.14127,-1.11429 -4.93889,-2.64801 -4.93889,-2.64801 -5.11527,-1.24137 -5.11528,-1.24138 -6.66734,-1.29199 -6.66734,-1.29198 -6.14295,0.43447 -6.14294,0.43448 -0.37266,-0.37266 -0.37267,-0.37267 1.04855,-1.88066 1.04854,-1.88067 1.38994,-2.46944 1.38993,-2.46944 1.79398,-2.64584 1.79397,-2.64583 3.65907,-3.52778 3.65908,-3.52778 6.17336,-5.49029 6.17337,-5.4903 2.37916,-1.94789 2.37917,-1.9479 2.16404,-3.45115 2.16404,-3.45115 -0.24436,-3.39816 -0.24437,-3.39816 -0.5131,-0.52318 -0.5131,-0.52319 -0.61074,0.38461 -0.61074,0.38461 -0.0658,0.49135 -0.0658,0.49136 -0.21317,1.62729 -0.21316,1.62729 -2.05687,2.44356 -2.05686,2.44355 -3.30864,2.44292 -3.30864,2.44292 -6.98548,5.60821 -6.98548,5.60822 -2.95719,2.79922 -2.95719,2.79923 -2.3751,3.18991 -2.37509,3.1899 -1.44057,-0.198 -1.44057,-0.198 -2.21504,-0.23275 -2.215033,-0.23274 -3.605796,-2.47232 -3.605795,-2.47231 -0.812576,-0.63336 -0.812576,-0.63335 -4.126313,-0.94245 -4.126313,-0.94245 -5.767823,-1.39314 -5.767823,-1.39315 -0.746728,0.10812 -0.746727,0.10812 -0.319222,1.35571 -0.319222,1.35572 0.483773,0.43456 0.483773,0.43455 4.233333,1.52237 4.233333,1.52236 4.557435,1.53337 4.557436,1.53337 1.172793,0.79844 1.172792,0.79844 0.0024,0.57147 0.0024,0.57146 -2.028473,0.39488 -2.028472,0.39488 -6.35,0.86776 -6.349999,0.86775 -9.877778,1.22581 -9.877777,1.2258 -9.172222,0.93927 -9.172222,0.93927 -0.881945,0.39923 -0.881944,0.39923 -0.214804,0.11232 -0.214804,0.11232 -1.505754,-2.31112 -1.505754,-2.31112 0.417937,-2.19961 0.417937,-2.1996 1.41784,-5.46805 1.41784,-5.46806 1.401418,-4.31751 1.401417,-4.31751 1.741545,-4.23674 1.741545,-4.23673 1.741929,-3.61659 1.741929,-3.61659 2.524705,-4.23333 2.524705,-4.23333 5.763166,-8.64306 5.763165,-8.64305 3.260064,-4.05695 3.260064,-4.05694 4.082531,-4.762502 4.082531,-4.7625 11.295812,-11.419149 11.295812,-11.419149 5.998635,-5.690573 5.99864,-5.690573 3.73478,-3.365071 3.73477,-3.36507 8.61103,-6.907331 8.61103,-6.90733 4.93889,-3.684166 4.93889,-3.684165 8.46667,-5.993905 8.46666,-5.993905 10.23056,-3.294385 10.23056,-3.294386 6.87916,-2.9764337 6.87917,-2.9764336 0.43504,-0.4201039 0.43505,-0.4201039 -0.35374,-1.2811455 -0.35374,-1.2811455 -0.52646,-0.2020202 -0.52646,-0.2020202 -0.78957,0.3285715 -0.78957,0.3285715 -5.99722,2.2806466 -5.99722,2.2806466 -1.84442,0.5350241 -1.84442,0.535024 -0.18393,-0.2975985 -0.18392,-0.2975985 2.7339,-1.7483178 2.7339,-1.7483178 9.70139,-5.8287559 9.70139,-5.8287559 7.40833,-4.0530994 7.40833,-4.053099 5.46834,-3.005454 5.46833,-3.005453 5.49142,-2.311528 5.49142,-2.311528 4.73886,-2.156103 4.73886,-2.156102 5.99722,-2.11171 5.99722,-2.11171 4.14514,-1.614343 4.14514,-1.614342 v -0.641336 -0.641337 l -0.34405,-0.90491 -0.34405,-0.90491 h -0.62851 -0.62852 l -3.17258,1.252693 -3.17257,1.252694 -6.1639,2.141355 -6.1639,2.141355 -5.65416,2.55588 -5.65415,2.55588 -4.40972,1.838653 -4.40972,1.838652 -4.72917,2.462708 -4.72917,2.462708 -0.45109,-0.461706 -0.45109,-0.461705 -0.23154,-0.94499 -0.23153,-0.944989 7.88124,-5.25954 7.88123,-5.25954 5.62894,-3.634492 5.62893,-3.634493 12.36274,-7.474137 12.36273,-7.474137 3.31654,-2.040386 3.31655,-2.040386 5.85567,-3.128998 5.85568,-3.128999 6.70278,-3.178039 6.70278,-3.17804 6.60856,-2.154197 6.60856,-2.154198 -0.0822,-1.621884 -0.0822,-1.621884 1.55852,-0.550684 1.55851,-0.550683 0.13563,-0.406901 0.13564,-0.406901 -0.52962,-1.267557 -0.52962,-1.267556 h -0.40694 -0.40693 l -3.22704,1.074125 -3.22704,1.074125 -5.11527,2.58101 -5.11528,2.58101 -6.87917,3.788973 -6.87916,3.788973 -3.175,1.866576 -3.175,1.866575 -9.57416,5.309209 -9.57415,5.309209 -9.29946,5.605591 -9.29946,5.605591 -9.70138,5.759066 -9.70139,5.759067 -8.64306,5.293386 -8.64305,5.293386 -6.08319,3.984549 -6.08319,3.98455 -5.06833,3.510814 -5.06834,3.510815 -1.54847,0.7835663 -1.54848,0.7835664 -4.7625,3.4840576 -4.7625,3.48405766 -8.99584,6.26778044 -8.99583,6.2677806 -5.82083,4.242468 -5.82083,4.242468 -4.93889,2.591917 -4.93889,2.591917 -5.82084,3.184183 -5.82083,3.184184 -5.99722,3.477525 -5.99722,3.477526 -7.708034,3.889306 -7.708029,3.889307 -0.582248,-0.114552 -0.582248,-0.114552 3.242825,-3.109615 3.242826,-3.109616 4.518285,-3.695325 4.518283,-3.695326 6.17362,-4.740747 6.17361,-4.740746 5.46805,-4.263184 5.46806,-4.263183 7.58472,-5.035339 7.58472,-5.03534 6.70278,-4.3467564 6.70278,-4.3467564 2.99861,-1.825843 2.99861,-1.825843 7.05555,-3.7287948 7.05556,-3.7287944 4.40972,-2.413521 4.40972,-2.413521 0.10151,-0.702849 0.10151,-0.702848 -0.48961,-0.669586 -0.48962,-0.669585 -4.72717,2.475312 -4.72717,2.475312 -7.58472,3.972237 -7.58473,3.9722362 -4.58611,2.8792471 -4.58611,2.8792471 -5.22203,3.33979397 -5.22204,3.33979393 -6.77241,4.4501297 -6.77241,4.45013 -5.70201,4.369314 -5.70201,4.369315 -6.64521,5.084273 -6.64521,5.084273 -4.583722,3.735171 -4.583719,3.735172 -7.587113,7.433318 -7.587114,7.433318 -0.872245,0.592376 -0.872245,0.592377 H 74.327126 73.59663 l -0.337537,-1.145793 -0.337536,-1.145793 -0.628991,-0.117036 -0.628991,-0.117036 -2.722398,2.598629 -2.722398,2.59863 -2.695946,2.365997 -2.695947,2.365997 -2.188638,1.237092 -2.188638,1.237091 h -0.318887 -0.318888 v -0.583624 -0.583623 l 0.954638,-3.208738 0.954639,-3.208737 5.307167,-5.314293 5.307167,-5.314293 4.446729,-3.540624 4.44673,-3.540625 5.028197,-3.668694 5.028197,-3.668694 3.577851,-2.566592 3.57785,-2.566592 0.617361,-0.516761 0.617362,-0.51676 v -0.817971 -0.817971 l -0.467853,-0.639826 -0.467852,-0.639827 -0.814347,0.258464 -0.814347,0.258464 -9.918495,6.643801 -9.918495,6.643802 -3.802915,2.969717 -3.802916,2.969717 -4.258424,3.829202 -4.258424,3.829203 -1.494347,1.662074 -1.494346,1.662073 -1.105842,3.112614 -1.105843,3.112614 -1.232891,4.308642 -1.232892,4.308641 -10.371224,10.331636 -10.371224,10.331636 -2.998454,3.527778 -2.998454,3.527778 -3.906502,5.644443 -3.906502,5.64445 -3.605663,5.82083 -3.6056625,5.82083 -0.8308248,1.32292 -0.8308248,1.32292 H 5.7372044 5.4140579 l 0.3305366,-1.14653 0.3305366,-1.14653 0.3793447,-4.93889 0.3793448,-4.93889 -0.2218809,-3.52778 -0.2218808,-3.52777 -0.071512,-4.586114 -0.071513,-4.586111 0.3081605,-2.679508 0.3081605,-2.679508 -0.6355181,-0.243872 -0.6355181,-0.243871 -0.4816825,0.481683 -0.4816824,0.481682 -0.6857725,3.323641 -0.6857726,3.323642 -0.024965,2.116666 -0.024965,2.11667 -0.2501146,1.41035 -0.2501146,1.41036 -2.10108927,0.26245 -2.10108923,0.26246 -0.4067029,-0.43809 -0.4067029,-0.43809 -0.9175985,-4.58611 -0.9175985,-4.586111 -0.6911234,-4.409722 -0.6911234,-4.409722 -0.5406877,-4.938889 -0.5406877,-4.938889 -0.3640197,-5.181385 -0.3640196,-5.181385 v -8.334452 -8.334452 l 0.3640196,-5.181386 0.3640197,-5.181385 0.5395086,-4.938888 0.5395085,-4.938889 0.6900262,-4.409723 0.6900262,-4.409722 1.0825391,-5.468055 1.082539,-5.4680559 1.74621903,-6.656455 1.74621907,-6.6564549 2.1311908,-6.3963232 2.1311909,-6.396322 2.4670548,-6.173612 2.4670548,-6.173611 4.181895,-8.466666 4.181895,-8.466667 3.484351,-5.820833 3.484351,-5.820834 2.95411,-4.409722 2.954109,-4.409722 3.707662,-4.938889 3.707661,-4.938889 4.780621,-5.644444 4.78062,-5.644445 6.885143,-6.879166 6.885143,-6.879164 5.46691,-4.60934 5.46691,-4.60934 4.938889,-3.70739 4.938889,-3.70738 4.409722,-2.95905 4.409722,-2.95906 6.173611,-3.64523 6.173613,-3.64524 7.40833,-3.6661 7.40833,-3.6661 5.99723,-2.44025 5.99722,-2.44025 5.11528,-1.7965 5.11527,-1.7965 4.7625,-1.4124 4.7625,-1.4124 4.23334,-1.05111 4.23333,-1.05111 4.23333,-0.88306 4.23334,-0.88307 4.41275,-0.71378 4.41275,-0.71378 4.40669,-0.55414 4.40669,-0.55414 7.58473,-0.51392 7.58472,-0.51392 6.35,-0.005 6.35,-0.005 5.82083,0.36303 5.82083,0.36304 4.93889,0.53696 4.93889,0.53697 5.63076,0.88182 5.63075,0.88182 4.93016,1.05121 4.93015,1.05121 4.25576,1.06837 4.25575,1.06837 5.11528,1.56737 5.11528,1.56738 3.97776,1.40626 3.97777,1.40626 5.37085,2.15561 5.37084,2.15561 8.46667,4.17033 8.46666,4.17033 5.29167,3.12915 5.29167,3.12915 5.46805,3.66159 5.46806,3.6616 4.23333,3.18043 4.23333,3.18043 5.46806,4.59883 5.46805,4.59884 7.41821,7.418013 7.4182,7.418013 4.01603,4.7625 4.01603,4.7625 4.11434,5.468055 4.11435,5.468056 3.18429,4.762866 3.18429,4.762865 2.82902,4.762135 2.82901,4.762134 2.53161,4.7625 2.53161,4.7625 2.58739,5.644444 2.58739,5.644445 1.85153,4.586111 1.85154,4.586111 2.56093,7.761111 2.56093,7.7611112 1.60565,6.35 1.60566,6.35 1.05588,5.4680558 1.05589,5.468055 0.72914,4.984686 0.72914,4.984685 -0.005,1.365315 -0.005,1.365314 -3.96425,3.163363 -3.96425,3.163364 -5.46806,4.266967 -5.46805,4.266967 -9.34861,7.244277 -9.34861,7.244277 -7.76111,5.634837 -7.76112,5.634836 -8.64305,6.116059 -8.64306,6.116059 -9.17222,6.576283 -9.17222,6.576282 -8.29028,5.673508 -8.29028,5.67352 -7.8168,6.30387 -7.8168,6.30386 -9.29292,7.81795 -9.29292,7.81795 -9.87778,8.27534 -9.87777,8.27535 -5.41633,4.83867 -5.41632,4.83866 -7.98923,-0.11807 -7.98923,-0.11807 v 1.57933 1.57932 l 1.5875,0.24514 1.5875,0.24514 3.79236,0.23796 3.79236,0.23795 -0.005,0.40703 -0.005,0.40702 -3.43064,2.99861 -3.43064,2.99861 -5.6486,5.0858 -5.6486,5.08581 -3.175,3.05482 -3.175,3.05482 -4.58611,1.62882 -4.58611,1.62881 -14.46389,4.99897 -14.46389,4.99898 -6.52638,2.21369 -6.52639,2.21368 -0.61439,0.25242 -0.61439,0.25242 z m 84.51468,-25.9094 v -0.36173 l 5.90903,-4.05021 5.90903,-4.05022 4.13008,-2.51868 4.13009,-2.51867 0.54422,-0.20884 0.54422,-0.20884 v 0.48492 0.48491 l -2.55764,2.74386 -2.55764,2.74386 -6.87917,3.72123 -6.87916,3.72124 -1.14653,0.18945 -1.14653,0.18945 z m 25.60079,-29.03811 0.66293,-0.73252 11.47439,-8.73305 11.47439,-8.73304 17.63889,-13.22146 17.63889,-13.22145 18.34444,-13.577538 18.34444,-13.577538 8.29028,-6.028817 8.29028,-6.028816 15.16944,-11.317917 15.16945,-11.317916 0.61736,-0.01093 0.61736,-0.01093 -0.028,8.907639 -0.0281,8.907639 -0.2442,2.939521 -0.2442,2.939522 -0.67291,0.411867 -0.67291,0.411867 -3.37637,1.876371 -3.37637,1.87637 -18.34444,9.72453 -18.34444,9.72453 -10.23056,5.650966 -10.23055,5.65096 -10.05417,5.63905 -10.05417,5.63906 -5.46805,3.77633 -5.46806,3.77632 -12.17083,8.2416 -12.17083,8.2416 -11.26368,6.45435 -11.26368,6.45435 h -0.34447 -0.34447 z m -260.807461,-1.81017 -0.367887,-0.45592 -1.403701,-2.82222 -1.403701,-2.82222 -1.8593,-4.23334 -1.8593,-4.23333 -1.3998536,-2.56559 -1.3998538,-2.56559 0.2091091,-0.83315 0.209109,-0.83316 1.3264454,-1.95914 1.3264459,-1.95914 3.171479,-3.81434 3.17148,-3.81434 4.244334,-4.40972 4.244334,-4.40972 2.535855,-3.37839 2.535854,-3.3784 3.212414,-3.67716 3.212414,-3.677161 2.798021,-3.956931 2.798021,-3.956932 3.471348,-4.156957 3.471348,-4.156958 4.875351,-5.048141 4.875351,-5.048141 1.35578,-0.691668 1.355781,-0.691667 -0.01123,0.448142 -0.01123,0.448142 -3.544966,4.233333 -3.544965,4.233334 -4.143854,5.500332 -4.143855,5.500332 -3.366119,5.083001 -3.366119,5.083001 -2.882769,4.938889 -2.882768,4.93889 -2.762585,5.64444 -2.762586,5.64445 -2.16575,5.37114 -2.16575,5.37113 -1.724458,5.2122 -1.724459,5.21219 -1.311665,5.29167 -1.311666,5.29167 -0.255997,0.27953 -0.255996,0.27954 z m 7.153561,-11.74481 0.240533,-1.05833 0.880411,-2.64584 0.880412,-2.64583 1.93653,-4.91973 1.936531,-4.91974 2.103594,-4.54525 2.103594,-4.54525 2.14554,-3.94057 2.14554,-3.94057 2.121208,-3.52778 2.121207,-3.52778 2.475826,-3.704162 2.475826,-3.704167 2.810271,-3.880555 2.810271,-3.880556 3.963264,-4.948991 3.963264,-4.948992 4.417128,-4.928786 4.417129,-4.928786 1.711546,-1.640713 1.711547,-1.640713 4.409722,-2.370194 4.409722,-2.370194 11.1125,-5.677172 11.112504,-5.677172 3.15688,-1.865393 3.15688,-1.865394 h 0.3259 0.32589 l -0.48416,0.587651 -0.48417,0.587651 -6.34071,5.31164 -6.340708,5.311639 -4.771792,4.202154 -4.771792,4.202153 -5.415556,4.967475 -5.415556,4.967474 -9.060847,9.537332 -9.060846,9.537331 -4.027088,4.409722 -4.027089,4.409718 -4.207903,5.29167 -4.207902,5.29167 -2.382512,3.35139 -2.382513,3.35139 -2.635465,4.23333 -2.635465,4.23333 -3.98913,7.23195 -3.98913,7.23194 -0.495685,0.52917 -0.495684,0.52916 z m 328.04926,-22.72772 0.2174,-0.35175 5.54392,-3.31049 5.54392,-3.31049 4.24951,-2.49208 4.24951,-2.49208 4.21716,-2.44877 4.21715,-2.44877 7.32014,-4.10962 7.32014,-4.109618 7.14375,-4.008902 7.14375,-4.008902 1.17931,-0.603222 1.17931,-0.603221 0.18214,0.182136 0.18213,0.182136 -1.71422,1.567027 -1.71423,1.567027 -4.93889,4.239774 -4.93889,4.239774 -7.05555,3.272803 -7.05556,3.272808 -15.34583,7.6052 -15.34583,7.6052 -0.99882,0.45789 -0.99882,0.4579 z M 0.65057985,114.20121 0.48082472,113.92654 -0.26358615,111.01097 -1.007997,108.0954 l 0.20861044,-0.33754 0.20861046,-0.33754 h 1.2139023 1.2139023 l 0.042124,0.44097 0.042124,0.44098 -0.05707,2.11666 -0.05707,2.11667 -0.189473,0.97014 -0.1894731,0.97014 H 1.1242628 0.82033497 Z M 376.48702,74.834718 v -0.154871 l 4.32152,-3.500072 4.32153,-3.500071 8.99584,-6.996869 8.99583,-6.996869 5.11528,-4.322934 5.11527,-4.322934 3.52778,-3.026322 3.52778,-3.026322 0.40323,-0.003 0.40323,-0.003 0.21413,0.55802 0.21413,0.558019 v 1.033099 1.033099 l -5.86502,4.31791 -5.86502,4.317909 -10.42062,7.710663 -10.42061,7.710662 -5.61706,4.023095 -5.61706,4.023094 -0.67508,0.361294 -0.67508,0.361294 z m -185.1082,-81.5910047 0.22279,-0.3604781 3.80729,-2.6684563 3.80729,-2.6684559 3.46721,-1.477507 3.4672,-1.477507 0.16918,0.169179 0.16918,0.169179 -4.87111,2.813228 -4.87111,2.8132282 -2.79535,1.5240341 -2.79536,1.5240341 z"
       id="path15"
       transform="translate(-1.125e-6)" /><path
       style="fill:#ffffff;stroke-width:0.79375;stroke-dasharray:none;stroke:#ffefe0;stroke-opacity:1;fill-opacity:1;stroke-linejoin:miter"
       d="m 183.69397,455.23085 -2.82222,-0.28728 -2.11667,-0.40059 -2.11667,-0.4006 -1.54769,-0.67787 -1.54769,-0.67788 0.23622,-2.0269 0.23622,-2.02691 1.57914,-10.75972 1.57914,-10.75972 0.34969,-0.81035 0.34969,-0.81035 v -1.90763 -1.90763 l -0.82257,-2.26617 -0.82257,-2.26616 -2.59546,-4.71724 -2.59546,-4.71725 -1.40705,-2.11667 -1.40705,-2.11666 -2.00748,-2.64584 -2.00748,-2.64583 -3.07275,-3.52778 -3.07274,-3.52778 -2.74228,-2.82222 -2.74227,-2.82222 -2.41091,-3.175 -2.41091,-3.175 -6.55157,-7.9375 -6.55156,-7.9375 -1.58508,-2.03736 -1.58508,-2.03735 -1.5875,-2.20349 -1.5875,-2.20349 -3.35139,-3.35096 -3.35139,-3.35096 -3.23507,-3.58314 -3.23507,-3.58314 -1.78635,-2.64727 -1.78636,-2.64726 -0.38431,-0.23752 -0.38432,-0.23752 -9.94009,-3.46281 -9.940095,-3.46281 -11.641667,-4.11911 -11.641666,-4.11911 -5.291666,-1.69999 -5.291667,-1.69999 -4.056944,-0.75789 -4.056945,-0.75789 -4.056944,-0.99391 -4.056944,-0.99392 -3.085626,-0.9449 -3.085626,-0.94491 -0.354008,-0.66147 -0.354007,-0.66147 0.352828,-0.92801 0.352828,-0.928 v -0.44087 -0.44086 l -1.234722,-0.5888 -1.234723,-0.58879 v -0.31541 -0.3154 l 0.549391,-1.31488 0.549391,-1.31487 0.949915,0.16923 0.949915,0.16923 7.408333,2.7058 7.408333,2.7058 4.409722,1.97375 4.409722,1.97374 2.822222,0.85572 2.822222,0.85571 14.111111,4.59388 14.111111,4.59387 1.058333,0.45564 1.058333,0.45564 5.0273,1.65961 5.0273,1.65962 0.41255,-0.13752 0.41256,-0.13752 -3.06436,-2.58047 -3.064364,-2.58048 -3.385646,0.42615 -3.385646,0.42616 -0.328751,-0.32875 -0.328751,-0.32876 -0.07221,-1.50482 -0.07221,-1.50482 0.529167,-0.31385 0.529166,-0.31384 1.017244,-0.36175 1.017244,-0.36174 -2.098147,-2.19568 -2.098147,-2.19569 -2.174506,-2.74734 -2.174507,-2.74734 -1.482476,-2.53835 -1.482476,-2.53835 -1.296248,-3.18098 -1.296248,-3.18097 -0.588241,-2.29306 -0.588241,-2.29305 -0.397041,-3.55742 -0.39704,-3.55742 -7.97364,-3.97518 -7.97364,-3.97519 -4.056944,-2.19581 -4.056945,-2.1958 -4.056944,-1.80066 -4.056944,-1.80066 -9.628037,-4.58916 -9.628036,-4.58916 -2.760117,-0.69797 -2.760117,-0.69798 -2.150647,-1.08564 -2.150647,-1.08564 -0.36606,-0.68399 -0.366061,-0.68399 v -0.6927 -0.69269 l -1.378783,-2.24091 -1.378783,-2.24092 -2.029002,-2.11667 -2.029002,-2.11666 -0.6478403,-1.05834 -0.6478404,-1.05833 -0.00132,-1.25132 -0.00132,-1.25132 -1.4083551,-1.37523 -1.4083552,-1.37522 -2.7367836,0.0777 -2.73678358,0.0777 -10.05416632,0.53389 -10.0541655,0.5339 -6.879167,0.86051 -6.879166,0.8605 -12.873124,1.43457 -12.873124,1.43457 -6.353264,1.41271 -6.353265,1.41271 -6.818092,1.41468 -6.818093,1.41469 -0.467434,-0.38794 -0.467434,-0.38794 -0.219539,-0.87471 -0.219539,-0.87471 0.357473,-0.66795 0.357474,-0.66794 3.267037,-1.07172 3.267036,-1.07171 8.290278,-2.45133 8.290277,-2.45133 1.940278,-0.54314 1.940278,-0.54314 11.641666,-1.95599 11.641666,-1.956 7.912447,-1.40632 7.912447,-1.40633 8.054836,-0.78566 8.0548353,-0.78566 0.3958159,-0.24462 0.3958158,-0.24463 -0.9709421,-1.27297 -0.9709421,-1.27297 h -1.1108986 -1.1108986 l -10.3920676,1.42875 -10.392068,1.42875 -13.41419,2.99596 -13.414189,2.99597 -9.172222,2.29459 -9.172222,2.2946 -0.617361,-0.76117 -0.617361,-0.76117 v -0.97606 -0.97605 l 0.440972,-0.36597 0.440972,-0.36597 6.879167,-2.11013 6.879166,-2.11013 8.290278,-2.30752 8.290277,-2.30752 4.145139,-1.12441 4.145139,-1.12441 v -0.30878 -0.30878 l -0.970139,0.008 -0.970139,0.008 -6.324027,0.33592 -6.324027,0.33591 -0.466945,-0.38753 -0.466945,-0.38753 v -1.1241 -1.1241 l 0.462842,-0.63297 0.462842,-0.63298 4.917019,-0.45956 4.917019,-0.45957 3.457695,-0.25292 3.457694,-0.25292 0.511055,-0.51105 0.511056,-0.51106 v -0.46622 -0.46623 l 0.440972,-0.15875 0.440972,-0.15876 4.233333,0.63285 4.233333,0.63284 3.804787,-0.21285 3.804786,-0.21284 0.209169,-0.33844 0.209169,-0.33845 -6.4834,-6.50477 -6.483399,-6.50478 -3.704167,-2.75359 -3.704166,-2.7536 -6.801152,-3.97355 -6.801151,-3.97355 -0.336381,-0.62854 -0.336382,-0.62853 0.381071,-1.09314 0.381072,-1.09314 0.759239,-8.8e-4 0.75924,-8.7e-4 2.554195,1.12145 2.554195,1.12144 0.22967,-0.22967 0.22967,-0.22967 -1.312663,-1.60193 -1.312663,-1.60193 -0.942036,-0.46932 -0.942035,-0.46932 -2.921494,-1.00123 -2.921493,-1.00124 -1.488229,0.73284 -1.488228,0.73284 -1.499306,1.09818 -1.499305,1.09818 v 0.81066 0.81066 l 1.001916,1.57986 1.001916,1.57986 1.9085,1.69168 1.908501,1.69168 3.704166,2.45483 3.704167,2.45483 3.974685,1.94651 3.974686,1.9465 4.312456,1.73405 4.312456,1.73404 0.444108,0.60735 0.444108,0.60736 v 0.42266 0.42265 l -0.620556,0.76636 -0.620557,0.76635 -4.230138,-1.48027 -4.230137,-1.48028 -4.056945,-1.73419 -4.056944,-1.73419 -2.645833,-1.44743 -2.645833,-1.44742 -2.998611,-2.01472 -2.998611,-2.01472 -1.777134,-1.60069 -1.777133,-1.60069 -0.925848,-1.71039 -0.925847,-1.71039 -0.429041,-2.20139 -0.429042,-2.2014 0.170806,-1.77761 0.170806,-1.77761 1.109133,-1.38017 1.109133,-1.38016 v -0.52158 -0.52158 l -2.557639,-0.58238 -2.557639,-0.58238 -5.115277,-0.88118 -5.115278,-0.88117 -2.822222,0.2283 -2.822222,0.22831 -2.469445,0.50531 -2.469444,0.5053 -1.234722,1.41269 -1.234722,1.41268 -0.593588,-0.005 -0.593589,-0.005 -0.205266,-0.64674 -0.205265,-0.64673 0.526845,-1.49324 0.526846,-1.49324 0.788222,-1.12322 0.788223,-1.12322 0.511334,-0.39002 0.511334,-0.39003 2.323841,-0.74736 2.32384,-0.74737 3.368842,-0.69215 3.368841,-0.69214 4.921436,0.34527 4.921436,0.34528 3.351389,0.46792 3.351389,0.46792 3.800414,1.51981 3.800414,1.51982 0.394985,-0.39498 0.394985,-0.39499 -3.454316,-3.63627 -3.454317,-3.63626 -3.856965,-4.84493 -3.856965,-4.84493 -1.460667,-0.39331 -1.460667,-0.39332 -4.94845,-0.6256 -4.94845,-0.6256 -2.293056,0.30397 -2.293055,0.30396 -6.173611,0.33898 -6.173611,0.33897 -0.617361,-0.72721 -0.617361,-0.7272 v -0.59905 -0.59905 l 0.472479,-0.64615 0.472479,-0.64616 5.08377,-0.63782 5.083771,-0.63781 3.704167,-0.68451 3.704166,-0.6845 3.596864,0.18341 3.596864,0.1834 1.104578,-1.10458 1.104579,-1.10458 h 0.649161 0.649161 l 1.176763,1.41667 1.176762,1.41667 2.292078,0.34899 2.292079,0.349 4.492773,1.09628 4.492773,1.09627 0.482692,-0.18522 0.482692,-0.18523 0.932756,-1.59163 0.932756,-1.59163 -0.200168,-0.46772 -0.200167,-0.46772 -2.533054,-2.07448 -2.533054,-2.07448 -4.663747,-3.21719 -4.663747,-3.21719 -0.0092,-0.35277 -0.0092,-0.35278 0.699052,-1.14653 0.699051,-1.14653 h 0.535001 0.535001 l 4.497268,2.67439 4.497267,2.67439 1.875192,1.41143 1.875192,1.41143 0.433935,-0.16651 0.433934,-0.16652 0.41521,-3.65472 0.41521,-3.65472 0.215011,-3.52778 0.215011,-3.52778 0.160547,-4.52691 0.160547,-4.52691 -1.600589,-2.1539 -1.600589,-2.15391 v -0.59174 -0.59175 l 0.73116,-0.92952 0.73116,-0.92952 h 0.779189 0.779188 l 1.977312,2.02847 1.977312,2.02847 0.401828,0.78725 0.401829,0.78725 0.0206,9.09053 0.0206,9.09053 -0.216326,4.40972 -0.216326,4.40972 -0.148012,1.66425 -0.148012,1.66426 2.46557,1.91575 2.46557,1.91575 0.989149,-0.37336 0.98915,-0.37336 7.03997,4.46061 7.03997,4.46061 3.686639,3.16979 3.68664,3.16979 0.452044,0.0109 0.452044,0.0109 0.117137,-0.44097 0.117137,-0.44097 1.4816089,-6.08299 1.4816098,-6.08299 -0.2684023,-0.4434 -0.2684022,-0.4434 -2.5202422,-2.84088 -2.520243,-2.84087 -4.756938,-5.97857 -4.756939,-5.97857 -2.568813,-3.43283 -2.568813,-3.43284 -2.838224,-2.03522 -2.838224,-2.03522 -0.370768,-0.59439 -0.370767,-0.5944 0.46629,-0.87127 0.466291,-0.87127 -0.269616,-0.43625 -0.269616,-0.43625 -5.339713,-7.09392 -5.339714,-7.09391 -3.722025,-5.644449 -3.722025,-5.644444 -2.914569,-4.861802 -2.914569,-4.861802 0.199969,-0.521111 0.19997,-0.521112 0.869348,-0.396101 0.869349,-0.396102 0.533856,0.20486 0.533856,0.20486 3.763699,5.716584 3.763699,5.716584 3.178388,4.443682 3.178387,4.443683 3.194828,4.05694 3.194828,4.05695 3.919753,4.7625 3.919754,4.7625 2.183001,2.88182 2.183001,2.88182 5.385776,3.66249 5.385776,3.6625 3.2132086,2.01054 3.2132087,2.01055 h 0.4027635 0.4027634 v -0.33924 -0.33924 l -2.4088009,-3.62951 -2.4088009,-3.62951 -2.6462874,-4.40972 -2.646288,-4.40972 -3.804799,-6.823 -3.804799,-6.82301 -2.753112,-5.70061 -2.753113,-5.700606 -2.349026,-5.644445 -2.349026,-5.644444 -2.427619,-7.231945 -2.427619,-7.231944 -0.730153,-2.541315 -0.730153,-2.541315 -4.399646,-4.148049 -4.399645,-4.148049 v -0.39971 -0.39971 l 0.645139,-0.583843 0.645139,-0.583843 h 0.371672 0.371671 l 2.235316,1.737042 2.235317,1.737042 0.276945,-0.171162 0.276946,-0.171162 -0.224257,-0.948519 -0.224257,-0.948518 -1.40341,-3.880556 -1.40341,-3.880555 -1.42204,-1.861027 -1.422039,-1.861027 -2.35771,-2.414509 -2.357709,-2.41451 -1.464307,-0.969033 -1.464307,-0.969032 -0.553406,0.212362 -0.553406,0.212362 -3.874311,0.365359 -3.87431,0.36536 -0.6963,-0.372648 -0.696299,-0.372648 v -0.649948 -0.649948 l 0.440972,-0.34861 0.440973,-0.348611 2.333496,-0.228684 2.333497,-0.228684 3.024962,-0.661039 3.024963,-0.661039 0.858821,0.445561 0.858821,0.445562 2.072997,1.523747 2.072998,1.523747 2.03108,1.92785 2.031081,1.927851 0.176016,-0.176016 0.176016,-0.176016 0.192981,-9.316978 0.19298,-9.316977 0.535125,-5.644444 0.535125,-5.644445 0.888952,-5.2900942 0.888952,-5.2900947 1.707057,-6.7043498 1.707057,-6.7043493 0.716338,-2.277914 0.716338,-2.277913 -0.171901,-0.171902 -0.171901,-0.171901 -2.135231,0.441025 -2.13523,0.441024 -0.461768,-0.383233 -0.461768,-0.383234 -0.17912,-0.937006 -0.17912,-0.937006 0.177642,-0.462927 0.177642,-0.462928 3.993758,-1.246739 3.993758,-1.246739 3.611362,-4.070223 3.611363,-4.070223 3.910763,-3.720229 3.910763,-3.72023 1.023992,-0.443715 1.023991,-0.443715 1.825518,-5.247969 1.825518,-5.24797 1.9048115,-4.7625 1.9048119,-4.7625 4.6564537,-9.348611 4.6564538,-9.348611 3.4171871,-5.820834 3.4171872,-5.820833 0.1743638,-0.440972 0.1743639,-0.440972 H 8.6079865 8.2478382 l -3.4121342,3.880555 -3.4121342,3.880556 H 1.0033964 0.58322292 l -1.15591863,-1.055769 -1.15591859,-1.055769 0.2919751,-0.52173 0.2919751,-0.521731 3.3818676,-3.826156 3.3818675,-3.826156 5.133342,-3.803419 5.133342,-3.803415 2.728362,-4.11029 2.728362,-4.11029 2.832265,-3.70416 2.832265,-3.70417 2.3074,-2.82222 2.3074,-2.82223 3.351739,-3.88055 3.351738,-3.88056 6.404576,-7.05555 6.404577,-7.05556 2.250632,-2.29735 2.250632,-2.29734 7.055555,-6.71432 7.055556,-6.71431 4.455144,-4.12931 4.455145,-4.12931 h 0.551935 0.551934 l 0.549171,0.78405 0.54917,0.78405 v 0.89671 0.89671 l -7.807918,7.56405 -7.807919,7.56406 0.393941,0.13131 0.393941,0.13131 4.834854,-3.25835 4.834853,-3.25834 2.843708,-2.19228 2.843707,-2.19228 4.586111,-2.74161 4.586111,-2.7416 1.22842,-0.83112 1.228419,-0.83112 h 0.611252 0.611251 l 0.36519,0.68237 0.36519,0.68236 v 1.03627 1.03627 l -5.909028,3.617 -5.909027,3.61699 -3.704167,2.7301 -3.704166,2.7301 -4.409722,2.93118 -4.409722,2.93118 -4.586111,3.1822 -4.586111,3.1822 -7.981852,7.97911 -7.981852,7.97911 -4.041674,5.44664 -4.041674,5.44665 -0.992682,1.50647 -0.992682,1.50648 0.19571,0.19571 0.19571,0.19571 2.766332,-2.43226 2.766331,-2.43226 4.056944,-3.33161 4.056945,-3.33162 2.891302,-2.39235 2.891302,-2.39235 3.674685,-2.89457 3.674685,-2.89458 3.819264,-3.31449 3.819263,-3.31448 4.607804,-3.03075 4.607805,-3.03074 3.132466,-2.20963 3.132466,-2.20963 h 0.616699 0.616699 l 0.355238,0.44097 0.355237,0.44098 0.240762,1.12652 0.240762,1.12653 -2.581276,1.90232 -2.581276,1.90233 -5.644444,3.73145 -5.644444,3.73145 -4.627153,3.99942 -4.627154,3.99942 -4.721457,3.74372 -4.721458,3.74372 -4.409722,3.63038 -4.409722,3.63039 -4.056944,3.56201 -4.056945,3.562 -3.907311,3.88056 -3.907311,3.880554 -3.530298,4.7625 -3.530297,4.7625 -2.241571,3.347796 -2.241571,3.347796 -3.7841407,7.764704 -3.7841404,7.764704 -2.0010483,4.7625 -2.0010484,4.7625 -2.8394909,7.408333 -2.839491,7.408333 -1.8508046,5.644445 -1.8508046,5.644444 -1.4403118,5.644445 -1.4403113,5.644444 -1.232879,6.173611 -1.232878,6.1736112 -0.70126,4.9388889 -0.701261,4.9388889 -0.543339,5.1152778 -0.543339,5.1152782 -0.355767,5.820833 -0.355768,5.820833 -0.0016,0.864306 -0.0016,0.864305 0.330543,-0.335139 0.330542,-0.335138 0.881762,-3.880556 0.881761,-3.880556 0.851295,-2.822222 0.851295,-2.822222 1.675866,-5.4680556 1.6758643,-5.4680555 1.5658727,-4.2333334 1.5658726,-4.2333333 0.9564681,-1.9402778 0.9564681,-1.9402774 1.3257518,-0.109659 1.3257518,-0.109659 0.2172626,0.566177 0.2172627,0.5661775 -1.0787952,2.7299969 -1.0787951,2.7299969 -0.9082581,2.705654 -0.9082581,2.705654 -1.4146258,5.0439418 -1.4146258,5.0439419 -1.2419968,4.743545 -1.2419968,4.743545 -0.837194,4.781455 -0.837195,4.781455 -0.425806,5.482654 -0.425805,5.482654 0.177617,10.568735 0.177617,10.568735 0.753002,8.113889 0.753003,8.113888 0.711243,4.938889 0.711243,4.938889 1.7419571,5.115278 1.7419572,5.115278 0.831974,2.116664 0.831974,2.11667 3.1342561,-0.0936 3.1342561,-0.0936 0.2745937,-0.2746 0.2745937,-0.27459 0.3300454,-4.041517 0.3300454,-4.041518 0.583294,-2.561623 0.583294,-2.561624 0.5251824,-0.525182 0.5251824,-0.525182 H 5.876118 6.3368904 l 0.4515163,0.544043 0.4515162,0.544044 -0.4454606,3.953873 -0.4454605,3.953873 0.2523596,3.351393 0.2523597,3.35138 -7.823e-4,7.01139 -7.822e-4,7.01138 -0.2186063,1.36709 -0.2186063,1.36709 h 0.301735 0.3018775 l 2.4142372,-3.96875 2.4142373,-3.96875 3.029757,-4.58611 3.029757,-4.58611 2.503264,-3.527781 2.503264,-3.527778 3.914374,-4.475637 3.914373,-4.475637 5.744132,-5.794658 5.744131,-5.794658 3.428836,-3.153571 3.428835,-3.153571 1.41803,-4.920578 1.418029,-4.920579 1.046685,-2.822222 1.046685,-2.822222 4.125107,-4.004734 4.125108,-4.004735 3.210509,-2.672109 3.210508,-2.67211 3.175,-2.344757 3.175,-2.344757 8.65108,-5.795066 8.651079,-5.795065 0.938316,-0.487848 0.938316,-0.487848 0.556018,0.213364 0.556017,0.213364 0.394499,0.86583 0.394499,0.865831 -0.206704,0.819764 -0.206705,0.819765 -4.512374,3.257614 -4.512374,3.257614 -4.258607,3.092386 -4.258607,3.092386 -4.031671,3.162246 -4.031671,3.162246 -6.033026,5.929026 -6.033027,5.929025 -0.960477,3.20041 -0.960477,3.20041 0.223454,0.223454 0.223454,0.223454 1.970633,-1.031759 1.970632,-1.031758 3.695976,-3.369488 3.695976,-3.369488 1.945227,-1.692311 1.945226,-1.692311 0.569326,0.104811 0.569326,0.104811 0.529166,1.138892 0.529167,1.138893 0.447982,0.0076 0.447983,0.0076 1.358912,-0.857843 1.358912,-0.857844 1.785611,-2.052961 1.785611,-2.052961 6.285272,-5.889464 6.285272,-5.889465 3.880555,-3.13505 3.880558,-3.13505 5.99722,-4.580487 5.99722,-4.580487 5.11528,-3.972574 5.11528,-3.972574 8.88797,-5.8817586 8.88796,-5.881759 3.28287,-2.08906166 3.28286,-2.08906174 5.11528,-3.2417277 5.11528,-3.2417278 6.87916,-3.6198445 6.87917,-3.619844 5.78759,-3.014439 5.78759,-3.01444 0.66817,0.825156 0.66817,0.825156 -0.10576,0.85135 -0.10576,0.851351 -4.58611,2.467468 -4.58611,2.467469 -6.35,3.3651486 -6.35,3.3651485 -2.99861,1.7745186 -2.99861,1.7745187 -6.87917,4.4684349 -6.87917,4.468435 -5.94047,3.8245344 -5.94047,3.8245343 -4.99564,3.705999 -4.99564,3.705999 -4.7625,3.753829 -4.7625,3.753829 -3.88055,2.956304 -3.88056,2.956305 -4.40972,3.602802 -4.409722,3.602802 -2.645833,2.467444 -2.645834,2.467444 0.270184,0.279675 0.270184,0.279674 6.785372,-3.401002 6.785369,-3.401003 5.99722,-3.47635 5.99723,-3.476349 5.98832,-3.281722 5.98832,-3.281721 5.07362,-2.655884 5.07363,-2.655883 2.77996,-2.061213 2.77996,-2.061214 7.32476,-5.23509 7.32476,-5.2350907 5.82083,-3.9983738 5.82083,-3.99837382 3.35842,-2.54090488 3.35841,-2.5409048 1.48026,-0.7551731 1.48026,-0.755173 10.15438,-6.8345909 10.15438,-6.834591 7.9375,-4.925177 7.9375,-4.925177 11.46528,-6.822945 11.46528,-6.822944 10.40694,-6.236987 10.40695,-6.236988 8.81944,-4.850576 8.81945,-4.850576 2.82222,-1.687411 2.82222,-1.68741 6.87917,-3.80403 6.87916,-3.80403 5.32567,-2.692077 5.32568,-2.692077 3.51596,-1.190184 3.51596,-1.190184 0.54033,0.207344 0.54034,0.207344 0.44566,1.591746 0.44566,1.591746 -0.20844,0.337258 -0.20844,0.337257 -1.63136,0.410782 -1.63136,0.410781 0.22772,1.518518 0.22771,1.518517 -0.45443,0.346698 -0.45444,0.346697 -2.82222,0.790798 -2.82222,0.790798 -3.52778,1.2574 -3.52777,1.2574 -4.93889,2.264759 -4.93889,2.26476 -6.73589,3.51938 -6.7359,3.51938 -4.72938,2.867493 -4.72939,2.867493 -12.34722,7.460231 -12.34722,7.460231 -7.76111,5.062394 -7.76111,5.062395 -4.7625,3.176175 -4.7625,3.176176 -0.25918,0.384735 -0.25919,0.384734 -0.005,0.225501 -0.005,0.225501 0.61736,0.735708 0.61736,0.735708 3.52778,-1.959453 3.52778,-1.959452 5.64444,-2.400431 5.64445,-2.400431 5.53769,-2.488446 5.5377,-2.488446 6.10397,-2.128184 6.10397,-2.128184 3.52079,-1.379267 3.52079,-1.379267 0.42461,0.162936 0.4246,0.162935 0.51477,1.510781 0.51478,1.510781 -0.22684,0.335135 -0.22683,0.335134 -4.23334,1.635445 -4.23333,1.635444 -5.99722,2.111577 -5.99722,2.111577 -3.52778,1.642668 -3.52778,1.642669 -6.64964,2.815627 -6.64963,2.815626 -5.16842,2.841979 -5.16842,2.841978 -7.23194,3.965758 -7.23195,3.9657587 -4.93889,2.8945652 -4.93889,2.8945652 -6.96736,4.2800978 -6.96736,4.2800978 v 0.3174979 0.3174979 l 0.97014,-0.2341836 0.97014,-0.2341837 4.58611,-1.7804538 4.58611,-1.7804537 2.40374,-0.8703591 2.40374,-0.8703591 0.50415,0.4184026 0.50414,0.4184026 0.38206,1.4188618 0.38206,1.4188617 -0.46772,0.417307 -0.46772,0.417307 -1.41112,0.5781283 -1.41111,0.5781283 -4.90458,2.1699733 -4.90458,2.1699729 -10.77056,3.510752 -10.77056,3.510751 -0.6036,0.323039 -0.6036,0.323039 -8.23931,5.883082 -8.23932,5.883082 -4.7625,3.554358 -4.7625,3.554359 -8.70874,6.98778 -8.70875,6.987781 -6.81348,6.230133 -6.81347,6.230133 -13.587295,13.600074 -13.587296,13.600074 -4.095083,4.7625 -4.095083,4.762498 -3.956796,4.93889 -3.956795,4.93889 -5.38412,8.11389 -5.38412,8.11389 -2.18898,3.66155 -2.188981,3.66156 -1.897499,3.78351 -1.8975,3.7835 -1.757899,4.19661 -1.757899,4.1966 -1.28458,3.70417 -1.284579,3.70416 -1.6936,6.35 -1.6936,6.35 -0.433966,2.33863 -0.433965,2.33863 1.326401,1.99771 1.326402,1.9977 0.557585,-0.22489 0.557584,-0.22489 4.233334,-0.48574 4.233333,-0.48573 8.466666,-0.91173 8.466667,-0.91173 11.994444,-1.56871 11.994444,-1.56871 2.952942,-0.51164 2.952942,-0.51163 0.222058,-0.22267 0.222058,-0.22267 -0.947047,-0.81515 -0.947046,-0.81515 -3.462676,-1.14399 -3.462676,-1.14398 -5.813611,-2.0898 -5.813612,-2.08981 -0.279281,-0.41896 -0.279282,-0.41897 0.215435,-1.23473 0.215434,-1.23472 0.364404,-0.44097 0.364405,-0.44097 h 0.709229 0.709228 l 5.68577,1.38221 5.68577,1.38221 4.113458,0.93796 4.113459,0.93797 4.347488,3.0515 4.347489,3.05149 3.497278,0.41815 3.49728,0.41814 0.389,-0.16891 0.38899,-0.16892 2.29306,-3.20063 2.29305,-3.20064 3.175,-2.81653 3.175,-2.81652 5.99722,-4.82662 5.99723,-4.82661 4.07299,-3.05637 4.07299,-3.05636 1.83064,-2.28446 1.83065,-2.28445 0.23021,-1.95873 0.23021,-1.95872 0.42585,-0.58238 0.42584,-0.58238 0.89793,0.22536 0.89792,0.22537 0.20906,0.54482 0.20907,0.54482 0.23109,3.28755 0.23109,3.28755 -2.17207,3.53457 -2.17207,3.53457 -3.60903,2.99741 -3.60904,2.9974 -3.03098,2.77967 -3.03098,2.77967 -5.02202,4.5602 -5.02202,4.5602 -1.5061,1.96619 -1.50611,1.96619 -1.00304,1.5875 -1.00303,1.5875 -2.04967,3.65938 -2.04966,3.65937 v 0.53442 0.53443 l 2.55764,-0.21727 2.55764,-0.21727 3.52778,-0.22644 3.52777,-0.22643 6.70278,1.30169 6.70278,1.30168 5.11528,1.24577 5.11527,1.24577 5.01639,2.67531 5.01639,2.67531 1.57058,1.61047 1.57057,1.61048 2.70483,3.88055 2.70482,3.88056 h 0.37594 0.37593 l 0.6017,-1.76389 0.6017,-1.76389 2.14811,-4.28042 2.14811,-4.28043 1.81497,-3.07282 1.81498,-3.07283 3.85055,-4.80514 3.85054,-4.80514 4.57444,-4.95805 4.57445,-4.95805 5.21194,-4.95986 5.21195,-4.95986 3.70417,-3.30127 3.70416,-3.30126 9.43666,-9.19466 9.43666,-9.19465 1.4e-4,-0.40323 1.5e-4,-0.40323 -0.55802,-0.21413 -0.55801,-0.21414 h -1.03457 -1.03456 l -7.05425,1.27102 -7.05426,1.27101 -0.49023,-0.18811 -0.49022,-0.18812 -0.249,-1.47382 -0.249,-1.47382 0.47842,-0.43507 0.47843,-0.43506 7.28186,-1.48538 7.28186,-1.48537 3.35187,0.0625 3.35188,0.0625 0.35987,-0.22241 0.35988,-0.22241 0.23174,-1.49746 0.23174,-1.49746 0.35565,-1.14704 0.35565,-1.14705 4.64678,-3.65165 4.64677,-3.65166 4.40972,-3.16635 4.40973,-3.16635 3.30321,-2.53009 3.30322,-2.53008 h 0.65312 0.65312 l 0.36393,0.68 0.36392,0.68 -0.21606,0.56304 -0.21606,0.56303 -3.57503,2.90654 -3.57504,2.90654 -4.7625,3.58753 -4.7625,3.58752 -3.43958,2.84979 -3.43959,2.84978 v 1.40756 1.40756 h 1.92028 1.92027 l 0.54917,0.78405 0.54917,0.78405 -0.005,1.06803 -0.005,1.06803 -0.26636,0.4189 -0.26636,0.41891 -0.87477,0.32819 -0.87476,0.32819 -2.42763,0.25609 -2.42763,0.25609 -12.9182,12.95413 -12.91821,12.95413 -6.50201,6.15102 -6.502,6.15102 -4.57482,4.93889 -4.57482,4.93889 -3.66758,4.58611 -3.66758,4.58611 -1.18623,1.77462 -1.18623,1.77462 -2.47578,4.75177 -2.47577,4.75177 -0.9365,3.47005 -0.9365,3.47005 0.209,0.209 0.20899,0.20899 2.02419,-0.6326 2.0242,-0.63261 19.40277,-6.68348 19.40278,-6.68348 4.49393,-1.60723 4.49393,-1.60723 4.5019,-4.24907 4.50191,-4.24907 7.49652,-6.68052 7.49653,-6.68051 v -0.28387 -0.28387 l -2.02847,-0.19829 -2.02847,-0.19828 -2.82222,-0.22437 -2.82223,-0.22436 -0.44097,-0.36074 -0.44097,-0.36074 v -1.32472 -1.32472 l 0.53791,-0.44643 0.53792,-0.44643 7.67407,0.25127 7.67408,0.25126 5.81093,-5.19076 5.81092,-5.19076 14.66082,-12.23888 14.66082,-12.23888 4.78191,-4.06654 4.78191,-4.06654 7.08405,-5.68524 7.08404,-5.68524 9.10378,-6.2435 9.10378,-6.24349 7.58472,-5.464915 7.58472,-5.464916 5.99723,-4.239766 5.99722,-4.239766 8.11389,-5.819413 8.11389,-5.819413 4.05694,-2.995717 4.05694,-2.995718 12.52362,-9.710948 12.52361,-9.710949 5.29166,-4.225737 5.29167,-4.225738 3.35139,-2.828363 3.35139,-2.828363 8.64305,-7.77061 8.64306,-7.770611 6.73307,-6.7113928 6.73308,-6.7113929 3.67387,-4.3895366 3.67387,-4.3895367 2.38125,-3.016354 2.38125,-3.016354 v -0.282631 -0.282631 l 2.66563,-3.855274 2.66564,-3.855275 1.22778,-1.469556 1.22777,-1.469556 1.27038,-1.009565 1.27037,-1.009564 h 0.82102 0.82103 l 0.36519,0.682363 0.36519,0.682364 v 0.748634 0.748634 l -1.11819,1.021307 -1.11819,1.021306 0.7742,3.156825 0.7742,3.156826 0.41199,3.940297 0.41199,3.940298 -0.43415,3.9044765 -0.43416,3.9044767 -0.21097,1.539152 -0.21096,1.53915189 h 0.48049 0.4805 l 3.2518,-1.96741149 3.2518,-1.9674115 0.77818,0.1153281 0.77818,0.1153282 0.70107,0.9425925 0.70106,0.9425925 -0.20892,0.5444573 -0.20893,0.54445724 -3.03906,1.96052436 -3.03906,1.9605243 -2.37688,1.1969783 -2.37688,1.1969783 -0.37176,0.4707254 -0.37175,0.4707254 -0.78814,2.6350693 -0.78814,2.6350697 -1.39565,3.503143 -1.39565,3.503143 -3.83566,7.620121 -3.83567,7.620121 -2.76865,4.586111 -2.76865,4.586111 -0.64999,0.970139 -0.64999,0.970139 h 0.44764 0.44764 l 2.32696,-1.288982 2.32696,-1.288982 5.11527,-3.003472 5.11528,-3.003473 6.457,-4.020068 6.45701,-4.020069 0.59586,0.114754 0.59587,0.114753 0.47537,0.991835 0.47538,0.991835 -0.19901,0.792896 -0.199,0.792897 -8.03479,5.325012 -8.0348,5.325011 -7.58472,4.60557 -7.58472,4.605569 -2.19943,1.50954 -2.19942,1.50954 -0.005,0.512372 -0.005,0.512372 1.10295,1.137951 1.10295,1.13795 -0.22154,0.882648 -0.22153,0.882648 -0.55383,0.553835 -0.55384,0.553835 h -0.45474 -0.45473 l -1.2961,-0.879554 -1.2961,-0.879555 -1.54085,-0.05828 -1.54085,-0.05828 -1.44202,1.060469 -1.44201,1.06047 -1.41006,1.601917 -1.41007,1.601916 0.50596,0.419906 0.50595,0.419905 0.59866,1.567577 0.59867,1.567577 -0.13913,0.128341 -0.13912,0.128341 -4.40973,2.205054 -4.40972,2.205054 -1.81405,0.625265 -1.81405,0.625264 -4.71234,4.00492 -4.71234,4.004921 -2.64583,2.107894 -2.64583,2.107894 -4.58611,4.077812 -4.58611,4.077813 -6.35,5.475037 -6.35,5.47505 -7.58473,6.30758 -7.58472,6.30758 -7.9375,6.35037 -7.9375,6.35037 -8.81944,6.56217 -8.81945,6.56217 -6.35,4.59734 -6.34999,4.59734 -7.58473,5.29774 -7.58472,5.29775 -10.05417,6.79678 -10.05416,6.79678 -11.28889,7.06861 -11.28889,7.0686 -9.525,5.71609 -9.525,5.71609 -13.58194,7.7564 -13.58195,7.75639 -15.34583,8.11985 -15.34583,8.11985 -3.96317,2.01803 -3.96317,2.01804 -2.56322,3.001 -2.56322,3.00099 -6.52639,5.01851 -6.52639,5.01851 -5.77473,4.38859 -5.77473,4.38859 -0.75166,0.59831 -0.75165,0.59831 0.37813,0.37954 0.37813,0.37954 4.34574,0.84986 4.34574,0.84987 5.68307,0.77579 5.68307,0.77579 1.94028,1.15298 1.94028,1.15299 4.89458,2.00282 4.89458,2.00282 0.29809,-0.2981 0.29809,-0.29809 -0.88145,-1.90252 -0.88145,-1.90252 0.10951,-0.32852 0.1095,-0.32851 9.514,0.0389 9.51399,0.0389 0.80167,0.96421 0.80166,0.96421 1.92777,3.21319 1.92776,3.21319 1.41081,4.2196 1.4108,4.21959 0.72087,4.20888 0.72086,4.20889 -0.076,1.49253 -0.076,1.49253 0.20867,0.20866 0.20866,0.20867 6.11871,-2.29031 6.11871,-2.29031 10.40695,-3.68173 10.40694,-3.68173 9.70139,-3.94965 9.70139,-3.94966 8.64305,-3.56704 8.64306,-3.56704 9.525,-4.64299 9.525,-4.64299 3.88055,-2.14298 3.88056,-2.14298 6.69124,-3.9244 6.69124,-3.92441 0.42344,0.16249 0.42344,0.16249 2.29317,-1.38307 2.29317,-1.38308 7.25317,-4.68011 7.25318,-4.68012 4.66161,-3.70416 4.66162,-3.70417 5.27855,-5.11528 5.27854,-5.11528 4.06345,-4.40321 4.06345,-4.40322 1.32415,-2.82873 1.32414,-2.82872 0.90336,-2.69497 0.90336,-2.69496 1.59256,-6.68887 1.59256,-6.68887 0.55496,-3.49256 0.55496,-3.49255 0.1105,-7.41909 0.11051,-7.41909 1.67619,-2.81146 1.67618,-2.81147 0.52365,-0.84811 0.52365,-0.84811 0.30381,0.54287 0.3038,0.54288 0.0714,12.12329 0.0714,12.12329 -0.59534,3.67811 -0.59534,3.67811 v 0.46703 0.46703 h 0.31826 0.31827 l 2.30061,-4.67431 2.30061,-4.67431 1.27228,-3.175 1.27228,-3.175 0.52759,-3.70416 0.52758,-3.70417 0.21668,-4.93889 0.21668,-4.93889 -0.61122,-8.11389 -0.61122,-8.11388 1.17927,-2.79208 1.17927,-2.79208 0.35278,0.0404 0.35278,0.0404 0.58843,3.45725 0.58843,3.45726 0.22796,1.68252 0.22796,1.68252 0.36597,-0.22618 0.36598,-0.22619 -0.0914,-8.68828 -0.0914,-8.68828 2.30999,-6.87917 2.31,-6.87917 1.14963,-4.49791 1.14963,-4.49792 h 0.44332 0.44331 l 1.26356,5.20347 1.26355,5.20348 1.06927,6.22395 1.06927,6.22395 0.51878,4.88855 0.51879,4.88855 -0.002,7.58472 -0.002,7.58472 -0.67943,4.78251 -0.67944,4.78252 -1.25139,5.80082 -1.25139,5.80082 -1.42851,4.72051 -1.42852,4.72051 -1.60711,4.09893 -1.60712,4.09894 -2.19531,4.23333 -2.19531,4.23333 -2.93101,4.68898 -2.93101,4.68897 0.23193,0.23193 0.23193,0.23193 3.54344,-3.50979 3.54345,-3.5098 4.47982,-4.93888 4.47981,-4.93889 1.79791,-2.11667 1.79791,-2.11667 4.93979,-6.55485 4.9398,-6.55486 4.69941,-7.02709 4.69941,-7.02709 5.36112,-8.64305 5.36113,-8.64306 3.12473,-4.37052 3.12472,-4.37052 3.55923,-4.17829 3.55923,-4.17829 3.02713,-2.65367 3.02713,-2.65366 3.52862,-2.23728 3.52861,-2.23728 3.41885,-0.24032 3.41885,-0.24032 0.48909,0.40591 0.48909,0.40591 v 1.20026 1.20026 l -0.79375,0.29739 -0.79375,0.29738 -2.35296,0.2481 -2.35297,0.2481 -2.82382,2.06846 -2.82383,2.06845 -2.8489,2.75854 -2.84891,2.75855 v 0.43961 0.43962 h 4.25556 4.25556 l 3.89145,1.12129 3.89145,1.12129 0.54609,0.83344 0.54609,0.83344 -0.39526,0.86749 -0.39525,0.8675 h -0.68184 -0.68184 l -3.64726,-0.85246 -3.64725,-0.85246 -4.05694,0.3101 -4.05694,0.31009 -2.28615,0.55723 -2.28614,0.55723 -0.84269,0.77888 -0.8427,0.77889 -2.45389,3.64368 -2.4539,3.64368 -5.39803,9.4091 -5.39802,9.40909 -3.08139,4.93889 -3.08139,4.93889 -1.54827,2.37702 -1.54827,2.37702 v 0.35701 0.35701 h 0.5135 0.51349 l 4.16081,-1.60699 4.16081,-1.60699 1.47393,-0.86245 1.47393,-0.86246 h 0.95651 0.9565 l 2.33206,-1.88507 2.33207,-1.88506 5.22794,-4.47074 5.22794,-4.47074 7.82484,-5.57645 7.82484,-5.57645 4.87987,-3.26295 4.87987,-3.26296 3.76319,-1.97544 3.76318,-1.97544 1.41111,-1.07417 1.41111,-1.07416 2.22494,-1.86352 2.22493,-1.86352 h 0.30751 0.3075 l 0.55437,0.55437 0.55436,0.55436 v 0.95513 0.95513 l -2.23893,2.21903 -2.23893,2.21903 0.16658,1.7336 0.16658,1.7336 -0.6329,0.24286 -0.63289,0.24286 -1.02751,-0.58971 -1.02751,-0.5897 h -0.39702 -0.39703 l -3.27855,1.95648 -3.27855,1.95649 v 0.32976 0.32977 l 1.65309,0.80055 1.6531,0.80056 0.34332,0.56941 0.34333,0.56941 -0.23705,0.61773 -0.23704,0.61773 -2.20384,-0.23601 -2.20384,-0.23601 -3.44263,0.87359 -3.44262,0.87358 -5.54972,4.33093 -5.54971,4.33093 -2.64293,2.13463 -2.64292,2.13463 -4.9418,4.54928 -4.9418,4.54929 -4.93889,4.1735 -4.93889,4.17349 -0.59079,0.83336 -0.59079,0.83335 -2.05504,1.2289 -2.05504,1.22889 -6.52639,5.01824 -6.52639,5.01824 -5.99722,4.94625 -5.99722,4.94625 -4.93889,3.8134 -4.93889,3.8134 -8.21111,6.0281 -8.2111,6.02811 -3.60695,2.96469 -3.60695,2.9647 -5.29167,3.98097 -5.29166,3.98097 -7.30959,4.79665 -7.30958,4.79664 -2.39181,1.54492 -2.3918,1.54492 -5.46806,3.43839 -5.46805,3.43839 -6.35,3.87571 -6.35,3.87571 -6.35,3.61785 -6.35,3.61784 -12.61512,6.31116 -12.61512,6.31116 -7.14044,3.38311 -7.14043,3.38311 -8.64306,3.65359 -8.64305,3.65359 -10.23056,4.41649 -10.23055,4.41649 -0.10262,0.4792 -0.10261,0.4792 1.19328,1.73514 1.19328,1.73514 0.67322,0.0995 0.67322,0.0995 8.81945,-3.50685 8.81944,-3.50685 11.46528,-5.01311 11.46528,-5.01311 7.05555,-3.2698 7.05556,-3.2698 5.99722,-2.95594 5.99722,-2.95593 4.23334,-3.00684 4.23333,-3.00684 7.9375,-4.10083 7.9375,-4.10084 8.89663,-4.7045 8.89664,-4.7045 6.27281,-3.26114 6.27281,-3.26114 4.70344,-2.80975 4.70345,-2.80975 0.74002,-0.23488 0.74003,-0.23487 3.19958,-2.30999 3.19959,-2.30999 3.35139,-2.48117 3.35138,-2.48117 2.64584,-2.11039 2.64583,-2.11039 2.52221,-2.22671 2.5222,-2.22671 h 0.72099 0.72098 l 0.54917,0.78405 0.54917,0.78405 v 0.56106 0.56106 l -1.05833,1.01394 -1.05833,1.01395 v 0.61594 0.61593 l -1.49931,1.21702 -1.4993,1.21702 -5.11528,3.63282 -5.11528,3.63283 -2.16975,1.70477 -2.16976,1.70478 -5.06219,3.73346 -5.06219,3.73346 -7.05555,4.67239 -7.05556,4.6724 -7.76111,4.75862 -7.76111,4.75862 -4.7625,2.77357 -4.7625,2.77357 -5.64444,2.70819 -5.64445,2.7082 -3.88055,1.67225 -3.88056,1.67225 -14.2875,7.12666 -14.2875,7.12666 -11.51737,5.35107 -11.51738,5.35106 -7.51047,3.17799 -7.51047,3.17799 -0.30954,0.30955 -0.30954,0.30954 1.12131,2.90765 1.12131,2.90765 0.48213,3.40191 0.48214,3.4019 0.005,7.9375 0.005,7.9375 -0.52752,5.99722 -0.52752,5.99723 -0.38979,2.99861 -0.38979,2.99861 -1.23073,2.99861 -1.23073,2.99861 -2.06895,4.05694 -2.06895,4.05695 -2.791,4.64436 -2.79101,4.64436 -2.93109,4.47478 -2.9311,4.47478 0.64364,1.64058 0.64363,1.64058 1.33046,3.88056 1.33045,3.88055 0.55038,3.70417 0.55039,3.70417 1.77591,12.34722 1.77592,12.34722 -0.004,0.96108 -0.004,0.96108 -1.04437,0.54007 -1.04437,0.54006 -2.21883,0.50623 -2.21882,0.50622 -4.23334,0.37348 -4.23333,0.37347 -12.45473,0.35319 -12.45472,0.35318 -7.12444,-0.0469 -7.12444,-0.0469 z m 30.21713,-82.10148 3.08191,-3.94032 0.60816,-1.9293 0.60816,-1.9293 -1.24591,-1.86687 -1.2459,-1.86687 -1.38818,-1.67088 -1.38817,-1.67087 -4.39305,-3.92748 -4.39304,-3.92749 -2.46945,-1.65531 -2.46944,-1.65531 -1.27856,-0.77338 -1.27855,-0.77338 -8.4076,2.47321 -8.4076,2.4732 -0.3457,0.3457 -0.3457,0.3457 0.85963,0.92902 0.85964,0.92902 6.35,4.8065 6.34999,4.80649 4.23334,3.5171 4.23333,3.51709 3.96949,3.834 3.96948,3.83399 0.42591,-0.14197 0.4259,-0.14197 z m -49.78084,-41.00653 2.91402,-3.19193 -0.31821,-0.29702 -0.31821,-0.29702 -2.64584,-1.14794 -2.64583,-1.14794 -6.9973,-3.477 -6.99731,-3.477 h -2.96867 -2.96866 v 0.4851 0.48511 l 2.73402,1.88936 2.73403,1.88937 1.33537,1.20561 1.33537,1.2056 2.10813,1.4671 2.10812,1.46709 3.15673,3.06672 3.15673,3.06672 h 0.68174 0.68174 z m -57.88509,-30.63209 0.45497,-1.37857 -0.22664,-0.3667 -0.22663,-0.3667 -4.24753,-2.35514 -4.247533,-2.35514 -0.207627,0.20763 -0.207627,0.20763 0.990201,1.49629 0.9902,1.49629 2.777516,2.77752 2.77751,2.77751 0.45911,-0.38103 0.45912,-0.38103 z m 73.74463,-5.29993 v -1.7295 l -3.79236,-3.48142 -3.79236,-3.48143 -2.99861,-2.26569 -2.99861,-2.26569 -3.60911,-2.95279 -3.6091,-2.9528 -3.79923,-1.02784 -3.79923,-1.02785 -0.62524,-0.008 -0.62525,-0.008 -1.57961,1.45604 -1.57962,1.45604 v 0.45425 0.45426 l 1.67569,1.45498 1.6757,1.45497 3.80311,4.12993 3.80312,4.12993 10.48438,3.94539 10.48439,3.94539 0.44097,0.0247 0.44097,0.0247 z m 34.72629,-8.59398 -0.60504,-1.84735 -1.04949,-2.11667 -1.04948,-2.11667 -1.58377,-2.55763 -1.58376,-2.55764 h -0.33225 -0.33225 l 0.20538,1.14652 0.20537,1.14653 0.25158,1.41111 0.25159,1.41111 2.99861,4.52019 2.99861,4.52018 0.11497,-0.55617 0.11498,-0.55616 z m -91.79832,-8.2745 2.0387,-2.01743 v -0.44797 -0.44797 l -2.20486,-1.60683 -2.20486,-1.60683 -11.76812,-5.98194 -11.768119,-5.98194 h -0.443677 -0.443677 l -1.153249,2.55764 -1.153248,2.55764 -0.04051,1.16434 -0.04051,1.16433 9.21746,4.6923 9.21746,4.69229 3.83531,1.63185 3.83532,1.63186 0.51894,0.008 0.51894,0.008 z m -36.622474,-19.32228 1.619508,-2.99526 v -0.31701 -0.31702 l -7.14375,-4.51096 -7.14375,-4.51095 -8.381223,-5.58233 -8.381223,-5.58232 h -2.466693 -2.466694 v 0.29638 0.29638 l 7.14375,7.03325 7.14375,7.03325 2.998611,2.23274 2.998611,2.23273 4.586111,2.99935 4.586111,2.99935 1.230531,0.84384 1.230531,0.84384 h 0.413156 0.413155 z m 60.753174,-2.58143 3.92394,-3.09583 7.10036,-5.27284 7.10036,-5.27283 -0.005,-0.70965 -0.005,-0.70966 -0.67928,-2.16651 -0.67929,-2.16651 -0.91843,-4.71265 -0.91843,-4.71266 -0.16835,-0.79375 -0.16834,-0.79375 h -0.42231 -0.42232 l -7.05873,3.93241 -7.05873,3.93242 -6.18237,3.66794 -6.18237,3.66795 -9.43681,4.63313 -9.4368,4.63312 v 0.4287 0.4287 l 3.79236,1.66509 3.79236,1.66509 5.68925,2.25328 5.68924,2.25328 0.66076,-0.002 0.66075,-0.002 -1.05833,-0.72213 -1.05834,-0.72214 -2.77053,-1.4145 -2.77053,-1.4145 0.14111,-0.14111 0.14111,-0.14111 6.86275,2.43612 6.86276,2.43611 0.52917,0.0146 0.52916,0.0146 z M 33.939805,245.08215 v -0.27428 l -0.543537,-0.77601 -0.543537,-0.77601 -4.207925,-2.98833 -4.207925,-2.98834 -0.746808,-0.39968 -0.746807,-0.39968 -0.234369,0.24021 -0.234369,0.24022 1.411111,1.23188 1.411111,1.23188 4.056944,2.95749 4.056945,2.9575 0.264583,0.009 0.264583,0.009 z m 72.488095,-4.8952 6.35774,-3.05281 7.23194,-3.31538 7.23194,-3.31539 4.58612,-2.58166 4.58611,-2.58165 3.52777,-1.93914 3.52778,-1.93914 6.4382,-3.42523 6.43819,-3.42523 v -0.48246 -0.48247 l -3.10338,-5.22345 -3.10337,-5.22345 -4.04037,-2.72264 -4.04038,-2.72264 -4.96158,-1.74317 -4.96158,-1.74317 -5.97453,-1.66448 -5.97453,-1.66449 -9.15818,0.16378 -9.15818,0.16377 -1.07237,1.32094 -1.072381,1.32093 -2.188007,3.05808 -2.188007,3.05809 -2.452624,4.7625 -2.452625,4.7625 -1.498923,3.52778 -1.498923,3.52777 -1.180584,3.48746 -1.180584,3.48745 0.0013,1.9806 0.0013,1.9806 0.507256,3.12504 0.507255,3.12503 0.142909,0.14291 0.142909,0.14291 6.315854,4.56592 6.315853,4.56591 0.521426,0.0155 0.521416,0.0154 z m 69.80397,-4.50132 4.2871,-2.96802 1.79243,-1.88267 1.79244,-1.88267 3.85201,-4.40288 3.85201,-4.40287 3.67887,-3.86644 3.67887,-3.86644 -0.36144,-0.12048 -0.36145,-0.12048 -12.84243,4.62068 -12.84242,4.62068 -2.11667,0.73757 -2.11667,0.73756 -0.49315,0.45049 -0.49315,0.45049 0.43944,2.75745 0.43944,2.75744 1.02353,3.99134 1.02353,3.99134 0.36551,0.68297 0.36551,0.68296 h 0.3748 0.3748 z m -98.58947,-14.67227 1.048944,-4.05554 1.217887,-3.175 1.217887,-3.175 2.028485,-4.36131 2.028485,-4.36131 1.558734,-2.81798 1.558734,-2.81799 1.394124,-2.20744 1.394124,-2.20744 v -0.3651 -0.36511 l -0.55802,-0.21413 -0.558019,-0.21413 -3.763508,0.0115 -3.763509,0.0115 -9.870869,0.6518 -9.87087,0.6518 -0.408293,-0.15668 -0.408294,-0.15667 -0.215975,-1.07988 -0.215976,-1.07988 v -0.81703 -0.81703 l 0.34665,-0.21424 0.34665,-0.21424 10.501266,-1.19591 10.501267,-1.1959 6.763416,-0.24852 6.763415,-0.24851 0.29214,-0.21424 0.29214,-0.21424 2.377264,-2.69414 2.377261,-2.69414 -0.43698,-0.35278 -0.43699,-0.35278 -1.419498,-0.2338 -1.419497,-0.2338 -5.812447,0.72262 -5.812446,0.72261 -13.934722,1.2287 -13.934722,1.2287 -11.288889,0.73668 -11.288888,0.73668 -0.303713,0.29672 -0.303712,0.29671 2.490426,3.6474 2.490426,3.6474 3.376351,4.05694 3.37635,4.05694 0.786936,0.22942 0.786935,0.22942 1.534858,0.0352 1.534857,0.0352 3.756809,1.07686 3.756809,1.07686 2.156853,0.69982 2.156852,0.69981 2.306101,2.56648 2.306101,2.56647 0.385774,1.38949 0.385773,1.38949 0.002,1.38339 0.002,1.38339 -1.5875,1.52109 -1.5875,1.52109 v 0.29637 0.29637 l 2.910417,2.46685 2.910416,2.46685 2.073519,1.67795 2.073518,1.67795 0.291502,-0.29151 0.291502,-0.2915 z m 141.28361,-5.16993 9.21796,-4.81856 10.05416,-5.63523 10.05417,-5.63524 7.28921,-4.17433 7.2892,-4.17434 11.23163,-6.76847 11.23162,-6.76847 6.52639,-4.06368 6.52639,-4.06369 7.40833,-4.93554 7.40834,-4.93555 8.29028,-5.65646 8.29027,-5.65646 11.1125,-7.92444 11.1125,-7.92443 5.41134,-4.01867 5.41134,-4.01867 5.59409,-4.39525 5.59409,-4.39526 0.23945,-0.38742 0.23944,-0.38743 -0.7868,0.24972 -0.78681,0.24973 -7.10668,4.06403 -7.10668,4.06404 -4.7625,2.84191 -4.7625,2.84192 -4.99292,3.0967 -4.99293,3.09671 -3.65013,1.56911 -3.65013,1.56912 -5.64444,2.45954 -5.64445,2.45955 -7.05555,3.08609 -7.05556,3.0861 -12.88838,7.74708 -12.88838,7.74708 -0.83555,0.63025 -0.83554,0.63026 0.74222,1.54541 0.74223,1.54541 0.44025,1.66518 0.44025,1.66517 -0.59851,1.15705 -0.59852,1.15704 -2.73503,3.6723 -2.73504,3.6723 -7.05555,4.37204 -7.05556,4.37204 -1.23472,0.64338 -1.23472,0.64337 -10.05417,2.84541 -10.05417,2.8454 -5.40046,1.48608 -5.40046,1.48609 -4.65576,4.61969 -4.65576,4.61968 -4.31947,4.71434 -4.31947,4.71433 v 0.31275 0.31275 h 0.21885 0.21885 z m -205.465885,-0.48307 2.627264,-0.34096 0.254177,-0.26551 0.254177,-0.26551 -1.154896,-4.23334 -1.154897,-4.23333 -0.220414,-0.91617 -0.220415,-0.91617 -2.596578,-2.03389 -2.596578,-2.0339 -7.4690787,-3.79967 -7.4690787,-3.79967 -0.1383094,0.22379 -0.1383094,0.22379 0.6687224,4.51427 0.6687224,4.51428 0.3460546,0.64661 0.3460545,0.64661 6.537054,6.21575 6.537054,6.21576 1.1460054,-0.0109 1.1460059,-0.0109 z m 35.296347,-3.02287 v -0.21061 l -3.217413,-3.82487 -3.217412,-3.82486 -0.491188,-0.18849 -0.491188,-0.18849 -2.240726,-0.22957 -2.240726,-0.22956 -0.2204,0.35661 -0.220401,0.35662 0.575175,0.47735 0.575174,0.47735 5.329969,3.61389 5.329969,3.6139 0.264583,0.006 0.264584,0.006 z m 11.57111,-1.97661 0.423334,-0.42334 v -0.38826 -0.38827 l -2.17043,-0.78093 -2.17043,-0.78094 -0.187898,0.1879 -0.187897,0.1879 1.371589,1.40463 1.37159,1.40464 h 0.563404 0.563405 z m -23.98066,-13.47114 -0.114061,-0.48892 -2.770485,-2.5097 -2.770484,-2.50969 H 30.375571 30.05925 v 1.37203 1.37203 l 0.617361,0.726 0.617361,0.726 2.116667,0.86985 2.116666,0.86984 0.46684,0.0307 0.466839,0.0307 z m -51.798029,-6.65484 -0.002,-3.61597 -3.756531,-2.11666 -3.75653,-2.11667 -3.914361,-2.60742 -3.914361,-2.60741 -3.263194,-2.60729 -3.263195,-2.60729 v -0.36474 -0.36474 l 0.360863,-0.67427 0.360863,-0.67428 0.709563,-0.37975 0.709562,-0.37974 4.309436,2.62787 4.309435,2.62788 5.743778,3.03545 5.743777,3.03545 h 0.325057 0.325057 l 0.367393,-1.32292 0.367392,-1.32291 0.002,-0.42796 0.002,-0.42795 -5.027083,-4.56118 -5.027084,-4.56118 -9.34861,-7.79325 -9.348611,-7.79325 -0.458974,-0.006 -0.458973,-0.006 -0.566698,1.32292 -0.566697,1.32291 0.01993,1.12235 0.01993,1.12235 1.766802,5.22765 1.766802,5.22765 0.590015,2.9964 0.590015,2.99639 0.391207,0.47138 0.391208,0.47137 6.018828,5.20273 6.018827,5.20273 5.459302,4.47047 5.459301,4.47048 h 0.273337 0.273338 z m 28.627805,-9.81379 0.611083,-4.73829 0.02185,-0.31638 0.02185,-0.31639 -6.9481258,-7.00375 -6.94812546,-7.00376 h -0.30594333 -0.30594333 l -1.03426918,2.28104 -1.0342693,2.28103 -0.8930312,3.08166 -0.8930313,3.08167 0.8028973,0.78948 0.8028972,0.78949 7.4083332,6.01484 7.4083332,6.01484 0.33721,-0.10859 0.33721,-0.1086 z m 248.679692,-1.21002 6.85702,-3.70368 2.02267,-2.20535 2.02267,-2.20535 0.006,-0.26458 0.006,-0.26459 -0.26458,1e-4 -0.26458,10e-5 -4.47493,2.75348 -4.47492,2.75348 -4.60726,3.15545 -4.60725,3.15545 -0.002,0.26458 -0.002,0.26459 h 0.46312 0.46312 z M 11.27053,160.80147 7.9334634,155.22171 6.4716641,152.68886 5.0098648,150.15602 3.6958462,149.07289 2.3818275,147.98977 h -0.4575199 -0.45752 l -0.2959637,0.79375 -0.29596376,0.79375 -0.25444399,1.73142 -0.25444399,1.73142 6.90778024,6.88359 6.9077806,6.8836 0.213032,-0.21303 0.213032,-0.21304 z m -61.30678,3.15149 -0.01495,-0.26458 -0.443417,-1.94028 -0.443417,-1.94028 -1.283734,-0.636 -1.283733,-0.63601 -1.303859,-0.21158 -1.303859,-0.21159 0.13554,0.38052 0.13554,0.38053 2.406104,2.67192 2.406105,2.67193 h 0.504312 0.504312 z m 341.24055,-16.70761 9.90908,-5.68331 17.66059,-12.01719 17.66058,-12.0172 3.53387,-2.0062 3.53388,-2.0062 15.875,-8.81158 15.875,-8.811578 6.34999,-3.367471 6.35,-3.367471 14.46389,-7.669921 14.46389,-7.669922 2.82222,-1.703183 2.82223,-1.703183 3.88055,-3.20915 3.88056,-3.20915 4.05694,-2.845752 4.05695,-2.845752 3.175,-1.48739 3.175,-1.487391 1.76388,-2.077845 1.76389,-2.077846 2.24502,-2.478644 2.24501,-2.478644 2.41498,-3.102932 2.41498,-3.102932 2.95516,-4.834568 2.95517,-4.834568 3.32508,-6.35 3.32509,-6.35 1.34703,-2.898077 1.34702,-2.898077 -0.11643,-0.568994 -0.11644,-0.568994 -1.41111,1.01136 -1.41111,1.011359 -3.88056,2.454306 -3.88055,2.454307 -5.50752,4.108623 -5.50751,4.108623 -5.95777,4.150768 -5.95776,4.150769 -6.87917,5.358967 -6.87916,5.358967 -17.99167,13.395394 -17.99166,13.395393 -9.70139,7.057212 -9.70139,7.057212 -15.875,11.766841 -15.875,11.766844 -13.75833,10.27005 -13.75834,10.27005 -14.11111,10.69689 -14.11111,10.69688 -0.87392,0.8418 -0.87393,0.8418 h 0.28567 0.28566 z m -271.780461,-0.67929 1.392634,-5.45546 1.648945,-4.9331 1.648946,-4.93309 2.13738,-5.29746 2.137381,-5.29746 2.744179,-5.64445 2.744179,-5.64444 2.542098,-4.40972 2.542098,-4.40973 3.967242,-5.997218 3.967242,-5.997222 3.723552,-4.938889 3.723552,-4.938889 3.355773,-4.056944 3.355772,-4.056944 -0.395039,-0.139827 -0.395039,-0.139827 -6.018715,6.137182 -6.018714,6.137181 -2.698807,3.351257 -2.698807,3.351256 -2.769248,3.884979 -2.769249,3.884979 -3.175,3.640736 -3.175,3.64074 -2.645833,3.46536 -2.645833,3.46536 -5.044089,5.37249 -5.044089,5.3725 -2.938788,3.66826 -2.9387888,3.66827 -0.8270989,1.5591 -0.8270988,1.55909 2.0080405,3.98546 2.00804,3.98545 2.316067,5.1074 2.316067,5.10739 0.545307,0.83224 0.545307,0.83225 0.131401,-0.13141 0.131401,-0.1314 z m -24.6503111,-2.41185 -0.00795,-0.92694 -2.8484253,-1.87674 -2.8484256,-1.87673 -0.191435,0.19144 -0.191435,0.19143 0.883841,1.15613 0.8838418,1.15613 1.6757606,1.86129 1.6757605,1.86128 0.4882038,-0.40517 0.4882038,-0.40518 z m 34.9560511,-12.03944 3.241791,-5.82084 3.041857,-4.88643 3.041856,-4.88644 4.470869,-5.97055 4.47087,-5.97055 1.863974,-2.19579 1.863975,-2.19579 3.186658,-3.527781 3.186658,-3.527778 8.330119,-8.819444 8.330118,-8.819445 4.539078,-4.383273 4.539078,-4.383273 6.387278,-5.670894 6.387278,-5.670893 6.041944,-5.115278 6.04194,-5.115277 0.0169,-0.276932 0.0169,-0.276931 -3.26319,1.730187 -3.2632,1.730188 -8.819441,4.502576 -8.819444,4.502576 -5.558825,2.98564 -5.558825,2.98564 -4.74502,5.18507 -4.745021,5.185069 -3.213386,3.859998 -3.213386,3.859998 -3.994166,5.296793 -3.994165,5.296794 -3.077719,4.586111 -3.077718,4.586109 -2.625371,4.40972 -2.625371,4.40973 -2.766412,5.46805 -2.766412,5.46806 -1.660571,3.88055 -1.660571,3.88056 -1.522532,4.05694 -1.522533,4.05695 -0.250294,1.05833 -0.250293,1.05833 0.376482,-0.35277 0.376482,-0.35278 z m -28.4676792,-18.43264 0.2127168,-0.79375 0.00482,-2.55764 0.00482,-2.55764 H -0.11432107 -1.7128929 l -0.1765066,0.45997 -0.1765066,0.45997 0.9316272,2.09767 0.93162715,2.09767 0.30555304,0.79375 0.30555305,0.79375 H 0.7288187 1.0491831 Z m 372.6770102,-6.32248 10.13283,-4.94596 5.11528,-2.39347 5.11527,-2.393464 2.31522,-1.048373 2.31521,-1.048373 4.91673,-4.231059 4.91673,-4.231058 0.67204,-0.759897 0.67204,-0.759897 h -0.33527 -0.33526 l -6.15761,3.458038 -6.1576,3.458038 -8.11389,4.546328 -8.11389,4.546327 -8.11389,4.74949 -8.11389,4.74948 -1.23472,0.85946 -1.23472,0.85946 0.80327,-0.23455 0.80328,-0.23455 z m -394.694342,-13.811939 -1.149201,-3.942667 -1.669298,-2.47974 -1.669297,-2.479739 -0.621869,-0.516105 -0.621869,-0.516106 0.271918,0.879178 0.271919,0.879178 1.939472,4.409722 1.939473,4.409723 1.068972,2.116666 1.068973,2.116667 0.160004,-0.467055 0.160005,-0.467055 z m -4.714289,-22.048739 -0.551581,-4.118928 -0.516646,-5.115278 -0.516646,-5.115278 -0.417711,-7.850186 -0.417712,-7.850186 0.195517,-10.31787 0.195516,-10.317869 0.572945,-5.115278 0.572944,-5.115278 0.693083,-4.7624997 0.693082,-4.7625 1.06763,-5.5749416 1.067631,-5.5749417 1.20051,-5.008392 1.20051,-5.008391 1.617735,-5.644445 1.617734,-5.644444 0.191266,-0.617361 0.191267,-0.617361 h -0.5349 -0.534899 l -4.27985,4.674305 -4.27985,4.674306 -1.54104,2.039503 -1.54104,2.039504 -0.899939,2.950438 -0.899939,2.950438 -1.588403,6.5851954 -1.588403,6.58519532 -0.690583,3.94708518 -0.690583,3.9470852 -0.623813,5.1152779 -0.623814,5.115278 -0.0076,14.640277 -0.0076,14.640278 0.83799,4.409722 0.83799,4.409723 1.559446,5.644444 1.559446,5.644445 0.424786,0.579231 0.424787,0.57923 3.174999,4.359658 3.175,4.359658 0.116165,-0.81996 0.116166,-0.81996 z m 432.824791,-19.238861 13.40556,-9.844822 7.40833,-5.71447 7.40833,-5.71447 5.82084,-4.002941 5.82083,-4.002941 5.82083,-4.288004 5.82084,-4.288004 1.57025,-1.030778 1.57024,-1.030778 0.0584,-2.202957 0.0584,-2.202958 h -0.30894 -0.30893 l -3.43633,1.4471352 -3.43634,1.4471358 -1.76389,0.8183 -1.76388,0.8183 -4.58612,4.127605 -4.58611,4.127605 -7.40833,6.374202 -7.40833,6.374202 -2.99861,2.678345 -2.99862,2.678346 -7.49146,6.407182 -7.49147,6.407181 -8.47173,6.752224 -8.47172,6.752224 v 0.16422 0.16422 l 2.38125,-1.685241 2.38125,-1.685241 z m 62.50612,-44.9369642 3.37648,-2.3847699 1.25621,-0.8840833 1.2562,-0.8840833 0.62356,-2.46730562 0.62357,-2.46730558 0.61894,-4.3062824 0.61895,-4.3062827 -0.23942,-0.239421 -0.23942,-0.239421 -0.83892,0.549679 -0.83892,0.5496796 -1.3381,1.2619965 -1.33811,1.2619964 h -0.58245 -0.58245 l -2.65455,1.676241 -2.65455,1.6762409 -3.50463,2.7017037 -3.50462,2.7017036 -1.91961,1.9633276 -1.91961,1.9633276 0.24835,0.248343 0.24834,0.248343 1.31849,-0.6388276 1.31848,-0.6388275 6.60293,-2.2166412 6.60294,-2.21664113 0.73467,0.19212052 0.73467,0.19212051 -0.10566,1.6021761 -0.10566,1.6021762 -3.71215,1.2625291 -3.71214,1.2625291 -0.43299,0.2854032 -0.433,0.2854032 v 1.6044234 1.6044232 l 0.54885,-0.210612 0.54885,-0.2106123 z m 2.2286,-19.1877158 1.23472,-0.748919 1.33749,-1.054834 1.33749,-1.054834 1.04376,0.208752 1.04376,0.208753 -0.0203,-1.843264 -0.0203,-1.843264 -0.24552,-1.382138 -0.24553,-1.382138 -0.41612,-0.138705 -0.41611,-0.138705 -2.1436,3.108343 -2.1436,3.108343 -1.22282,1.5875 -1.22281,1.5875 -0.009,0.264584 -0.009,0.264583 0.44097,-0.0013 0.44097,-0.0013 z m -159.73202,262.517149 -9.27231,-1.67456 -0.22917,-0.22917 -0.22918,-0.22918 0.32926,-0.29772 0.32926,-0.29772 1.81805,-1.00122 1.81804,-1.00123 8.23612,1.69242 8.23612,1.69242 0.26459,0.16239 0.26458,0.1624 v 0.83227 0.83227 l -0.21413,0.55802 -0.21413,0.55802 -0.9324,-0.0424 -0.9324,-0.0424 z"
       id="path16" /></g></svg>
