<?xml version="1.0" encoding="UTF-8" standalone="no"?>
<!-- Created with Inkscape (http://www.inkscape.org/) -->

<svg
   width="277.5159mm"
   height="287.76065mm"
   viewBox="0 0 277.5159 287.76065"
   version="1.1"
   id="svg1"
   xml:space="preserve"
   inkscape:version="1.3.2 (091e20e, 2023-11-25, custom)"
   sodipodi:docname="SYSTEM.svg"
   xmlns:inkscape="http://www.inkscape.org/namespaces/inkscape"
   xmlns:sodipodi="http://sodipodi.sourceforge.net/DTD/sodipodi-0.dtd"
   xmlns="http://www.w3.org/2000/svg"
   xmlns:svg="http://www.w3.org/2000/svg"><sodipodi:namedview
     id="namedview1"
     pagecolor="#505050"
     bordercolor="#ffffff"
     borderopacity="1"
     inkscape:showpageshadow="0"
     inkscape:pageopacity="0"
     inkscape:pagecheckerboard="1"
     inkscape:deskcolor="#d1d1d1"
     inkscape:document-units="mm"
     inkscape:zoom="0.49260384"
     inkscape:cx="618.14379"
     inkscape:cy="590.7384"
     inkscape:window-width="1920"
     inkscape:window-height="1017"
     inkscape:window-x="1912"
     inkscape:window-y="-8"
     inkscape:window-maximized="1"
     inkscape:current-layer="layer1" /><defs
     id="defs1" /><g
     inkscape:label="Layer 1"
     inkscape:groupmode="layer"
     id="layer1"
     transform="translate(7.1424655,-9.5430116)"><path
       style="fill:#000000;stroke:#fffff;stroke-width:0.264583;stroke-dasharray:none;stroke-opacity:1;fill-opacity:1"
       d="m 121.8944,297.16818 c -2.74858,-0.21152 -4.96813,-0.6999 -5.26922,-1.15943 -0.13514,-0.20626 1.43216,-10.91929 1.74921,-11.95644 0.32601,-1.06642 0.22225,-2.07733 -0.36603,-3.56636 -0.642,-1.625 -3.15097,-5.95939 -4.46007,-7.70502 -1.25263,-1.67033 -4.29545,-5.2052 -5.79338,-6.7302 -0.52689,-0.53642 -1.46535,-1.63364 -2.08547,-2.43826 -0.62012,-0.80463 -2.3681,-2.96249 -3.8844,-4.79525 -1.5163,-1.83276 -3.13687,-3.84561 -3.601262,-4.473 -0.464393,-0.62739 -0.959749,-1.23648 -1.100791,-1.35353 -0.141043,-0.11706 -0.49819,-0.59123 -0.793659,-1.05373 -0.29547,-0.46249 -1.268696,-1.57303 -2.162725,-2.46787 -2.419755,-2.42194 -4.295991,-4.54695 -5.362273,-6.07327 -0.645697,-0.92427 -1.119202,-1.4312 -1.476156,-1.58034 -0.28904,-0.12077 -2.635749,-0.95924 -5.214908,-1.86327 -2.57916,-0.90402 -6.664372,-2.33943 -9.07825,-3.18979 -8.140785,-2.86784 -9.547699,-3.31038 -12.325589,-3.87698 -3.059025,-0.62393 -5.285288,-1.16905 -7.099216,-1.73828 -1.325689,-0.41602 -1.56915,-0.7445 -1.094366,-1.47654 0.313472,-0.48333 0.200858,-0.71051 -0.460364,-0.92874 -0.307136,-0.10136 -0.558429,-0.29315 -0.558429,-0.4262 0,-0.19712 0.246071,-0.8011 0.406575,-0.99792 0.02059,-0.0252 0.943317,0.29249 2.050503,0.70608 1.107186,0.4136 2.890839,1.06679 3.963674,1.45153 1.072834,0.38474 2.757136,1.06565 3.742892,1.51313 0.985756,0.44748 2.887599,1.14806 4.226317,1.55683 1.338719,0.40878 6.266678,2.02289 10.95102,3.58691 4.684343,1.56402 8.579463,2.80506 8.655823,2.75787 0.28184,-0.17419 0.10431,-0.37404 -1.494912,-1.6829 l -1.63375,-1.33711 -1.657902,0.0544 -1.657901,0.0544 v -0.6502 c 0,-0.61156 0.03068,-0.65318 0.516184,-0.70024 1.058266,-0.10257 1.005627,-0.40583 -0.313919,-1.80852 -3.692207,-3.92484 -5.781571,-8.1824 -6.081774,-12.39301 -0.05529,-0.77554 -0.144831,-1.4799 -0.198974,-1.56525 -0.05414,-0.0853 -1.744268,-0.97753 -3.755833,-1.98262 -2.011564,-1.00509 -4.49859,-2.28554 -5.526723,-2.84543 -1.028133,-0.55989 -2.929975,-1.49503 -4.226317,-2.07809 -1.296342,-0.58306 -4.196143,-1.93569 -6.444002,-3.00584 -2.761339,-1.3146 -4.474918,-2.03237 -5.282897,-2.21286 -0.657734,-0.14693 -1.632781,-0.50967 -2.166772,-0.80609 -0.818758,-0.4545 -0.989259,-0.62735 -1.08811,-1.10312 -0.175604,-0.84519 -1.262528,-2.52633 -2.402544,-3.716 -1.181571,-1.23305 -1.53249,-1.82994 -1.420437,-2.41611 0.113247,-0.59241 -1.245098,-1.97361 -1.937865,-1.97048 -2.815374,0.0128 -12.638581,0.72867 -16.481477,1.20117 -2.547982,0.31329 -6.424815,0.75866 -8.615185,0.98972 -3.134437,0.33064 -4.9343906,0.62483 -8.4526354,1.3815 -7.0380613,1.51369 -7.9128323,1.6819 -8.1911713,1.57509 -0.3618115,-0.13884 -0.3450579,-1.03043 0.023,-1.22402 0.156455,-0.0823 1.6742719,-0.569 3.37292639,-1.08158 C 8.0060043,197.25204 8.74508,197.0711 14.613911,196.071 c 3.143078,-0.5356 7.177643,-1.23064 8.965701,-1.54452 3.223993,-0.56595 4.069373,-0.67608 8.777736,-1.1435 1.341043,-0.13312 2.529695,-0.27502 2.641449,-0.31531 0.340713,-0.12286 0.222452,-0.45634 -0.42918,-1.21024 l -0.622667,-0.72039 -1.363728,0.19501 c -0.750051,0.10725 -3.181948,0.44827 -5.404215,0.75782 -4.255536,0.59278 -11.014733,2.0172 -19.7588819,4.16393 -2.5401139,0.62361 -4.716261,1.09628 -4.8358824,1.05038 -0.124293,-0.0477 -0.2174935,-0.32723 -0.2174935,-0.65232 V 196.083 l 2.5601731,-0.81071 c 2.992182,-0.94751 7.2279277,-2.16437 12.5055937,-3.59267 2.072673,-0.56092 3.862676,-1.07807 3.977784,-1.14921 0.461107,-0.28498 -0.130462,-0.36378 -2.261707,-0.30129 -1.228457,0.036 -3.038184,0.0672 -4.021616,0.0693 l -1.788057,0.004 0.0259,-0.54606 c 0.01425,-0.30034 0.08739,-0.60508 0.162551,-0.6772 0.07516,-0.0721 1.892197,-0.28303 4.037866,-0.46868 2.887105,-0.24979 3.943471,-0.39757 4.063767,-0.56848 0.0894,-0.12703 0.236725,-0.35429 0.327383,-0.50503 0.153832,-0.25578 0.281621,-0.25672 1.914891,-0.0141 2.839233,0.42181 6.129085,0.30444 6.129085,-0.21865 0,-0.41299 -6.548924,-6.78983 -8.127533,-7.91397 -0.759925,-0.54114 -2.82635,-1.83877 -4.592057,-2.88361 -2.721753,-1.61057 -3.210375,-1.95782 -3.210375,-2.28152 0,-0.80399 0.354651,-0.81826 2.027778,-0.0816 2.040811,0.89856 2.236142,0.73797 0.933691,-0.76762 -0.941615,-1.08848 -1.009767,-1.13224 -2.704059,-1.7364 l -1.738099,-0.61977 -0.732282,0.35449 c -0.402755,0.19497 -1.101271,0.64616 -1.552257,1.00265 -0.7311556,0.57794 -0.8096163,0.69995 -0.7243371,1.12634 0.4459201,2.2296 5.3250071,5.64063 11.8856201,8.30938 1.927442,0.78406 2.117687,0.89855 2.164683,1.30271 0.03284,0.2824 -0.03784,0.47739 -0.194893,0.53766 -0.262794,0.10084 -4.008747,-1.21205 -6.172056,-2.16321 -3.246428,-1.42737 -6.823303,-3.75475 -8.0226105,-5.22012 -0.8200167,-1.00193 -1.1855538,-2.12472 -1.1855538,-3.64155 0,-1.16716 0.2094575,-1.77344 0.7961116,-2.30435 0.4159137,-0.3764 0.441479,-0.84459 0.057279,-1.04899 -0.371378,-0.19759 -2.9252603,-0.74576 -5.0797085,-1.09033 -1.9118106,-0.30577 -4.4134049,-0.23993 -6.0920354,0.16032 -0.8007674,0.19093 -1.0728093,0.35027 -1.5465562,0.90585 -0.876654,1.02807 -1.1272659,0.44627 -0.4140432,-0.96121 0.5553847,-1.096 0.7248133,-1.22913 2.1575668,-1.69526 3.0768598,-1.00103 4.8281395,-1.09164 9.6587607,-0.49973 1.5322284,0.18775 2.2449521,0.37302 3.7283555,0.96919 1.008698,0.40539 1.93007,0.7002 2.047494,0.65514 0.513536,-0.19706 0.161203,-0.82781 -1.353844,-2.42367 -0.862038,-0.90802 -2.3887344,-2.67956 -3.392658,-3.93675 -2.0900073,-2.61727 -1.6975189,-2.40933 -5.5245182,-2.92691 -1.8062304,-0.24429 -2.15514309,-0.24383 -4.7139695,0.006 -1.5198488,0.14851 -3.3851177,0.24694 -4.1450421,0.21873 l -1.3816807,-0.0513 v -0.56893 -0.56893 l 1.6255067,-0.20765 c 0.8940287,-0.11421 2.7223855,-0.39853 4.0630151,-0.63181 2.01382881,-0.35044 2.740884,-0.40816 4.1828858,-0.33208 1.653828,0.0872 1.7605005,0.0735 2.0336976,-0.26222 0.7179278,-0.8822 0.8233232,-0.88731 1.5681624,-0.0761 0.6226832,0.67818 0.7748537,0.75782 1.6525429,0.86484 0.5316883,0.0648 1.9766272,0.36449 3.210976,0.6659 1.234348,0.30142 2.306295,0.54803 2.382105,0.54803 0.224929,0 1.167359,-1.79088 1.112974,-2.11496 -0.06478,-0.38604 -2.073961,-2.04794 -4.619614,-3.82114 -1.10757,-0.77149 -2.0121372,-1.48873 -2.0101492,-1.59388 0.00199,-0.10515 0.1322182,-0.35829 0.2894007,-0.56253 l 0.2857863,-0.37136 2.3520482,1.40128 c 1.293626,0.77071 2.663386,1.65629 3.043912,1.96795 0.870752,0.71318 1.216906,0.66516 1.369529,-0.19 0.418155,-2.34297 0.837808,-10.20665 0.572252,-10.72317 -0.09096,-0.17693 -0.4481,-0.67935 -0.793649,-1.1165 l -0.628271,-0.79482 0.289656,-0.49596 c 0.159311,-0.27278 0.384992,-0.52774 0.501514,-0.56658 0.116521,-0.0388 0.674966,0.39417 1.240987,0.96225 l 1.02913,1.03288 0.119298,2.9086 c 0.06561,1.59973 0.07372,3.86731 0.01801,5.03907 -0.05571,1.17176 -0.147989,3.1244 -0.205072,4.33921 l -0.103786,2.20874 1.176261,0.92036 c 1.185018,0.92721 1.572661,1.07591 1.914276,0.73429 0.139725,-0.13972 0.623539,0.0964 1.942481,0.94815 0.966026,0.62382 2.427238,1.55458 3.247137,2.06837 0.819899,0.51378 2.301133,1.62858 3.291632,2.47734 1.025128,0.87842 1.915306,1.52054 2.066475,1.49062 0.198234,-0.0392 0.399974,-0.63064 0.795679,-2.33255 0.291562,-1.254 0.639618,-2.64875 0.773459,-3.09944 0.293832,-0.98944 0.287713,-1.0028 -1.258743,-2.7481 -1.329277,-1.5002 -5.012136,-6.09311 -6.750884,-8.41905 -0.921487,-1.23268 -1.495042,-1.81211 -2.541643,-2.56766 -0.743386,-0.53666 -1.393458,-1.04346 -1.444606,-1.12621 -0.05115,-0.0828 0.02704,-0.33367 0.173753,-0.55759 0.265192,-0.40473 0.251604,-0.42729 -2.327682,-3.86517 -3.643778,-4.85671 -8.6539003,-12.50939 -8.6539003,-13.21835 0,-0.2544 0.6311273,-0.58274 0.8601943,-0.44751 0.07079,0.0418 0.823552,1.13914 1.672794,2.43855 3.004456,4.59705 4.844382,7.05256 10.823362,14.44449 0.655565,0.81049 1.525168,1.9077 1.932453,2.43826 0.5748,0.74877 1.284141,1.33302 3.169738,2.61074 2.997719,2.03132 5.593833,3.6368 5.880821,3.6368 0.558176,0 0.322328,-0.61051 -1.051664,-2.7223 -6.212796,-9.54895 -10.667919,-18.7938 -13.532348,-28.08105 l -0.952561,-3.08846 -2.045628,-1.95752 c -1.5981,-1.52926 -2.002688,-2.00046 -1.849349,-2.1538 0.331515,-0.33151 0.615406,-0.22706 1.67549,0.61648 1.486327,1.1827 1.69421,1.09826 1.245804,-0.50608 -0.159587,-0.57098 -0.561261,-1.73306 -0.892607,-2.58238 -0.523937,-1.34299 -0.776859,-1.73939 -1.940778,-3.04173 -0.736082,-0.82362 -1.761939,-1.84083 -2.279682,-2.26048 l -0.941351,-0.76299 -1.578184,0.20366 c -1.9455994,0.25108 -3.2036917,0.19167 -3.2036917,-0.15128 0,-0.16539 0.2578778,-0.2826 0.8127533,-0.3694 0.4470144,-0.0699 1.5910263,-0.27868 2.5422494,-0.46389 1.433291,-0.27908 1.795204,-0.30178 2.113158,-0.13259 0.744029,0.39593 2.183994,1.52411 3.245601,2.54287 0.822525,0.78933 1.112822,0.98201 1.240259,0.82321 0.100729,-0.12552 0.200888,-2.16356 0.253838,-5.16512 0.0872,-4.943327 0.271976,-7.187835 0.936706,-11.378549 0.31619,-1.993382 1.838522,-8.331763 2.337602,-9.73284 0.139351,-0.391203 0.253365,-0.894893 0.253365,-1.119312 0,-0.396024 -0.02273,-0.40434 -0.772115,-0.282539 -1.561756,0.253838 -1.741886,0.21936 -1.796726,-0.343909 -0.04886,-0.501848 -0.0371,-0.510209 1.300405,-0.924262 0.742342,-0.229809 1.549295,-0.466624 1.79323,-0.526257 0.291474,-0.07126 1.104435,-0.842449 2.371425,-2.249587 2.190626,-2.432943 5.027401,-5.128379 5.696823,-5.412985 0.372726,-0.158465 0.526723,-0.422575 0.890891,-1.52791 2.117216,-6.426243 5.354358,-13.339328 9.560965,-20.417943 1.240065,-2.086703 1.471547,-2.651545 1.08665,-2.651545 -0.211352,0 -1.368974,1.154546 -2.852214,2.844637 l -0.998592,1.137855 -0.459852,-0.274221 c -0.252918,-0.150821 -0.459851,-0.377986 -0.459851,-0.50481 0,-0.126824 0.686036,-1.017454 1.524524,-1.979177 1.196037,-1.37182 2.041165,-2.133093 3.922268,-3.533092 l 2.397744,-1.784504 1.424939,-2.117237 c 2.592852,-3.852571 6.403616,-8.505755 11.969036,-14.614948 3.645348,-4.00152 4.075714,-4.441308 8.101885,-8.279257 5.588234,-5.326986 7.457034,-7.0132273 7.644264,-6.8975128 0.252261,0.1559058 0.490669,0.8454488 0.386326,1.1173628 -0.0483,0.125876 -1.417773,1.490493 -3.043265,3.032483 -3.675643,3.486822 -4.999135,4.927905 -4.596932,5.005362 0.294029,0.05663 4.401515,-2.643372 6.956812,-4.57296 0.777758,-0.58731 2.021271,-1.426543 2.763362,-1.864962 0.74209,-0.438419 1.965687,-1.183534 2.719103,-1.655812 1.283297,-0.8044343 1.383432,-0.8401087 1.584869,-0.564628 0.118262,0.161733 0.215022,0.4544 0.215022,0.650371 0,0.372818 0.06102,0.329887 -3.576115,2.515914 -0.93873,0.564205 -2.255391,1.438329 -2.925912,1.942497 -0.670522,0.504169 -2.974677,2.11194 -5.120346,3.572825 -5.550683,3.7792 -5.335343,3.604041 -9.279251,7.547816 -3.54008,3.539962 -5.386588,5.764858 -8.087707,9.745045 -1.327382,1.955941 -0.932419,1.911252 1.436992,-0.162593 1.992364,-1.743832 6.831563,-5.745857 9.506544,-7.861927 0.960641,-0.759925 2.535634,-2.066572 3.499984,-2.903662 0.964351,-0.837089 2.930979,-2.302924 4.370285,-3.25741 1.439305,-0.954486 3.080114,-2.061547 3.64624,-2.460134 0.993505,-0.699488 1.037339,-0.713739 1.259768,-0.409549 0.622661,0.851539 0.315596,1.146358 -4.402247,4.226689 -1.341043,0.875581 -3.389182,2.407963 -4.551419,3.405293 -1.162237,0.99733 -2.661767,2.245824 -3.332289,2.774431 -5.956547,4.69586 -11.976642,9.893266 -14.037214,12.118931 -1.041432,1.12487 -3.659544,4.590434 -5.114638,6.770184 -2.537779,3.801628 -6.839283,13.538565 -9.626027,21.789596 -2.360531,6.989095 -3.977459,14.859184 -4.701697,22.884627 -0.319151,3.536571 -0.514536,8.362665 -0.350437,8.655885 0.143,0.25552 0.174664,0.24313 0.311799,-0.12197 0.08395,-0.22351 0.350187,-1.3573 0.59164,-2.51954 0.543659,-2.616912 0.953317,-4.091 2.374143,-8.542977 1.095156,-3.431532 2.432281,-6.996611 2.782381,-7.418455 0.09693,-0.116798 0.350156,-0.21236 0.562716,-0.21236 0.527408,0 0.501547,0.318455 -0.166976,2.056209 -0.621015,1.614262 -1.379833,4.041142 -2.355759,7.534281 -1.226491,4.389986 -1.803391,7.220943 -2.153126,10.565792 -0.269443,2.57694 -0.280265,11.40573 -0.01733,14.14191 0.107388,1.11754 0.27117,2.94623 0.363959,4.06377 0.386018,4.64914 0.798443,6.88348 1.830263,9.91559 0.532414,1.56455 1.125141,3.1738 1.317171,3.57611 l 0.349146,0.73148 1.544232,-0.0507 c 0.909387,-0.0299 1.623528,-0.13012 1.737119,-0.24382 0.107035,-0.10714 0.266997,-1.09745 0.359392,-2.22496 0.197685,-2.41239 0.634113,-4.3076 0.991951,-4.3076 0.202758,0 0.231008,0.21904 0.167725,1.30041 -0.04186,0.71522 -0.05537,2.25133 -0.03004,3.41356 0.123735,5.67654 0.05349,8.94545 -0.214445,9.97944 -0.146609,0.56579 -0.236358,1.0589 -0.199442,1.09582 0.215614,0.21561 0.663361,-0.32884 1.725867,-2.09861 1.615663,-2.69114 5.641383,-8.71395 6.760656,-10.1145 1.748291,-2.18764 4.579732,-5.19529 8.332268,-8.85082 l 3.782361,-3.68459 0.482822,-1.80207 c 0.265551,-0.99115 0.752968,-2.55421 1.083149,-3.47347 0.588211,-1.63766 0.630075,-1.70066 2.074293,-3.12184 1.980008,-1.94841 4.188034,-3.85293 6.350486,-5.47757 2.150638,-1.61575 9.831476,-6.756854 10.332246,-6.915793 0.423499,-0.134413 0.661823,0.151609 0.600757,0.720992 -0.04232,0.39461 -0.499667,0.752401 -6.261234,4.898231 -3.416269,2.45824 -5.96534,4.60185 -8.582687,7.21752 l -2.610512,2.60883 -0.437313,1.49499 c -0.670793,2.29316 -0.607956,2.41734 0.850672,1.68102 1.010059,-0.50987 2.537836,-1.75234 4.84449,-3.93977 0.735476,-0.69747 1.446576,-1.26812 1.580221,-1.26812 0.137845,0 0.301914,0.2286 0.37916,0.52829 0.164439,0.63797 0.62437,0.75959 1.285833,0.34001 0.251145,-0.15931 2.053689,-1.84505 4.005654,-3.7461 3.513083,-3.42144 6.106643,-5.63035 10.674157,-9.09108 1.296341,-0.982218 3.34448,-2.558556 4.551418,-3.502974 2.972378,-2.325858 5.310511,-3.98728 8.300064,-5.89783 1.380252,-0.882087 3.899362,-2.496752 5.598022,-3.588144 4.35729,-2.799575 4.99244,-3.175807 8.28486,-4.907559 7.96942,-4.191773 8.24229,-4.324774 8.39099,-4.089951 0.42756,0.675175 0.77206,0.457569 -9.07908,5.734763 -2.23808,1.198922 -3.1667,1.773985 -9.87248,6.113691 -6.088633,3.940311 -6.953572,4.559632 -14.075034,10.078134 -6.444533,4.99394 -11.201598,9.0543 -11.201598,9.56104 0,0.1056 0.140087,0.192 0.311304,0.192 0.418051,0 6.445864,-3.0065 8.786918,-4.38266 3.442037,-2.02337 10.243092,-5.771117 12.841605,-7.076424 0.66804,-0.335575 2.643025,-1.650505 4.388865,-2.922067 1.74584,-1.271563 4.82008,-3.455746 6.83164,-4.853742 2.01157,-1.397995 4.64489,-3.264945 5.85183,-4.148777 1.20694,-0.883832 2.49092,-1.756898 2.8533,-1.940145 0.36238,-0.183248 2.44424,-1.549535 4.62635,-3.036194 4.41952,-3.010984 9.60216,-6.273137 16.65912,-10.485891 2.59269,-1.547739 7.34642,-4.389307 10.56386,-6.314597 3.21744,-1.925289 7.78918,-4.574906 10.15942,-5.888037 2.37024,-1.313132 5.59488,-3.118197 7.16587,-4.011256 6.63691,-3.77288 11.15932,-5.985184 12.90406,-6.3125 0.51742,-0.09707 0.58662,-0.06493 0.74238,0.344753 0.26753,0.703643 0.13847,0.913614 -0.71426,1.162038 l -0.79165,0.23063 0.10294,0.776051 0.10295,0.776051 -1.34318,0.36658 c -4.27559,1.166889 -12.23813,4.874202 -17.7608,8.269327 -0.80463,0.494653 -4.24257,2.579449 -7.63988,4.63288 -6.44405,3.894969 -17.57791,11.14863 -17.7331,11.553029 -0.0941,0.245209 0.30306,1.146113 0.58098,1.317873 0.089,0.05501 0.98559,-0.348234 1.9924,-0.896098 1.00681,-0.547865 2.96435,-1.474933 4.3501,-2.060153 1.38574,-0.585219 3.6899,-1.592715 5.12035,-2.23888 1.43044,-0.646165 3.55173,-1.488497 4.71396,-1.871849 1.16224,-0.383352 2.84464,-0.987759 3.73867,-1.343126 0.89403,-0.355367 1.90014,-0.744494 2.2358,-0.864725 l 0.61029,-0.218603 0.2431,0.581824 c 0.1337,0.320003 0.2431,0.604046 0.2431,0.631208 0,0.08279 -3.32754,1.345214 -6.42075,2.435941 -1.60925,0.567454 -3.91341,1.481867 -5.12035,2.032028 -1.20694,0.550161 -3.32822,1.477488 -4.71397,2.060727 -1.38574,0.583239 -3.65332,1.682975 -5.03907,2.443858 -1.38574,0.760884 -4.05564,2.223599 -5.9331,3.250479 -1.87746,1.026879 -5.608,3.187986 -8.29008,4.802459 -6.89348,4.149505 -6.88684,4.14504 -6.67413,4.489217 0.14143,0.228829 1.56052,-0.201453 5.04803,-1.530602 1.75673,-0.669523 3.2562,-1.217316 3.33214,-1.217316 0.20697,0 0.5453,1.146833 0.38402,1.301736 -0.52918,0.508282 -6.50821,2.866809 -10.97145,4.327864 -4.91526,1.609029 -5.19924,1.724271 -6.42075,2.605622 -0.70292,0.507174 -2.13693,1.529523 -3.1867,2.271886 -6.980461,4.936351 -13.681283,10.213981 -18.410164,14.500011 -3.534488,3.20349 -15.209568,14.83756 -17.561571,17.49988 -4.330856,4.90227 -6.829662,8.22089 -10.342366,13.73554 -3.354829,5.26679 -4.947261,8.42292 -6.643231,13.1666 -1.256426,3.51426 -2.866078,9.9185 -2.644808,10.52275 0.05778,0.15778 0.387788,0.70747 0.733358,1.22154 0.60053,0.89334 1.003028,1.15585 1.140393,0.74375 0.04168,-0.12503 2.220094,-0.42916 6.312385,-0.88128 6.053557,-0.66881 8.001343,-0.90821 14.53883,-1.78702 4.519062,-0.60747 5.028379,-0.72304 5.089834,-1.15491 0.08153,-0.57293 -0.860378,-1.04896 -4.764733,-2.40802 -1.966863,-0.68465 -3.832132,-1.33901 -4.145042,-1.45415 -0.51808,-0.19063 -0.567124,-0.2637 -0.548755,-0.81761 0.01109,-0.33455 0.109739,-0.66363 0.219208,-0.73129 0.10947,-0.0677 0.868444,0.0491 1.68661,0.25953 0.818166,0.21039 2.804234,0.68066 4.413486,1.04504 1.609252,0.36438 3.166114,0.78619 3.459694,0.93736 0.29358,0.15117 1.304251,0.81289 2.245936,1.47047 l 1.712153,1.19561 1.635244,0.2137 c 0.899384,0.11754 1.733556,0.17598 1.853715,0.12987 0.120159,-0.0461 0.705015,-0.7373 1.299681,-1.53597 0.594666,-0.79867 1.639161,-1.96909 2.321101,-2.60092 1.422374,-1.31785 6.790796,-5.67341 9.230686,-7.48911 0.908225,-0.67588 2.077886,-1.73147 2.599236,-2.34576 0.84512,-0.99576 0.9667,-1.23147 1.12109,-2.17346 0.14403,-0.87875 0.22637,-1.05658 0.48923,-1.05658 0.35836,0 0.52668,0.74264 0.54783,2.41698 0.0112,0.8895 -0.0502,1.05228 -0.9089,2.40677 -0.72112,1.1375 -1.25898,1.74174 -2.478734,2.78464 -2.541967,2.17337 -6.483359,5.7365 -8.196367,7.40973 -1.744573,1.70407 -2.689087,2.98796 -4.248995,5.77573 -1.13839,2.03445 -1.311837,2.45794 -1.068329,2.60844 0.09222,0.057 1.503291,0.0173 3.135712,-0.0882 l 2.96804,-0.19181 2.682086,0.51737 c 1.475148,0.28455 3.880068,0.8061 5.344267,1.15899 2.46633,0.59442 2.83533,0.73426 5.01588,1.90084 2.6152,1.39913 2.72632,1.50189 4.87687,4.51024 1.5357,2.14825 1.74435,2.22394 2.24059,0.81275 0.81073,-2.30556 3.28813,-6.73853 4.98187,-8.9144 3.0082,-3.86448 7.91895,-9.01526 12.48892,-13.09936 3.38114,-3.02167 11.39513,-10.9404 11.34352,-11.20869 -0.0358,-0.1863 -0.31064,-0.2962 -0.94245,-0.3769 -0.68697,-0.0877 -1.65172,0.0206 -4.19937,0.47158 -3.58103,0.63392 -3.59296,0.63295 -3.5984,-0.29342 -0.002,-0.42117 0.0153,-0.42697 3.37043,-1.09731 2.68481,-0.53642 3.72537,-0.67389 5.10045,-0.67381 1.19122,6e-5 1.77555,-0.063 1.88224,-0.2031 0.0851,-0.11175 0.23769,-0.66995 0.3391,-1.24045 0.10141,-0.57049 0.31505,-1.18193 0.47475,-1.35874 0.3893,-0.43104 3.92509,-3.16902 6.14218,-4.75628 0.98344,-0.70406 2.49761,-1.82421 3.36484,-2.48921 1.5003,-1.15046 2.08061,-1.37467 2.08061,-0.80387 0,0.21639 -2.30529,2.11416 -5.36352,4.41536 -2.04218,1.53667 -4.47835,3.48443 -5.19213,4.1512 -0.4616,0.4312 -0.51094,0.5647 -0.46637,1.26179 l 0.0498,0.77957 0.9714,0.0498 c 1.06132,0.0545 1.21681,0.17681 1.22055,0.96038 0.003,0.66995 -0.24167,0.79495 -1.85081,0.94483 l -1.28437,0.11964 -2.44243,2.53877 c -1.34334,1.39632 -4.1626,4.22117 -6.26502,6.27743 -14.54595,14.22663 -16.69285,16.68331 -19.51129,22.32656 -0.76763,1.53698 -1.75528,4.74744 -1.55845,5.0659 0.0543,0.0879 0.23893,0.15988 0.4102,0.15988 0.26475,0 13.61314,-4.54606 21.53017,-7.33253 l 2.43595,-0.85736 1.55559,-1.47241 c 0.85558,-0.80983 3.19399,-2.93538 5.19647,-4.72343 2.00249,-1.78806 3.89412,-3.4775 4.20362,-3.75431 0.89749,-0.80267 0.67345,-0.98169 -1.38831,-1.10929 -0.96817,-0.0599 -2.07119,-0.1505 -2.45115,-0.2013 -0.68367,-0.0914 -0.69084,-0.0992 -0.69084,-0.74986 v -0.6575 l 3.64905,0.10938 3.64906,0.10937 0.6179,-0.52641 c 0.33984,-0.28953 1.3128,-1.15326 2.16213,-1.91941 2.32871,-2.10064 4.47206,-3.92577 9.83431,-8.37425 2.68209,-2.22503 6.04689,-5.04272 7.47733,-6.26152 5.33501,-4.54566 9.74908,-7.98755 13.7557,-10.72607 2.26868,-1.55064 6.17302,-4.29096 8.6763,-6.08959 2.50328,-1.79863 6.59955,-4.72437 9.10283,-6.50166 8.12601,-5.76931 10.91002,-7.86366 22.02562,-16.56941 6.02648,-4.71994 13.92373,-11.708361 19.10142,-16.903181 3.15273,-3.163167 7.00587,-7.599533 8.24317,-9.490897 2.77895,-4.24795 4.35403,-6.151614 5.16555,-6.243156 0.35374,-0.0399 0.41315,0.02504 0.45873,0.501467 0.0429,0.448369 -0.0401,0.624678 -0.45917,0.975304 l -0.51152,0.427997 0.33481,1.300405 c 0.70996,2.757474 0.8497,5.646941 0.41947,8.67374 -0.13165,0.926234 -0.19914,1.749147 -0.14998,1.828695 0.18285,0.295859 0.64525,0.119939 2.18336,-0.830669 0.86795,-0.536418 1.65056,-0.975304 1.73915,-0.975304 0.24353,0 0.69911,0.559327 0.69911,0.858315 0,0.295048 -1.65672,1.422688 -3.68214,2.506227 -0.72884,0.389907 -1.39568,0.798175 -1.48186,0.907262 -0.0862,0.109087 -0.39435,0.929817 -0.68482,1.823846 -1.25435,3.860695 -4.28064,9.998979 -7.2637,14.733109 -0.65556,1.04038 -1.19193,1.93644 -1.19193,1.99124 0,0.28464 0.71848,-0.0121 2.57691,-1.06422 2.83758,-1.60648 6.52138,-3.81654 9.09208,-5.45469 2.34121,-1.49191 2.63546,-1.54285 2.63546,-0.45625 0,0.5061 -0.14391,0.62018 -3.94185,3.12464 -2.16802,1.42965 -5.53803,3.5641 -7.48892,4.74322 -3.98987,2.41149 -5.14939,3.22215 -5.14939,3.6001 0,0.143 0.21944,0.47023 0.48765,0.72719 0.26821,0.25696 0.48765,0.59383 0.48765,0.7486 0,0.88457 -0.58178,1.03937 -1.46296,0.38926 -1.14261,-0.843 -2.5645,-0.34271 -4.10833,1.44549 -0.80077,0.92753 -0.93287,1.23659 -0.52853,1.23659 0.25802,0 0.73565,0.79255 0.73565,1.22069 0,0.17607 -0.73042,0.60931 -2.23507,1.32572 -1.22929,0.58531 -2.51435,1.16467 -2.85568,1.28746 -0.34134,0.1228 -1.36541,0.8657 -2.27571,1.6509 -1.5926,1.37371 -2.78674,2.35259 -4.93532,4.04566 -0.55247,0.43535 -2.63719,2.23061 -4.63269,3.98948 -14.48919,12.77095 -28.44208,23.40736 -47.19177,35.9747 -13.17568,8.83125 -33.10606,20.38433 -50.71581,29.39852 -1.63976,0.83937 -1.88243,1.02611 -2.92591,2.25154 -1.32129,1.55166 -1.61943,1.80001 -7.55861,6.29621 -5.29656,4.00971 -6.01064,4.61827 -5.74262,4.89407 0.47642,0.49022 3.5582,1.14983 6.73654,1.44185 3.15534,0.28991 3.19826,0.29899 4.14504,0.87754 1.39613,0.85313 5.55513,2.4877 5.77366,2.26917 0.12303,-0.12304 0.0436,-0.46313 -0.2729,-1.16839 -0.24555,-0.54715 -0.41246,-1.02882 -0.37091,-1.07037 0.0416,-0.0416 1.25639,0.0328 2.69964,0.16524 1.96363,0.18018 3.00409,0.20075 4.13385,0.0817 0.83036,-0.0875 1.55388,-0.16031 1.60782,-0.16186 0.0539,-0.002 0.43175,0.499 0.83959,1.11233 1.95975,2.9472 3.11713,6.48326 3.31937,10.14148 0.0942,1.70375 0.10625,1.74742 0.48254,1.74742 0.21227,0 1.46371,-0.41016 2.78098,-0.91146 1.31727,-0.50131 4.53701,-1.67007 7.15497,-2.59724 2.61796,-0.92718 5.47072,-1.96961 6.33947,-2.31651 4.62901,-1.84843 13.83738,-5.61695 15.37599,-6.29262 3.625,-1.5919 11.52209,-5.64269 15.16679,-7.77976 2.07232,-1.21512 3.93305,-2.2093 4.13495,-2.2093 0.33969,0 3.75058,-2.0927 7.74916,-4.75439 3.72529,-2.47977 8.30141,-6.5695 12.59564,-11.25685 2.41111,-2.63184 3.07031,-4.11576 4.51312,-10.15942 0.98694,-4.13408 1.29127,-6.42529 1.30196,-9.802 l 0.008,-2.63312 0.86865,-1.70679 0.86865,-1.70678 0.0577,1.13786 c 0.0317,0.62582 0.0528,3.29571 0.0468,5.9331 -0.008,3.74355 -0.0703,5.1161 -0.28163,6.2582 -0.14891,0.80462 -0.27202,1.71202 -0.27358,2.01644 -0.003,0.55034 -9.2e-4,0.55175 0.33532,0.24745 0.39848,-0.36062 2.66536,-4.9465 3.36893,-6.81531 0.99759,-2.64979 1.30389,-8.0582 0.78115,-13.79291 l -0.2497,-2.73946 0.50768,-0.9992 0.50768,-0.99921 0.134,0.48765 c 0.0737,0.26821 0.25581,1.52519 0.40467,2.79329 0.26057,2.21968 0.41104,2.84221 0.63325,2.62 0.22383,-0.22383 0.42968,-3.91158 0.34729,-6.2214 l -0.0868,-2.43362 1.54395,-5.60967 c 0.84917,-3.08532 1.57095,-5.63668 1.60396,-5.66969 0.14623,-0.14623 1.10837,4.06181 1.61051,7.04376 1.25914,7.47737 1.37477,12.67893 0.40813,18.35993 -1.0569,6.21148 -2.91208,12.01253 -5.22702,16.34464 -0.45385,0.84933 -1.43897,2.52392 -2.18915,3.72132 -1.3324,2.12671 -1.83587,2.99853 -1.83587,3.17901 0,0.71523 5.59417,-4.91757 9.32045,-9.38482 3.89389,-4.66818 9.05898,-12.15871 13.81085,-20.02878 2.2099,-3.66005 5.95219,-8.34503 8.40353,-10.52039 0.75993,-0.67437 2.10982,-1.68439 2.99976,-2.24448 l 1.61807,-1.01835 1.63294,-0.0168 1.63294,-0.0168 v 0.48613 c 0,0.46539 -0.0381,0.49157 -0.89403,0.61383 -0.49171,0.0702 -1.13345,0.166 -1.42607,0.21279 -1.0646,0.17023 -5.88871,4.27792 -5.88871,5.01419 0,0.1779 0.46937,0.23848 2.23507,0.28848 1.87924,0.0532 2.48092,0.13781 3.77931,0.53135 0.84932,0.25744 1.63566,0.53752 1.74742,0.62241 0.22704,0.17246 0.2761,0.86303 0.0703,0.9902 -0.0731,0.0452 -0.93256,-0.10373 -1.90997,-0.33086 -1.57251,-0.36541 -1.98301,-0.40025 -3.56518,-0.30257 -2.29601,0.14176 -4.19896,0.57545 -4.74161,1.08063 -0.57504,0.53533 -2.6931,3.66889 -3.66555,5.42299 -2.23189,4.02583 -5.11975,8.86242 -7.7062,12.90632 -0.48026,0.75087 -0.87319,1.42749 -0.87319,1.50359 0,0.29906 0.86408,0.1062 2.70667,-0.60411 1.05931,-0.40836 2.24612,-0.9204 2.63734,-1.13785 0.39122,-0.21746 0.91675,-0.39538 1.16784,-0.39538 0.5136,0 1.52762,-0.76381 5.22796,-3.93793 3.72651,-3.19657 12.4428,-9.31509 15.81253,-11.09982 1.84338,-0.97633 2.43462,-1.37691 4.00456,-2.71324 1.03798,-0.88353 1.3882,-0.96501 1.54045,-0.3584 0.0911,0.36302 -0.0445,0.57275 -0.97889,1.51441 -1.04398,1.05204 -1.08115,1.11701 -0.99103,1.73241 0.14232,0.97179 -0.0783,1.17394 -0.79666,0.72998 l -0.58693,-0.36274 -1.35714,0.76177 c -2.42743,1.36254 -2.70848,1.78221 -1.44667,2.16026 0.75029,0.22479 1.32316,0.76805 1.07335,1.01786 -0.11193,0.11193 -0.40733,0.11097 -0.91584,-0.003 -0.63022,-0.14124 -1.01573,-0.10403 -2.40337,0.23197 -0.90901,0.22011 -1.81676,0.50766 -2.01723,0.63901 -1.32616,0.86894 -7.81549,6.15728 -9.72465,7.92491 -1.26787,1.17388 -3.33868,2.99879 -4.60179,4.05537 -1.26311,1.05657 -2.33974,2.03355 -2.39251,2.17106 -0.0528,0.13752 -0.61349,0.58483 -1.24606,0.99403 -1.49049,0.9642 -6.36876,4.63534 -7.31274,5.50321 -1.79734,1.65241 -9.37937,7.54683 -15.03594,11.68922 -1.43044,1.04753 -3.71949,2.80692 -5.08677,3.90974 -3.0581,2.46661 -6.50938,4.94625 -9.89727,7.11089 -1.41429,0.90364 -3.66865,2.35838 -5.00969,3.23275 -7.80519,5.08908 -15.03682,9.20105 -23.7324,13.49446 -8.19704,4.04725 -10.42219,5.08967 -14.38573,6.73931 -1.56455,0.65117 -4.60019,1.94624 -6.74586,2.87793 -2.14566,0.93169 -4.65098,2.01172 -5.56736,2.40005 -1.19922,0.5082 -1.66614,0.78489 -1.66614,0.98735 0,0.32938 1.38714,2.26765 1.62286,2.26765 0.26154,0 6.5265,-2.45966 9.51186,-3.73441 5.59756,-2.39017 12.63459,-5.55402 16.96604,-7.62794 3.69188,-1.76769 4.84069,-2.40407 6.74586,-3.73686 1.26291,-0.8835 3.17398,-2.04524 4.24682,-2.58167 1.07283,-0.53642 3.70615,-1.90893 5.85182,-3.05003 2.14567,-1.1411 5.91278,-3.11169 8.37136,-4.37909 2.45858,-1.2674 5.47177,-2.90254 6.69598,-3.63364 1.2242,-0.73109 2.42449,-1.40479 2.6673,-1.49711 0.8543,-0.3248 7.37926,-5.22049 10.10736,-7.58356 0.65102,-0.56392 1.23986,-1.02531 1.30853,-1.02531 0.23936,0 0.51497,0.3926 0.51497,0.73358 0,0.1889 -0.21568,0.55009 -0.47928,0.80263 -0.26361,0.25255 -0.50134,0.61089 -0.52829,0.7963 -0.0314,0.21609 -0.7201,0.82122 -1.91834,1.68557 -1.02814,0.74165 -3.62488,2.65421 -5.77055,4.25013 -5.86748,4.36415 -8.37189,6.05714 -14.87339,10.05448 -7.01158,4.31095 -9.19876,5.48809 -14.62956,7.87359 -1.20694,0.53016 -5.01062,2.37298 -8.45264,4.09518 -7.28466,3.64484 -15.0398,7.27953 -20.56266,9.63734 -2.14566,0.91603 -3.97187,1.77607 -4.05822,1.9112 -0.10947,0.1713 -0.0414,0.55558 0.22475,1.26911 0.7037,1.88643 0.8336,2.63289 1.01044,5.80619 0.25937,4.65413 -0.29525,12.85331 -1.01553,15.01302 -0.8051,2.41401 -3.19818,6.84493 -6.29302,11.65182 -0.94765,1.47189 -1.7166,2.78855 -1.70877,2.92592 0.008,0.13736 0.31513,1.02881 0.68289,1.98101 0.77446,2.0052 1.06409,3.0469 1.31,4.71167 1.77098,11.98936 1.97984,13.70595 1.6931,13.91562 -0.96176,0.70326 -3.89055,1.00166 -12.4083,1.26422 -8.18175,0.2522 -9.93178,0.26157 -12.46349,0.0667 z m 12.80334,-37.05428 c 1.80604,-2.28896 2.25729,-3.11855 2.26006,-4.155 9.3e-4,-0.34783 -0.92799,-1.77406 -1.88331,-2.89158 -1.60872,-1.88186 -6.48872,-5.80904 -7.85844,-6.32409 -0.32752,-0.12315 -0.92144,-0.0112 -2.77375,0.52273 -6.14571,1.77159 -6.2141,1.80477 -5.42959,2.63342 0.25949,0.27409 1.82503,1.52627 3.47899,2.78262 3.94589,2.99731 6.32218,4.98532 8.65025,7.2368 1.61903,1.56577 1.95006,1.8173 2.20917,1.67863 0.16763,-0.0897 0.77361,-0.7573 1.34662,-1.48353 z m -22.60209,-19.35648 c 1.23803,-1.36259 1.45438,-1.6773 1.27073,-1.84842 -0.12174,-0.11343 -2.20328,-1.15521 -4.62565,-2.31508 -4.37884,-2.09666 -4.41269,-2.10948 -5.85706,-2.21852 -1.11108,-0.0839 -1.52427,-0.0574 -1.75682,0.11267 -0.16723,0.12228 -0.25408,0.30321 -0.19299,0.40206 0.0611,0.0988 0.74889,0.63365 1.52843,1.18845 0.77954,0.55481 1.6368,1.21296 1.90501,1.46257 0.2682,0.2496 0.93949,0.76825 1.49173,1.15254 0.55225,0.3843 1.70648,1.37534 2.56496,2.20232 0.85848,0.82698 1.70008,1.50359 1.87023,1.50359 0.18524,0 0.90802,-0.65888 1.80143,-1.64218 z M 85.40847,226.77306 c 0.190726,-0.45893 0.346774,-0.9298 0.346774,-1.04636 0,-0.17723 -3.653353,-2.3349 -4.578587,-2.70411 -1.001599,-0.39969 0.08664,1.41307 1.992331,3.31876 0.703882,0.70388 1.405268,1.26614 1.579428,1.26614 0.22362,0 0.412528,-0.23881 0.660054,-0.83443 z m 36.75812,-0.85245 c 0,-0.39027 -0.43655,-0.60723 -1.41109,-0.70131 -1.12122,-0.10824 -1.04654,0.10906 0.20552,0.59796 0.96506,0.37684 1.20557,0.39746 1.20557,0.10335 z m -2.62014,-1.60477 c -0.0139,-0.46936 -0.0885,-0.97676 -0.16574,-1.12754 -0.20459,-0.39942 -3.59526,-3.44735 -5.01351,-4.50674 -0.66885,-0.49961 -1.99112,-1.5336 -2.93839,-2.29776 l -1.72229,-1.38938 -1.98185,-0.52695 c -1.13756,-0.30246 -2.07666,-0.4723 -2.20441,-0.39868 -0.48669,0.28048 -1.72189,1.53016 -1.72189,1.74206 0,0.12398 0.38402,0.56727 0.85339,0.9851 0.46936,0.41783 1.63973,1.61326 2.60081,2.65651 l 1.74742,1.89683 4.99844,1.89491 c 2.74913,1.0422 5.12778,1.90168 5.28588,1.90997 0.2433,0.0128 0.28356,-0.11599 0.26214,-0.83833 z m 16.34556,-2.38125 c 0.16203,-0.26217 -0.72098,-2.96971 -1.32617,-4.06638 -1.75067,-3.17242 -2.83526,-4.42446 -2.58173,-2.98031 0.0589,0.33526 0.15087,0.97531 0.20446,1.42232 0.0773,0.64518 0.33877,1.18143 1.26789,2.60081 0.64376,0.98343 1.36698,2.09894 1.60718,2.4789 0.43193,0.68326 0.65291,0.82856 0.82837,0.54466 z m -42.672808,-5.61088 c 0.680195,-0.68629 1.001055,-1.12845 0.938041,-1.29267 -0.219855,-0.57293 -2.461818,-1.90298 -7.747309,-4.59611 -4.159611,-2.11946 -5.667495,-2.81566 -5.851824,-2.70181 -0.328217,0.20272 -1.542502,3.18925 -1.423159,3.50025 0.107875,0.28112 6.850188,3.78468 9.952582,5.17173 1.162237,0.51963 2.334715,0.94859 2.605506,0.95324 0.394876,0.007 0.697016,-0.19804 1.526163,-1.03463 z m -17.014675,-8.72109 c 0.424188,-0.7538 0.77164,-1.53488 0.772116,-1.73573 6.44e-4,-0.27214 -0.251242,-0.52064 -0.988562,-0.9753 -2.015832,-1.24304 -8.439055,-5.39236 -10.957256,-7.07826 l -2.60002,-1.74067 h -1.003438 c -1.124346,0 -1.51768,0.10302 -1.51768,0.3975 0,0.35062 6.68375,6.79818 8.302055,8.00867 2.080964,1.55657 6.825617,4.62088 7.045802,4.55051 0.09665,-0.0309 0.522795,-0.67291 0.946983,-1.42672 z m 23.694091,0.37688 c 8.06e-4,-0.067 -0.236925,-0.31987 -0.52829,-0.56181 l -0.529755,-0.43989 1.461817,0.39925 c 0.80399,0.21959 1.62834,0.39926 1.83188,0.39926 0.21888,0 1.11587,-0.58494 2.19558,-1.43176 1.00402,-0.78747 3.27255,-2.50665 5.04116,-3.82041 1.76861,-1.31376 3.25861,-2.50057 3.3111,-2.63737 0.0525,-0.13679 -0.13008,-1.10578 -0.40571,-2.15332 -0.27564,-1.04754 -0.65709,-2.78235 -0.84768,-3.85514 -0.19058,-1.07279 -0.38228,-2.0084 -0.426,-2.07914 -0.0437,-0.0707 -0.21596,-0.0853 -0.38278,-0.0323 -0.49539,0.15723 -6.13879,3.33148 -10.23329,5.75593 -1.295326,0.767 -4.33096,2.38203 -6.745853,3.58897 -2.869443,1.43412 -4.40839,2.29022 -4.44173,2.4709 -0.03521,0.19084 0.19207,0.39965 0.733809,0.67417 1.902353,0.96399 9.129367,3.83093 9.679813,3.83995 0.156455,0.003 0.285123,-0.0502 0.285929,-0.11725 z m 0.161082,-0.94079 c -1.02813,-0.29878 -2.161921,-0.58957 -2.519532,-0.64621 -0.746032,-0.11817 -6.908404,-3.11161 -6.908404,-3.35583 0,-0.0889 1.554391,-0.92146 3.454202,-1.85015 1.899811,-0.9287 4.990305,-2.59392 6.867764,-3.70051 4.91949,-2.89957 9.65312,-5.50783 9.81469,-5.40797 0.0766,0.0474 0.18948,0.47178 0.25079,0.94315 0.1706,1.31175 0.72309,3.8898 1.14354,5.33598 0.35171,1.20976 0.35938,1.32071 0.11111,1.60671 -0.14667,0.16896 -1.69306,1.36325 -3.43642,2.65396 -1.74336,1.29072 -3.93226,2.94282 -4.86423,3.67134 -0.93197,0.72852 -1.77317,1.31742 -1.86934,1.30866 -0.0962,-0.009 -1.01603,-0.26036 -2.04417,-0.55913 z m -47.302243,-5.9003 c 0,-0.80525 -5.072656,-4.81582 -5.958629,-4.71106 -0.240378,0.0284 -0.464066,0.1341 -0.497085,0.23482 -0.05531,0.16871 3.084717,2.62776 5.132912,4.01974 0.842776,0.57276 1.322802,0.73842 1.322802,0.4565 z m 32.753961,-2.66736 c 1.519849,-0.71806 4.254969,-1.99089 6.078044,-2.82852 1.823076,-0.83762 5.005005,-2.46184 7.070954,-3.60937 2.065954,-1.14753 5.164364,-2.83445 6.885374,-3.74871 2.26983,-1.20581 3.1291,-1.74176 3.1291,-1.95172 0,-0.25846 -2.31175,-4.33579 -2.92591,-5.16057 -0.13411,-0.18009 -1.08503,-0.88679 -2.11316,-1.57045 -1.64219,-1.09198 -2.18536,-1.35093 -4.470146,-2.13109 -1.430446,-0.48844 -3.698027,-1.18639 -5.039071,-1.55101 l -2.43826,-0.66294 -4.226317,0.10737 c -2.324475,0.0591 -4.310317,0.15263 -4.412982,0.20794 -0.320047,0.17243 -2.028318,2.47397 -2.90992,3.92051 -2.392929,3.92634 -4.95421,10.13481 -4.946454,11.99006 0.0039,0.94347 0.27031,2.8688 0.490441,3.54497 0.09417,0.28924 0.451705,0.70409 0.850352,0.98665 0.378329,0.26816 1.776276,1.27072 3.106549,2.2279 1.865886,1.34259 2.497457,1.71683 2.763362,1.63745 0.189575,-0.0566 1.588195,-0.69041 3.108044,-1.40847 z m -4.398412,0.0749 c -0.809875,-0.42208 -2.28694,-1.37523 -3.282367,-2.11809 -2.028068,-1.51351 -2.033801,-1.52299 -2.299806,-3.8016 -0.131701,-1.12815 -0.117302,-1.59809 0.07113,-2.32154 0.60596,-2.32644 2.59247,-6.95989 4.152292,-9.68505 1.176892,-2.05614 3.016157,-4.53648 3.576329,-4.82285 0.280967,-0.14364 1.57274,-0.20147 4.538018,-0.20319 l 4.145247,-0.002 2.77974,0.79432 c 2.757906,0.78809 6.261141,1.95853 6.942971,2.31966 0.58247,0.30851 2.58557,1.62656 3.24114,2.13269 0.4044,0.31221 1.07829,1.26225 1.99676,2.81499 0.76249,1.28906 1.42494,2.4443 1.4721,2.5672 0.0598,0.15595 -0.72519,0.64607 -2.59826,1.62218 -2.7196,1.41727 -8.157654,4.38556 -9.923369,5.41654 -0.530765,0.30991 -2.066869,1.06365 -3.413564,1.67499 -1.346694,0.61133 -4.015349,1.84913 -5.930344,2.75067 -1.914994,0.90153 -3.597394,1.63685 -3.738665,1.63402 -0.141272,-0.003 -0.919482,-0.35047 -1.729357,-0.77255 z m 36.487544,-2.06829 c 2.11495,-1.4636 2.38461,-1.71574 5.08495,-4.75461 1.56835,-1.76497 3.55908,-3.96106 4.42383,-4.88019 1.43358,-1.52374 1.71111,-1.98624 1.19185,-1.98624 -0.10213,0 -1.06702,0.32429 -2.1442,0.72064 -1.07718,0.39636 -4.33581,1.57476 -7.2414,2.61868 -2.90559,1.04392 -5.37433,1.9721 -5.48608,2.06262 -0.28693,0.23242 -0.25769,0.65282 0.20303,2.91948 0.58526,2.87935 1.25977,4.82349 1.68014,4.8427 0.03,0.001 1.05951,-0.69302 2.28788,-1.54308 z m -2.50825,1.01728 c -0.70127,-1.91481 -1.54089,-5.47145 -1.54089,-6.5272 0,-0.62529 -0.78559,-0.28019 7.07095,-3.10611 2.14567,-0.77178 4.66927,-1.68457 5.608,-2.02843 0.93873,-0.34386 1.73151,-0.55692 1.76174,-0.47346 0.0302,0.0835 -0.65695,0.90046 -1.52706,1.81556 -0.87011,0.9151 -2.57724,2.78744 -3.79363,4.16077 -1.21638,1.37332 -2.43104,2.73599 -2.69925,3.02814 -0.43952,0.47875 -4.4713,3.33392 -4.70784,3.33392 -0.0537,0 -0.13109,-0.0914 -0.17202,-0.20319 z m -42.712949,-8.04747 c 0.288291,-1.09361 0.824805,-2.75732 1.192254,-3.69714 0.910493,-2.32874 3.175513,-6.84316 4.302301,-8.57493 0.509245,-0.78266 0.886753,-1.52504 0.838906,-1.64973 -0.166158,-0.433 -3.081903,-0.47372 -8.476159,-0.11837 -5.475599,0.3607 -5.280821,0.38226 -5.285406,-0.58508 -0.002,-0.4154 0.07397,-0.54064 0.36325,-0.59906 1.453038,-0.29346 9.898263,-1.08571 12.51708,-1.17423 l 3.211055,-0.10854 1.299727,-1.44308 c 0.714849,-0.79369 1.299726,-1.50496 1.299726,-1.58059 0,-0.25539 -0.415887,-0.48495 -1.194854,-0.65952 -0.612252,-0.13721 -1.311248,-0.10606 -3.325641,0.1482 -3.742793,0.47242 -14.436437,1.40571 -20.593584,1.79732 -2.950294,0.18764 -5.528754,0.37544 -5.729911,0.41733 -0.20972,0.0437 -0.365283,0.19619 -0.364671,0.35753 5.88e-4,0.15475 1.303721,1.92719 2.895851,3.93876 l 2.894782,3.65739 0.964728,0.13041 c 0.5306,0.0717 2.098519,0.43159 3.484263,0.79972 l 2.519536,0.66931 1.231902,1.23216 c 1.270917,1.27119 1.450184,1.63292 1.450184,2.92628 0,0.48313 -0.125104,0.71905 -0.656393,1.23784 -0.362596,0.35407 -0.635433,0.76505 -0.609565,0.91821 0.0601,0.35583 4.681368,4.03792 5.003636,3.98675 0.164863,-0.0262 0.411148,-0.67703 0.767003,-2.02694 z m -3.244913,-0.0485 c -1.22929,-0.97999 -2.235072,-1.86288 -2.235072,-1.96198 0,-0.0991 0.30206,-0.47332 0.671244,-0.8316 l 0.671243,-0.65142 -0.100496,-0.9615 c -0.12905,-1.23468 -0.282886,-1.50945 -1.604968,-2.86665 l -1.094455,-1.12352 -2.647925,-0.75494 c -1.456359,-0.41522 -2.985603,-0.75494 -3.398319,-0.75494 -0.484517,0 -0.863653,-0.10079 -1.070053,-0.28446 -0.337855,-0.30066 -5.054937,-6.24582 -5.422073,-6.8337 -0.118292,-0.18941 -0.176665,-0.38279 -0.12972,-0.42974 0.04695,-0.047 2.384907,-0.23378 5.195469,-0.41518 6.884291,-0.44434 16.039115,-1.24315 20.762387,-1.81164 2.656746,-0.31976 3.880574,-0.31734 4.403703,0.009 0.278108,0.17335 0.17814,0.32688 -1.21319,1.86319 l -0.988394,1.09139 -2.912822,0.0861 c -3.450014,0.10201 -12.892729,1.11194 -13.191681,1.41089 -0.140263,0.14026 -0.163878,0.42212 -0.07785,0.92917 l 0.123489,0.72783 0.785502,0.0502 c 0.432027,0.0276 2.528293,-0.0638 4.658369,-0.20318 4.494319,-0.2941 7.892294,-0.33046 8.043334,-0.0861 0.05689,0.092 -0.257371,0.73209 -0.698356,1.42231 -1.1404,1.78495 -1.978472,3.36051 -3.174998,5.96893 -1.256952,2.74016 -1.7846,4.16496 -2.374382,6.41151 -0.245108,0.93365 -0.512986,1.71655 -0.595284,1.73977 -0.0823,0.0232 -1.155414,-0.75958 -2.384703,-1.73957 z M 45.767779,190.741 c 0,-0.16093 -0.08778,-0.38037 -0.195061,-0.48765 -0.284617,-0.28462 -0.780243,-0.23921 -0.780243,0.0715 0,0.28928 0.445544,0.69528 0.772115,0.70359 0.111754,0.003 0.203189,-0.1265 0.203189,-0.28742 z m 91.579341,-3.46878 c 9.29112,-4.85643 21.71255,-12.00798 32.93447,-18.96178 9.16685,-5.68034 26.91254,-18.04684 35.54508,-24.77041 4.49069,-3.49764 5.27655,-4.23881 4.21074,-3.97131 -0.82806,0.20783 -11.88112,6.59775 -16.39116,9.47594 -0.60457,0.38582 -1.84809,1.024 -2.76336,1.41817 -13.12281,5.65145 -13.40038,5.7859 -19.21962,9.30972 -7.22527,4.37525 -7.07095,4.27659 -7.07095,4.52039 0,0.11819 0.18265,0.56909 0.4059,1.002 0.22324,0.43292 0.44794,1.11629 0.49933,1.5186 0.0906,0.70907 0.0554,0.78376 -1.14853,2.43826 -0.68308,0.93873 -1.39567,1.87102 -1.58353,2.07176 -0.18786,0.20074 -1.9201,1.33309 -3.84943,2.51634 -3.96588,2.43227 -2.7494,1.97601 -12.67429,4.7536 l -5.42778,1.51902 -1.85868,1.84378 c -1.87273,1.85773 -6.44072,6.73859 -6.83961,7.30809 -0.34172,0.48787 -0.0895,0.65912 0.56679,0.38489 0.3206,-0.13396 2.41968,-1.20363 4.66463,-2.37706 z m -4.77728,1.98199 c 0,-0.4422 7.89497,-8.6554 8.57986,-8.92569 0.24293,-0.0959 2.67271,-0.79455 5.3995,-1.55261 9.6475,-2.68206 8.4487,-2.22638 12.64394,-4.80612 l 3.7089,-2.28067 1.45048,-1.99078 c 1.69655,-2.32852 1.77093,-2.67368 0.93822,-4.35374 l -0.4897,-0.988 0.50521,-0.37623 c 0.41894,-0.312 5.87454,-3.63864 10.76947,-6.56687 1.24716,-0.74607 1.44929,-0.8383 10.54222,-4.81027 5.27301,-2.30335 6.37503,-2.84979 8.94028,-4.43302 5.83773,-3.60295 13.50012,-7.97948 13.67109,-7.80851 0.20264,0.20264 -7.76183,6.27327 -15.21532,11.59734 -15.06671,10.76222 -27.95666,18.99901 -43.40103,27.73361 -9.73343,5.50477 -18.04312,9.90831 -18.04312,9.56156 z M 42.033378,187.1308 c 1.96177,-0.23374 2.108894,-0.27991 2.108894,-0.66178 0,-0.18263 -0.18818,-1.00415 -0.418178,-1.82559 -0.229997,-0.82145 -0.519335,-1.85929 -0.642971,-2.3063 -0.338959,-1.22552 -1.84654,-2.38167 -5.359603,-4.11022 -1.519848,-0.74782 -3.108187,-1.57956 -3.529641,-1.8483 -0.421453,-0.26875 -0.842053,-0.4418 -0.934666,-0.38456 -0.245682,0.15184 -0.20708,0.90198 0.15758,3.06221 0.17833,1.05641 0.324236,1.94755 0.324236,1.9803 0,0.16228 6.540737,6.25836 6.714858,6.25836 0.111141,0 0.821912,-0.0738 1.579491,-0.16412 z m 17.141371,-1.45578 c 0.05335,-0.0863 -0.681701,-1.07052 -1.633449,-2.18711 -1.595439,-1.87176 -1.782981,-2.03793 -2.403755,-2.12988 -1.097547,-0.16256 -2.461363,-0.0328 -2.461363,0.23412 0,0.25731 5.789564,4.23982 6.163621,4.23982 0.130869,0 0.281595,-0.0706 0.334946,-0.15695 z m 5.014339,-0.91198 c 0.374116,-0.25421 0.595929,-0.52399 0.5646,-0.68667 -0.05573,-0.28941 -2.857695,-1.48155 -3.502958,-1.4904 -0.432494,-0.006 -0.455073,0.12021 -0.109766,0.6132 0.28027,0.40014 2.128474,1.9826 2.315543,1.9826 0.06401,0 0.393669,-0.18843 0.732581,-0.41873 z m -1.832702,-0.72506 c -0.925963,-0.77059 -1.189455,-1.13192 -0.825424,-1.13192 0.252373,0 2.669583,0.98319 2.848869,1.15877 0.173156,0.16957 -0.482813,0.7815 -0.844953,0.78822 -0.107112,0.002 -0.637433,-0.36479 -1.178492,-0.81507 z m -8.786175,-5.45045 c 0,-0.25312 -1.39419,-1.67849 -2.72983,-2.79088 -0.873771,-0.72772 -1.079575,-0.58432 -0.925959,0.64518 0.06099,0.48815 0.160572,0.96794 0.221291,1.06618 0.151934,0.24584 2.618183,1.30907 3.068759,1.32298 0.228512,0.007 0.365739,-0.0843 0.365739,-0.24346 z m -24.14918,-1.73649 c 0.04238,-0.20115 0.06207,-1.05089 0.04374,-1.8883 l -0.03333,-1.52257 -2.031883,-1.16854 c -3.374322,-1.94058 -7.964983,-5.19452 -7.964983,-5.64573 0,-0.32141 0.343611,-0.78767 0.58048,-0.78767 0.134167,0 0.917932,0.42767 1.7417,0.95037 0.823768,0.5227 2.910658,1.70394 4.637533,2.62497 2.657631,1.41746 3.172251,1.63969 3.351274,1.44726 0.274719,-0.29531 0.594047,-1.61714 0.448624,-1.85705 -0.43912,-0.72442 -13.156517,-11.49654 -13.67798,-11.58576 -0.208087,-0.0356 -0.38414,0.18035 -0.649047,0.79614 -0.448962,1.04364 -0.393082,1.49799 0.497848,4.04796 0.707612,2.02529 0.800666,2.34949 1.236165,4.30691 l 0.289171,1.29972 2.682086,2.3295 c 3.764173,3.26933 8.333653,7.0085 8.571451,7.01395 0.110051,0.003 0.234771,-0.16 0.277156,-0.36116 z M 235.757,175.07111 c 0.3027,-0.30269 0.23117,-0.4829 -0.16901,-0.42581 -0.20025,0.0286 -0.38848,0.17996 -0.4183,0.33641 -0.0622,0.32607 0.29611,0.3806 0.58731,0.0894 z M 42.354412,173.11238 c 1.08e-4,-0.11176 0.114485,-1.18545 0.254171,-2.38598 0.139686,-1.20053 0.215071,-2.33432 0.167522,-2.51953 -0.13052,-0.5084 -6.520622,-6.82229 -6.797217,-6.71615 -0.270468,0.10379 -1.30143,2.65593 -1.706709,4.22495 l -0.283243,1.09656 0.403336,0.39681 c 1.027196,1.01059 7.424958,6.09349 7.677479,6.09962 0.156455,0.004 0.284552,-0.0845 0.284661,-0.19628 z m 114.791748,-2.74371 c 3.19608,-1.75637 3.4165,-1.90887 4.4295,-3.06444 1.06312,-1.21274 1.36759,-1.90787 0.76683,-1.75077 -1.06843,0.27941 -9.6585,6.02702 -9.75331,6.52595 -0.12205,0.64225 1.1317,0.17158 4.55698,-1.71074 z m -3.8466,1.34036 c 1.02451,-0.97832 8.52792,-5.79001 8.85763,-5.68011 0.0926,0.0309 -0.30588,0.57575 -0.88552,1.21085 -0.97143,1.06438 -1.31426,1.29639 -4.3812,2.96506 -3.20673,1.74473 -4.33987,2.21939 -3.59091,1.5042 z M 43.492069,164.6855 c 0,-0.0976 -0.718112,-1.35939 -1.595804,-2.804 -0.877692,-1.44461 -1.905053,-3.19014 -2.283023,-3.87896 -0.715062,-1.30313 -1.940088,-2.56755 -2.487558,-2.56755 -0.379758,0 -0.600708,0.54898 -0.733925,1.82353 l -0.100707,0.96351 3.320452,3.32045 c 2.971363,2.97136 3.880565,3.70776 3.880565,3.14302 z m -29.909323,-1.10304 c 0,-0.55338 -0.567929,-2.47845 -0.787133,-2.66809 -0.392505,-0.33956 -2.512874,-0.94399 -2.690043,-0.76682 -0.2044172,0.20442 0.131228,0.66533 1.629375,2.23749 1.122265,1.1777 1.847801,1.64787 1.847801,1.19742 z m 151.208644,-4.58998 c 0.37057,-0.18905 2.80022,-1.56552 5.39922,-3.05882 4.30834,-2.47541 10.52312,-6.53168 18.94686,-12.36626 1.11754,-0.77404 3.23882,-2.08727 4.71397,-2.91829 1.47515,-0.83102 3.2307,-1.82062 3.90122,-2.1991 1.29842,-0.7329 5.76,-3.20933 9.50921,-5.27816 2.35012,-1.29679 5.06167,-2.74737 10.80962,-5.78271 12.04913,-6.36285 12.01306,-6.34172 14.94505,-8.75601 2.41309,-1.98702 5.38858,-4.01018 7.00082,-4.76014 1.48655,-0.6915 1.57767,-0.78087 5.40769,-5.30391 2.02882,-2.39592 4.38698,-6.24604 7.14664,-11.668214 1.74635,-3.43122 2.17553,-4.506668 1.84853,-4.632148 -0.28204,-0.10823 -5.48825,3.285349 -8.22746,5.362936 -1.20694,0.915415 -3.52126,2.587886 -5.14294,3.716596 -1.62167,1.12872 -4.40129,3.19249 -6.17692,4.58617 -1.77564,1.39368 -3.52102,2.73252 -3.87863,2.9752 -0.35761,0.24269 -4.05158,2.969 -8.20881,6.05847 -4.15723,3.08947 -9.60674,7.10877 -12.11002,8.93177 -12.69089,9.24209 -42.9375,31.86816 -46.12376,34.50302 -1.13569,0.93916 -1.01713,1.23079 0.23971,0.5896 z m 0.77993,-1.01886 c 1.23255,-1.18543 32.11635,-24.29391 45.46732,-34.02045 2.66113,-1.9387 8.11167,-5.96224 12.11232,-8.94119 4.00065,-2.97896 7.37591,-5.41628 7.50058,-5.41628 0.32601,0 0.38675,0.25368 0.51128,2.13558 0.11715,1.77036 -0.29085,7.48293 -0.59082,8.27217 -0.23696,0.62347 -0.0233,0.50345 -14.53239,8.1633 -3.21851,1.69916 -6.80275,3.61831 -7.96499,4.26478 -1.16223,0.64646 -3.28352,1.82001 -4.71397,2.60788 -10.01899,5.51832 -11.89364,6.64568 -18.36822,11.04608 -3.57612,2.43047 -7.3798,5.00526 -8.45264,5.72175 -1.8947,1.26536 -10.9601,6.55366 -11.23453,6.55366 -0.0751,0 0.0446,-0.17428 0.26606,-0.38728 z M 45.530319,155.30467 c 2.948136,-11.60796 8.826701,-22.69258 17.581935,-33.1525 1.975967,-2.36069 2.239015,-2.7364 2.013462,-2.8758 -0.391644,-0.24205 -1.580454,0.70226 -3.914155,3.10915 -2.750563,2.83683 -4.757771,5.21984 -6.68397,7.93539 -0.69757,0.98343 -1.787547,2.37324 -2.422173,3.08846 -0.634626,0.71523 -1.789893,2.13649 -2.56726,3.15836 -0.777367,1.02188 -2.330421,2.814 -3.45123,3.9825 -3.3124,3.45332 -6.009282,6.82831 -6.2734,7.85078 -0.0631,0.24426 0.117436,0.74673 0.554827,1.54423 0.356596,0.65019 1.068238,2.13308 1.581426,3.29532 1.527167,3.45863 2.338128,4.9853 2.617594,4.92774 0.175964,-0.0362 0.457483,-0.87344 0.962944,-2.86363 z m -2.320795,0.0126 c -0.633318,-1.32099 -1.334286,-2.84069 -1.557707,-3.37711 -0.223421,-0.53642 -0.668816,-1.4395 -0.989766,-2.00686 -0.32095,-0.56736 -0.581533,-1.18911 -0.579072,-1.38168 0.0097,-0.76128 2.931295,-4.45494 6.255552,-7.90873 1.075622,-1.11754 2.481481,-2.73239 3.124132,-3.58856 0.64265,-0.85617 1.837017,-2.31913 2.65415,-3.25101 0.817133,-0.93189 1.783605,-2.13323 2.147716,-2.66965 1.881031,-2.77118 4.500105,-5.89822 7.476882,-8.92703 1.309985,-1.33288 2.459186,-2.37024 2.625788,-2.37024 0.347938,0 0.488012,-0.20261 -1.629334,2.35677 -3.351104,4.05071 -7.40396,9.86112 -9.6943,13.8983 -3.402423,5.99745 -6.150531,12.74176 -7.747725,19.01419 -0.352268,1.38342 -0.706715,2.53737 -0.787659,2.56436 -0.08094,0.027 -0.66534,-1.03176 -1.298657,-2.35275 z m -9.319982,-0.43669 c 0.104676,-0.12613 0.232103,-0.4868 0.283171,-0.8015 l 0.09285,-0.57217 -1.639895,-1.071 c -1.859636,-1.21451 -2.064247,-1.31496 -2.207254,-1.08357 -0.141499,0.22895 2.837232,3.75756 3.172004,3.75756 0.05984,0 0.194447,-0.10319 0.299124,-0.22932 z m 16.05511,-5.69345 c 4.468972,-8.09719 7.532759,-12.27468 14.372484,-19.59699 8.03298,-8.59974 12.427793,-12.77144 20.787905,-19.73253 1.475148,-1.22829 2.782443,-2.37488 2.905101,-2.54798 0.411135,-0.58021 -0.312003,-0.36806 -1.856869,0.54476 -0.800034,0.47272 -3.72219,2.0177 -6.493679,3.4333 -9.957059,5.08578 -9.409142,4.71669 -13.090912,8.81833 -6.010286,6.6957 -11.141253,14.14211 -14.652151,21.26421 -2.159466,4.38063 -4.682728,10.98952 -4.434401,11.61452 0.145026,0.36501 0.279855,0.15708 2.462522,-3.79762 z m -1.81692,2.10283 c 0.172766,-0.82089 1.688427,-4.74507 2.793838,-7.23351 3.521417,-7.92719 9.004277,-16.13773 16.010917,-23.97622 3.46801,-3.87974 2.57701,-3.28729 12.928374,-8.5965 3.018403,-1.54813 5.853745,-3.0163 6.30076,-3.26259 l 0.812753,-0.4478 -0.738538,0.708 c -0.406196,0.38939 -2.41776,2.14146 -4.470143,3.89347 -5.83419,4.98034 -9.426676,8.37136 -14.192142,13.39624 -9.864003,10.40097 -12.741536,14.11375 -17.39082,22.43878 -0.896161,1.60467 -1.74824,3.06387 -1.893508,3.24268 -0.254981,0.31385 -0.260571,0.30822 -0.161491,-0.16255 z M 201.58571,140.85843 c 3.71178,-1.89392 14.66607,-7.21387 17.13626,-8.32224 1.35255,-0.60689 1.89801,-0.99473 4.38887,-3.12065 3.03843,-2.59328 3.63423,-3.17623 3.48804,-3.41278 -0.12069,-0.19527 -0.38552,-0.0564 -7.55209,3.96039 -10.5031,5.88686 -19.9049,11.39506 -20.98489,12.29434 -0.85643,0.71313 0.2282,0.2825 3.52381,-1.39906 z m 0.71837,-0.85671 c 0.87641,-0.69158 8.1413,-4.92097 16.41761,-9.55783 6.58631,-3.69002 6.8362,-3.82549 6.91383,-3.74786 0.10433,0.10434 -0.88226,1.00812 -3.44665,3.15736 -1.54833,1.29766 -2.61401,2.06069 -3.25101,2.32771 -1.09958,0.46093 -6.75598,3.14911 -12.81384,6.08974 -2.32448,1.12835 -4.04345,1.90725 -3.81994,1.73088 z m -165.150951,0.15152 c 0.09659,-0.35871 0.15427,-1.2182 0.128179,-1.90997 l -0.04744,-1.25778 -0.930433,0.004 c -1.370157,0.006 -1.418495,0.13133 -0.698779,1.81556 0.33646,0.78736 0.678667,1.55957 0.760459,1.71603 0.253457,0.48482 0.602278,0.32204 0.788014,-0.36773 z m -0.569726,-0.34646 c -0.359847,-0.93774 -0.670853,-2.24957 -0.571455,-2.4104 0.06564,-0.1062 0.330848,-0.16895 0.589355,-0.13944 l 0.470015,0.0537 -0.05669,1.21913 c -0.05566,1.19703 -0.245828,1.7602 -0.431227,1.27706 z m -8.636104,-5.78784 c -0.05976,-0.24586 -0.425975,-1.53628 -0.813815,-2.8676 -0.630375,-2.16387 -0.811524,-2.57762 -1.708016,-3.90122 -1.450465,-2.14149 -1.764581,-2.44886 -1.764581,-1.72667 0,0.60234 3.324901,7.97826 3.939489,8.73932 0.281576,0.34867 0.46039,0.223 0.346923,-0.24383 z m -2.877567,-11.45982 c -0.05562,-0.55877 -0.214927,-1.85715 -0.354021,-2.88528 -0.763363,-5.64247 -1.171269,-14.48047 -0.91153,-19.749906 0.411214,-8.342457 1.845742,-16.63586 4.351674,-25.158221 0.414606,-1.410023 0.70695,-2.610557 0.649653,-2.667854 -0.237696,-0.237695 -0.942714,0.336292 -2.558792,2.08323 -2.258343,2.44121 -3.552637,3.99882 -3.74649,4.508691 -0.740696,1.948179 -2.318004,8.438502 -2.809945,11.562389 -0.601978,3.822636 -0.758569,6.308741 -0.780129,12.385611 -0.02388,6.73093 0.06754,7.72171 1.083371,11.74092 0.994666,3.93548 1.129578,4.27494 2.36288,5.94534 2.807495,3.80252 2.87487,3.85802 2.713329,2.23508 z M 209.86268,122.2898 c 2.71531,-1.75519 18.24176,-13.21393 24.40499,-18.01122 1.71097,-1.33177 4.38086,-3.2904 5.9331,-4.352517 1.55224,-1.062114 3.81097,-2.674834 5.01941,-3.583821 1.20844,-0.908987 2.65507,-1.937921 3.21474,-2.286519 0.98204,-0.611681 1.01699,-0.656523 1.00071,-1.284019 -0.009,-0.357611 0.0349,-0.924507 0.0982,-1.259767 0.14957,-0.792454 0.008,-0.790368 -1.92023,0.02823 -0.82616,0.350788 -1.91963,0.807962 -2.42995,1.015942 -0.70317,0.286574 -1.56791,0.948908 -3.57097,2.73513 -1.45371,1.296342 -3.74264,3.299862 -5.08652,4.452268 -1.34387,1.152403 -3.39433,2.921363 -4.55657,3.931003 -6.26403,5.44164 -9.77844,8.36174 -14.06063,11.68294 -4.66888,3.62111 -8.62343,6.80533 -9.10284,7.32964 l -0.40637,0.44444 0.40637,-0.21072 c 0.22351,-0.1159 0.69897,-0.39985 1.05658,-0.63101 z m 3.94984,-3.30019 c 0.11615,-0.1443 1.79216,-1.49404 3.72446,-2.99944 3.17936,-2.47693 8.55229,-6.89389 11.50668,-9.45937 0.62582,-0.54344 1.2335,-0.9905 1.35039,-0.99347 0.15008,-0.004 0.19785,0.19731 0.16255,0.68442 l -0.05,0.68982 -6.98968,5.15839 c -7.3758,5.44334 -10.05223,7.35175 -9.70442,6.91965 z m 39.00376,-27.760941 c 1.05589,-0.714566 2.15458,-1.500905 2.44152,-1.74742 0.62064,-0.533196 0.84191,-1.292352 1.3696,-4.698987 0.46408,-2.99602 0.41186,-3.067864 -1.2429,-1.709729 -0.67193,0.55149 -1.33001,1.00271 -1.46239,1.00271 -0.30372,0 -2.63085,1.495967 -4.09325,2.631293 -1.46333,1.136044 -3.79865,3.383512 -3.79865,3.655742 0,0.2904 0.55743,0.271313 1.15882,-0.03968 0.64141,-0.331688 6.53145,-2.346141 6.85985,-2.346141 0.35386,0 0.47427,0.259186 0.36067,0.77638 -0.0827,0.376433 -0.24356,0.486432 -1.06601,0.728818 -0.53275,0.157009 -1.36323,0.433106 -1.8455,0.613548 l -0.87687,0.328076 -0.0807,0.930386 c -0.0833,0.960368 -0.0454,1.174211 0.20815,1.174211 0.0813,0 1.01174,-0.584644 2.06764,-1.299209 z M 127.36822,83.140432 c 4.3537,-2.464077 5.35431,-3.128956 4.7089,-3.128956 -0.0922,0 -1.02482,0.377658 -2.07252,0.83924 -1.84896,0.814592 -5.41101,3.067211 -6.13122,3.877345 l -0.3251,0.365692 0.40637,-0.125667 c 0.22351,-0.06912 1.75961,-0.891562 3.41357,-1.827654 z m 0.13128,-0.663896 c 0.29571,-0.259875 0.84432,-0.589771 1.21913,-0.733103 l 0.68147,-0.260603 -0.40483,0.337971 c -0.22265,0.185884 -0.77126,0.51578 -1.21913,0.733102 l -0.8143,0.395132 z m 125.8926,0.117452 c 0.3764,-0.18887 1.06525,-0.627757 1.53078,-0.975304 0.46553,-0.347547 0.91429,-0.631904 0.99725,-0.631904 0.083,0 0.27218,0.185201 0.42049,0.411557 0.47314,0.722104 0.63317,0.321077 0.51394,-1.287885 -0.11421,-1.541105 -0.35053,-2.701575 -0.54929,-2.697298 -0.24728,0.0053 -0.49623,0.292321 -1.47833,1.704293 -0.55966,0.804626 -1.33898,1.901843 -1.73183,2.438261 -1.0381,1.417499 -0.96538,1.671714 0.29699,1.03828 z M 128.50607,212.24801 c -1.11754,-0.11481 -2.23191,-0.17149 -2.47639,-0.12597 -0.53967,0.10049 -4.59628,-0.25976 -5.10561,-0.45341 -0.20029,-0.0762 -1.73991,-0.25869 -3.42139,-0.40566 -2.91136,-0.25446 -6.16033,-0.91673 -6.58613,-1.34253 -0.15458,-0.15458 0.9742,-1.1135 3.77271,-3.20498 6.58646,-4.92242 8.29843,-6.35787 10.09381,-8.46346 0.27239,-0.31945 1.9439,-1.29263 4.71397,-2.74454 11.57601,-6.06747 16.18816,-8.60572 26.07372,-14.34939 15.1111,-8.77981 31.0843,-19.42658 46.48949,-30.9871 5.7213,-4.29344 16.16692,-12.85815 22.74148,-18.64651 4.27757,-3.76604 4.80713,-4.21074 5.01435,-4.21074 0.11189,0 0.13104,0.53791 0.0573,1.60896 -0.08,1.16133 -0.33497,2.42886 -0.91649,4.55595 -0.44312,1.62084 -0.90833,3.10953 -1.03381,3.3082 -0.12548,0.19867 -0.86116,2.66537 -1.63484,5.48156 -1.86817,6.80009 -2.14144,7.67139 -2.60737,8.31347 -0.61138,0.8425 -1.49296,2.59108 -1.70688,3.3855 -0.21994,0.81683 -2.98802,6.42466 -3.25171,6.58763 -0.23922,0.14785 -2.00729,3.71806 -2.33466,4.71432 -0.208,0.63297 -1.74345,2.68248 -6.94144,9.26539 -3.67089,4.64895 -6.94417,8.72117 -7.27395,9.04939 -0.32978,0.32821 -4.36671,3.5716 -8.97096,7.20753 l -8.37136,6.61078 -3.3861,1.69211 c -1.86236,0.93067 -3.49172,1.69212 -3.62081,1.69212 -0.30367,0 -2.48563,1.09795 -2.7932,1.40553 -0.12974,0.12974 -2.08067,1.13531 -4.33542,2.23462 l -4.09952,1.99873 -8.61434,2.38211 -8.61433,2.38211 -6.32564,0.55645 c -7.42063,0.65277 -11.64535,0.79864 -14.53445,0.50183 z m 53.07279,-9.20534 c -1.87746,-0.33814 -3.90731,-0.6981 -4.51078,-0.7999 -0.60347,-0.10181 -1.09721,-0.23914 -1.09721,-0.30519 0,-0.066 0.35569,-0.28667 0.79043,-0.49029 l 0.79043,-0.37022 3.72035,0.76604 c 3.44015,0.70834 4.12673,0.90933 4.12673,1.20807 0,0.0614 -0.0914,0.22288 -0.20319,0.35893 -0.18041,0.21962 -0.58588,0.17843 -3.61676,-0.36744 z m -67.62842,-19.17319 c -0.052,-0.0842 0.0971,-0.90227 0.33146,-1.818 0.32726,-1.27893 0.71039,-2.19259 1.65245,-3.94067 2.32923,-4.32204 4.7587,-7.26709 11.33091,-13.73553 2.77054,-2.72679 7.5697,-7.49417 10.66481,-10.59418 l 5.62748,-5.63639 1.37317,-0.18801 c 0.75525,-0.10341 1.46495,-0.26418 1.5771,-0.35726 0.11216,-0.0931 0.20393,-0.52345 0.20393,-0.95637 0,-0.92852 -0.23644,-1.12367 -1.36141,-1.12367 -0.40291,0 -0.77673,-0.0715 -0.83071,-0.1588 -0.054,-0.0873 -0.0188,-0.43479 0.0781,-0.77212 0.19074,-0.66363 0.55167,-0.9899 4.13823,-3.7408 5.71264,-4.38162 6.77199,-5.28015 6.72111,-5.70082 -0.0269,-0.22236 -0.1703,-0.48028 -0.31868,-0.57315 -0.21837,-0.13667 -0.70121,0.15454 -2.53317,1.52784 -1.24485,0.93318 -3.28131,2.44255 -4.52545,3.35416 -2.73346,2.00286 -4.36698,3.33767 -4.69241,3.83433 -0.1331,0.20314 -0.33563,0.84271 -0.45007,1.42127 l -0.20807,1.05192 -2.43826,0.10177 c -1.89872,0.0793 -3.02651,0.22868 -5.09665,0.67528 -1.46212,0.31542 -2.72902,0.64412 -2.81534,0.73044 -0.19956,0.19956 -0.005,1.2696 0.27256,1.50007 0.15255,0.1266 1.08317,0.0166 3.39032,-0.40059 3.33559,-0.60322 4.71598,-0.70918 4.92083,-0.37774 0.13422,0.21718 -6.14438,6.4396 -10.18093,10.08983 -7.66548,6.93186 -13.41583,13.29136 -15.75838,17.42771 -1.42154,2.51009 -2.4223,4.5055 -2.76708,5.51728 -0.15056,0.44182 -0.34741,0.82786 -0.43745,0.85787 -0.09,0.03 -0.7401,-0.77036 -1.44459,-1.77861 -1.86732,-2.67245 -2.51666,-3.25029 -5.20852,-4.63488 -2.53526,-1.30404 -3.97116,-1.71862 -9.979499,-2.88134 l -3.004109,-0.58135 -2.805703,0.19411 c -1.543137,0.10676 -2.847685,0.15213 -2.898996,0.10082 -0.159528,-0.15953 1.619098,-3.35245 2.967869,-5.32781 0.45783,-0.67052 1.47897,-1.84689 2.269198,-2.61415 2.295418,-2.22871 8.41788,-7.67226 9.22095,-8.19845 0.2095,-0.13727 0.87078,-1.01351 1.46951,-1.9472 l 1.08861,-1.69763 -0.11448,-1.55946 c -0.12729,-1.73416 -0.39845,-2.31231 -0.9956,-2.12278 -0.373,0.11839 -0.53016,0.53121 -0.53353,1.40142 -0.004,0.99067 -1.40059,2.6591 -3.572952,4.26791 -2.732251,2.02346 -7.679945,6.04871 -9.234872,7.51315 -0.829584,0.7813 -1.953617,2.03342 -2.497853,2.78249 -0.554345,0.76299 -1.10816,1.36195 -1.259292,1.36195 -0.709995,0 -3.034428,-0.36195 -3.335392,-0.51938 -0.186679,-0.0976 -1.105825,-0.72737 -2.042545,-1.39939 -1.398726,-1.00347 -1.907151,-1.27172 -2.844637,-1.50083 -5.578191,-1.36329 -8.372085,-1.98048 -8.588756,-1.89734 -0.355573,0.13645 -0.67877,1.36758 -0.435855,1.66028 0.192515,0.23196 1.212649,0.6202 5.838107,2.22186 2.836597,0.98223 3.574401,1.33551 3.584118,1.71616 0.0028,0.11005 -0.196048,0.24486 -0.441906,0.29957 -0.245858,0.0547 -0.556736,0.12665 -0.69084,0.15985 -0.727849,0.1802 -13.193452,1.7607 -17.799299,2.25675 -6.665726,0.71791 -6.716545,0.72476 -6.837811,0.92097 -0.142138,0.22998 -0.449776,-0.0636 -1.055139,-1.007 -0.624136,-0.97263 -0.616414,-1.06347 0.440935,-5.18721 0.937149,-3.65495 1.898197,-6.52051 3.228458,-9.62631 1.365574,-3.18824 2.658104,-5.53997 5.330782,-9.69924 5.264832,-8.19322 8.177764,-11.68272 17.736419,-21.24703 7.582864,-7.58735 10.285797,-10.11721 14.560519,-13.62819 5.219303,-4.28679 7.023627,-5.66299 13.979361,-10.662389 l 4.14504,-2.979228 5.07173,-1.659996 c 4.70184,-1.538932 11.00838,-4.052389 11.28832,-4.498939 0.0577,-0.0921 0.0184,-0.468065 -0.0875,-0.835467 -0.15122,-0.524809 -0.27826,-0.67782 -0.59264,-0.713794 -0.22008,-0.02518 -1.57051,0.402938 -3.00096,0.951383 -3.09848,1.187983 -4.48751,1.650756 -4.60429,1.53398 -0.12816,-0.128162 0.1838,-0.333061 4.60429,-3.024186 7.58561,-4.617997 17.04769,-9.791001 20.88776,-11.419532 1.56455,-0.663508 3.75899,-1.623082 4.87652,-2.132387 1.11754,-0.509304 3.2754,-1.356009 4.79525,-1.881565 4.63531,-1.60287 6.33187,-2.324444 6.38998,-2.717761 0.0658,-0.445795 -0.39956,-1.339152 -0.69766,-1.339152 -0.12784,0 -1.09517,0.336218 -2.14962,0.74715 -1.05446,0.410932 -3.05099,1.135433 -4.43673,1.610002 -1.38575,0.474568 -3.50703,1.313675 -4.71397,1.864681 -1.20694,0.551006 -3.32823,1.478512 -4.71397,2.061125 -1.38574,0.582612 -3.42733,1.53888 -4.53685,2.12504 -1.90148,1.004546 -2.02983,1.048644 -2.23508,0.767949 -0.11976,-0.163788 -0.21775,-0.425144 -0.21775,-0.580791 0,-0.18915 1.28022,-1.132003 3.86058,-2.843222 6.47677,-4.295209 7.89974,-5.200916 13.12597,-8.354526 2.77149,-1.672373 6.24601,-3.77398 7.72115,-4.670238 5.43797,-3.303957 12.36342,-6.692611 16.19405,-7.923816 1.2405,-0.39871 2.54805,-0.819288 2.90566,-0.934618 0.67,-0.216077 0.7084,-0.303238 0.55295,-1.255158 -0.0561,-0.343359 0.032,-0.436093 0.62334,-0.656129 1.04622,-0.389315 1.11523,-0.512193 0.78029,-1.389237 -0.28383,-0.743203 -0.29589,-0.752074 -0.87836,-0.646025 -0.84981,0.154726 -3.23661,1.125701 -5.28763,2.151064 -1.93899,0.969353 -9.52494,5.121302 -10.17633,5.569714 -0.2235,0.153861 -2.30822,1.323553 -4.63269,2.599315 -2.32448,1.275761 -6.82307,3.872508 -9.99687,5.770549 -3.1738,1.898041 -7.59924,4.534543 -9.83431,5.858895 -6.62851,3.9276 -13.17697,8.034395 -17.50853,10.980277 -2.23513,1.520102 -4.367,2.915799 -4.73749,3.101549 -0.3705,0.18575 -1.35432,0.846051 -2.18627,1.467335 -0.83195,0.621284 -3.46527,2.489622 -5.85182,4.151861 -2.38655,1.662239 -5.76557,4.057271 -7.50892,5.322293 -2.67379,1.940165 -3.907314,2.696359 -7.883712,4.832984 -2.592683,1.39312 -5.994056,3.27372 -7.558606,4.17911 -3.198026,1.85067 -9.859474,5.26399 -10.110152,5.18043 -0.290079,-0.0967 2.837929,-2.9382 5.824746,-5.29125 10.950567,-8.626961 11.864581,-9.285588 22.084704,-15.913962 4.59368,-2.979283 4.09476,-2.695352 13.84327,-7.878031 0.99798,-0.530567 1.90662,-1.075655 2.0192,-1.211308 0.29866,-0.359854 -6.2e-4,-1.106797 -0.47039,-1.174018 -0.22889,-0.03275 -1.52252,0.559881 -3.41029,1.562322 -1.67283,0.888302 -4.06557,2.149396 -5.31721,2.802431 -2.44209,1.274145 -4.70756,2.624944 -8.14078,4.85398 -1.18583,0.769908 -3.42351,2.204267 -4.97262,3.187465 -3.333164,2.115508 -5.416672,3.594214 -9.156044,6.49822 -1.519849,1.180319 -3.567987,2.756561 -4.551419,3.502761 -4.11011,3.11863 -6.853962,5.4755 -10.235313,8.79175 -1.969822,1.93191 -3.81805,3.63386 -4.107174,3.78213 l -0.525681,0.26958 -0.287327,-0.61021 c -0.15803,-0.33562 -0.417632,-0.63531 -0.576895,-0.66598 -0.183927,-0.0354 -0.747204,0.38155 -1.543977,1.14295 -2.217129,2.11869 -3.831927,3.46734 -4.787424,3.99838 -0.512712,0.28494 -0.969886,0.51808 -1.015942,0.51808 -0.17207,0 -0.07153,-0.56195 0.344697,-1.92653 l 0.428434,-1.40461 2.456975,-2.43909 c 2.498029,-2.47984 5.133875,-4.68969 8.42888,-7.06661 1.006642,-0.72617 2.781179,-2.01439 3.943416,-2.86272 1.162238,-0.84832 2.216768,-1.60438 2.343401,-1.68013 0.295998,-0.17704 0.264103,-1.295332 -0.04578,-1.605218 -0.140328,-0.140327 -0.363436,-0.186968 -0.574275,-0.12005 -0.490962,0.155825 -8.206089,5.319528 -10.338528,6.919538 -3.352686,2.51558 -7.540548,6.31656 -8.039103,7.29644 -0.434875,0.85472 -1.211815,3.12396 -1.730774,5.05515 l -0.455114,1.69361 -4.743359,4.71875 c -5.302583,5.27507 -6.900267,7.08098 -9.286243,10.49655 -1.424535,2.03925 -4.234451,6.39826 -5.37869,8.34395 -0.20379,0.34653 -0.392027,0.60255 -0.418305,0.56893 -0.02628,-0.0336 0.04494,-1.04862 0.158273,-2.25556 0.300519,-3.20053 0.287012,-5.50874 -0.03674,-6.27899 -0.29282,-0.69665 -0.244572,-2.79701 0.111181,-4.83989 0.210335,-1.20783 0.12527,-1.7988 -0.281385,-1.95485 -0.697985,-0.26784 -1.291591,1.54654 -1.450274,4.43281 -0.12893,2.3451 -0.08228,2.24577 -1.115205,2.37482 -0.497551,0.0622 -1.013304,0.0425 -1.168968,-0.0447 -0.180806,-0.10118 -0.470359,-0.85819 -0.825059,-2.15705 -0.506454,-1.85455 -0.604675,-2.65012 -1.340702,-10.85947 l -0.794213,-8.85832 0.791957,-8.86749 0.791957,-8.867485 2.427549,-8.777736 2.427548,-8.777737 4.392246,-8.859012 4.392246,-8.859012 6.884374,-8.632682 6.884374,-8.632681 8.802625,-7.010548 8.802624,-7.010547 8.915399,-4.384282 8.915399,-4.384281 8.859018,-2.428753 8.85901,-2.428752 8.69646,-0.754109 8.69646,-0.754108 8.85901,0.809128 8.85901,0.809127 8.69646,2.420178 8.69647,2.420178 8.85901,4.393521 8.85901,4.393522 8.69646,6.942042 8.69646,6.942043 6.95562,8.726777 6.95561,8.726778 4.36832,8.813793 4.36833,8.813794 2.44461,8.90423 2.44461,8.904231 0.25145,2.872771 c 0.33259,3.799912 0.34276,3.645172 -0.27685,4.213012 -0.86042,0.78853 -13.35189,10.55267 -17.27101,13.50014 -2.76493,2.07943 -23.02339,16.50873 -27.19947,19.37311 -3.93502,2.69904 -8.24221,6.06156 -13.35692,10.42745 -1.47515,1.25918 -3.96217,3.34711 -5.52672,4.63985 -4.94302,4.08427 -10.0538,8.42136 -12.39835,10.52144 l -2.26556,2.02934 -3.68085,-0.0593 -3.68086,-0.0593 -0.15369,0.62229 c -0.25207,1.02064 -0.069,1.14664 1.87723,1.29194 2.66452,0.19892 3.09366,0.27233 2.9521,0.50498 -0.0683,0.11228 -1.14829,1.10931 -2.39993,2.21562 -3.26339,2.88445 -5.64758,5.06151 -7.2335,6.60508 l -1.38169,1.34478 -4.71396,1.64561 c -2.59269,0.90508 -7.49359,2.59784 -10.8909,3.76169 -3.39731,1.16385 -6.66933,2.2867 -7.27116,2.49523 -0.63376,0.21959 -1.13404,0.31475 -1.18882,0.22611 z"
       id="path1" /></g></svg>
